%TF.GenerationSoftware,KiCad,Pcbnew,9.0.3*%
%TF.CreationDate,2025-07-28T21:16:55+07:00*%
%TF.ProjectId,DIY Bluetooth Mechanical Keyboard,44495920-426c-4756-9574-6f6f7468204d,rev?*%
%TF.SameCoordinates,Original*%
%TF.FileFunction,Soldermask,Top*%
%TF.FilePolarity,Negative*%
%FSLAX46Y46*%
G04 Gerber Fmt 4.6, Leading zero omitted, Abs format (unit mm)*
G04 Created by KiCad (PCBNEW 9.0.3) date 2025-07-28 21:16:55*
%MOMM*%
%LPD*%
G01*
G04 APERTURE LIST*
G04 Aperture macros list*
%AMRoundRect*
0 Rectangle with rounded corners*
0 $1 Rounding radius*
0 $2 $3 $4 $5 $6 $7 $8 $9 X,Y pos of 4 corners*
0 Add a 4 corners polygon primitive as box body*
4,1,4,$2,$3,$4,$5,$6,$7,$8,$9,$2,$3,0*
0 Add four circle primitives for the rounded corners*
1,1,$1+$1,$2,$3*
1,1,$1+$1,$4,$5*
1,1,$1+$1,$6,$7*
1,1,$1+$1,$8,$9*
0 Add four rect primitives between the rounded corners*
20,1,$1+$1,$2,$3,$4,$5,0*
20,1,$1+$1,$4,$5,$6,$7,0*
20,1,$1+$1,$6,$7,$8,$9,0*
20,1,$1+$1,$8,$9,$2,$3,0*%
G04 Aperture macros list end*
%ADD10C,1.750000*%
%ADD11C,4.000000*%
%ADD12C,3.600000*%
%ADD13C,3.048000*%
%ADD14C,3.987800*%
%ADD15C,1.900000*%
%ADD16C,2.500000*%
%ADD17C,2.700000*%
%ADD18RoundRect,0.102000X-0.615000X-0.615000X0.615000X-0.615000X0.615000X0.615000X-0.615000X0.615000X0*%
%ADD19C,1.434000*%
%ADD20C,2.000000*%
%ADD21C,1.752600*%
%ADD22RoundRect,0.250000X0.625000X-0.350000X0.625000X0.350000X-0.625000X0.350000X-0.625000X-0.350000X0*%
%ADD23O,1.750000X1.200000*%
G04 APERTURE END LIST*
D10*
%TO.C,SW13*%
X100380800Y-178409600D03*
D11*
X105460800Y-178409600D03*
D10*
X110540800Y-178409600D03*
D12*
X101650800Y-175869600D03*
X108000800Y-173329600D03*
%TD*%
D10*
%TO.C,SW38*%
X214680800Y-159359600D03*
D11*
X219760800Y-159359600D03*
D10*
X224840800Y-159359600D03*
D12*
X215950800Y-156819600D03*
X222300800Y-154279600D03*
%TD*%
D10*
%TO.C,SW19*%
X143243300Y-121259600D03*
D11*
X148323300Y-121259600D03*
D10*
X153403300Y-121259600D03*
D12*
X144513300Y-118719600D03*
X150863300Y-116179600D03*
%TD*%
D10*
%TO.C,SW49*%
X276593300Y-121259600D03*
D11*
X281673300Y-121259600D03*
D10*
X286753300Y-121259600D03*
D12*
X277863300Y-118719600D03*
X284213300Y-116179600D03*
%TD*%
D13*
%TO.C,SW65*%
X305454050Y-133324600D03*
D14*
X305454050Y-148534600D03*
D13*
X329330050Y-133324600D03*
D14*
X329330050Y-148534600D03*
%TD*%
D10*
%TO.C,SW36*%
X219443300Y-121259600D03*
D11*
X224523300Y-121259600D03*
D10*
X229603300Y-121259600D03*
D12*
X220713300Y-118719600D03*
X227063300Y-116179600D03*
%TD*%
D10*
%TO.C,SW58*%
X314693300Y-102209600D03*
D11*
X319773300Y-102209600D03*
D10*
X324853300Y-102209600D03*
D12*
X315963300Y-99669600D03*
X322313300Y-97129600D03*
%TD*%
D10*
%TO.C,SW40*%
X238493300Y-121259600D03*
D11*
X243573300Y-121259600D03*
D10*
X248653300Y-121259600D03*
D12*
X239763300Y-118719600D03*
X246113300Y-116179600D03*
%TD*%
D10*
%TO.C,SW10*%
X105143300Y-121259600D03*
D11*
X110223300Y-121259600D03*
D10*
X115303300Y-121259600D03*
D12*
X106413300Y-118719600D03*
X112763300Y-116179600D03*
%TD*%
D13*
%TO.C,SW66*%
X307835300Y-95224600D03*
D14*
X307835300Y-110434600D03*
D13*
X331711300Y-95224600D03*
D14*
X331711300Y-110434600D03*
%TD*%
D10*
%TO.C,SW2*%
X62280800Y-121259600D03*
D11*
X67360800Y-121259600D03*
D10*
X72440800Y-121259600D03*
D12*
X63550800Y-118719600D03*
X69900800Y-116179600D03*
%TD*%
D10*
%TO.C,SW27*%
X181343300Y-121259600D03*
D11*
X186423300Y-121259600D03*
D10*
X191503300Y-121259600D03*
D12*
X182613300Y-118719600D03*
X188963300Y-116179600D03*
%TD*%
D15*
%TO.C,RV1*%
X344729550Y-97153350D03*
X344729550Y-162353350D03*
X353229550Y-98353350D03*
X353229550Y-161153350D03*
D16*
X350729550Y-93003350D03*
X347229550Y-93003350D03*
X350729550Y-166503350D03*
%TD*%
D10*
%TO.C,SW21*%
X138480800Y-159359600D03*
D11*
X143560800Y-159359600D03*
D10*
X148640800Y-159359600D03*
D12*
X139750800Y-156819600D03*
X146100800Y-154279600D03*
%TD*%
D10*
%TO.C,SW60*%
X312312050Y-140309600D03*
D11*
X317392050Y-140309600D03*
D10*
X322472050Y-140309600D03*
D12*
X313582050Y-137769600D03*
X319932050Y-135229600D03*
%TD*%
D17*
%TO.C,H5*%
X317604550Y-159359600D03*
%TD*%
D10*
%TO.C,SW32*%
X186105800Y-140309600D03*
D11*
X191185800Y-140309600D03*
D10*
X196265800Y-140309600D03*
D12*
X187375800Y-137769600D03*
X193725800Y-135229600D03*
%TD*%
D10*
%TO.C,SW61*%
X305168300Y-178409600D03*
D11*
X310248300Y-178409600D03*
D10*
X315328300Y-178409600D03*
D12*
X306438300Y-175869600D03*
X312788300Y-173329600D03*
%TD*%
D10*
%TO.C,SW17*%
X119430800Y-159359600D03*
D11*
X124510800Y-159359600D03*
D10*
X129590800Y-159359600D03*
D12*
X120700800Y-156819600D03*
X127050800Y-154279600D03*
%TD*%
D10*
%TO.C,SW5*%
X59899550Y-178409600D03*
D11*
X64979550Y-178409600D03*
D10*
X70059550Y-178409600D03*
D12*
X61169550Y-175869600D03*
X67519550Y-173329600D03*
%TD*%
D10*
%TO.C,SW12*%
X100380800Y-159359600D03*
D11*
X105460800Y-159359600D03*
D10*
X110540800Y-159359600D03*
D12*
X101650800Y-156819600D03*
X108000800Y-154279600D03*
%TD*%
D10*
%TO.C,SW7*%
X86093300Y-121259600D03*
D11*
X91173300Y-121259600D03*
D10*
X96253300Y-121259600D03*
D12*
X87363300Y-118719600D03*
X93713300Y-116179600D03*
%TD*%
D10*
%TO.C,SW56*%
X298024550Y-159359600D03*
D11*
X303104550Y-159359600D03*
D10*
X308184550Y-159359600D03*
D12*
X299294550Y-156819600D03*
X305644550Y-154279600D03*
%TD*%
D10*
%TO.C,SW4*%
X69424550Y-159359600D03*
D11*
X74504550Y-159359600D03*
D10*
X79584550Y-159359600D03*
D12*
X70694550Y-156819600D03*
X77044550Y-154279600D03*
%TD*%
D10*
%TO.C,SW6*%
X76568300Y-102209600D03*
D11*
X81648300Y-102209600D03*
D10*
X86728300Y-102209600D03*
D12*
X77838300Y-99669600D03*
X84188300Y-97129600D03*
%TD*%
D10*
%TO.C,SW35*%
X209918300Y-102209600D03*
D11*
X214998300Y-102209600D03*
D10*
X220078300Y-102209600D03*
D12*
X211188300Y-99669600D03*
X217538300Y-97129600D03*
%TD*%
D10*
%TO.C,SW43*%
X248018300Y-102209600D03*
D11*
X253098300Y-102209600D03*
D10*
X258178300Y-102209600D03*
D12*
X249288300Y-99669600D03*
X255638300Y-97129600D03*
%TD*%
D10*
%TO.C,SW53*%
X286118300Y-102209600D03*
D11*
X291198300Y-102209600D03*
D10*
X296278300Y-102209600D03*
D12*
X287388300Y-99669600D03*
X293738300Y-97129600D03*
%TD*%
D10*
%TO.C,SW46*%
X252780800Y-159359600D03*
D11*
X257860800Y-159359600D03*
D10*
X262940800Y-159359600D03*
D12*
X254050800Y-156819600D03*
X260400800Y-154279600D03*
%TD*%
D10*
%TO.C,SW18*%
X133718300Y-102209600D03*
D11*
X138798300Y-102209600D03*
D10*
X143878300Y-102209600D03*
D12*
X134988300Y-99669600D03*
X141338300Y-97129600D03*
%TD*%
D17*
%TO.C,H4*%
X55360800Y-121259600D03*
%TD*%
D10*
%TO.C,SW47*%
X240874550Y-178409600D03*
D11*
X245954550Y-178409600D03*
D10*
X251034550Y-178409600D03*
D12*
X242144550Y-175869600D03*
X248494550Y-173329600D03*
%TD*%
D10*
%TO.C,SW14*%
X114668300Y-102209600D03*
D11*
X119748300Y-102209600D03*
D10*
X124828300Y-102209600D03*
D12*
X115938300Y-99669600D03*
X122288300Y-97129600D03*
%TD*%
D10*
%TO.C,SW23*%
X162293300Y-121259600D03*
D11*
X167373300Y-121259600D03*
D10*
X172453300Y-121259600D03*
D12*
X163563300Y-118719600D03*
X169913300Y-116179600D03*
%TD*%
D10*
%TO.C,SW24*%
X148005800Y-140309600D03*
D11*
X153085800Y-140309600D03*
D10*
X158165800Y-140309600D03*
D12*
X149275800Y-137769600D03*
X155625800Y-135229600D03*
%TD*%
D10*
%TO.C,SW22*%
X152768300Y-102209600D03*
D11*
X157848300Y-102209600D03*
D10*
X162928300Y-102209600D03*
D12*
X154038300Y-99669600D03*
X160388300Y-97129600D03*
%TD*%
D17*
%TO.C,H3*%
X55454550Y-159359600D03*
%TD*%
D10*
%TO.C,SW50*%
X262305800Y-140309600D03*
D11*
X267385800Y-140309600D03*
D10*
X272465800Y-140309600D03*
D12*
X263575800Y-137769600D03*
X269925800Y-135229600D03*
%TD*%
D10*
%TO.C,SW44*%
X257543300Y-121259600D03*
D11*
X262623300Y-121259600D03*
D10*
X267703300Y-121259600D03*
D12*
X258813300Y-118719600D03*
X265163300Y-116179600D03*
%TD*%
D10*
%TO.C,SW62*%
X324218300Y-159359600D03*
D11*
X329298300Y-159359600D03*
D10*
X334378300Y-159359600D03*
D12*
X325488300Y-156819600D03*
X331838300Y-154279600D03*
%TD*%
D10*
%TO.C,SW37*%
X205155800Y-140309600D03*
D11*
X210235800Y-140309600D03*
D10*
X215315800Y-140309600D03*
D12*
X206425800Y-137769600D03*
X212775800Y-135229600D03*
%TD*%
D10*
%TO.C,SW52*%
X264687050Y-178409600D03*
D11*
X269767050Y-178409600D03*
D10*
X274847050Y-178409600D03*
D12*
X265957050Y-175869600D03*
X272307050Y-173329600D03*
%TD*%
D10*
%TO.C,SW20*%
X128955800Y-140309600D03*
D11*
X134035800Y-140309600D03*
D10*
X139115800Y-140309600D03*
D12*
X130225800Y-137769600D03*
X136575800Y-135229600D03*
%TD*%
D10*
%TO.C,SW54*%
X295643300Y-121259600D03*
D11*
X300723300Y-121259600D03*
D10*
X305803300Y-121259600D03*
D12*
X296913300Y-118719600D03*
X303263300Y-116179600D03*
%TD*%
D10*
%TO.C,SW26*%
X171818300Y-102209600D03*
D11*
X176898300Y-102209600D03*
D10*
X181978300Y-102209600D03*
D12*
X173088300Y-99669600D03*
X179438300Y-97129600D03*
%TD*%
D10*
%TO.C,SW55*%
X281355800Y-140309600D03*
D11*
X286435800Y-140309600D03*
D10*
X291515800Y-140309600D03*
D12*
X282625800Y-137769600D03*
X288975800Y-135229600D03*
%TD*%
D13*
%TO.C,SW67*%
X62566550Y-152374600D03*
D14*
X62566550Y-167584600D03*
D13*
X86442550Y-152374600D03*
D14*
X86442550Y-167584600D03*
%TD*%
D13*
%TO.C,SW68*%
X124517050Y-171424600D03*
D14*
X124517050Y-186634600D03*
D13*
X224517050Y-171424600D03*
D14*
X224517050Y-186634600D03*
%TD*%
D10*
%TO.C,SW41*%
X224205800Y-140309600D03*
D11*
X229285800Y-140309600D03*
D10*
X234365800Y-140309600D03*
D12*
X225475800Y-137769600D03*
X231825800Y-135229600D03*
%TD*%
D10*
%TO.C,SW45*%
X243255800Y-140309600D03*
D11*
X248335800Y-140309600D03*
D10*
X253415800Y-140309600D03*
D12*
X244525800Y-137769600D03*
X250875800Y-135229600D03*
%TD*%
D10*
%TO.C,SW30*%
X190868300Y-102209600D03*
D11*
X195948300Y-102209600D03*
D10*
X201028300Y-102209600D03*
D12*
X192138300Y-99669600D03*
X198488300Y-97129600D03*
%TD*%
D10*
%TO.C,SW28*%
X167055800Y-140309600D03*
D11*
X172135800Y-140309600D03*
D10*
X177215800Y-140309600D03*
D12*
X168325800Y-137769600D03*
X174675800Y-135229600D03*
%TD*%
D17*
%TO.C,H2*%
X202517050Y-178409600D03*
%TD*%
D10*
%TO.C,SW15*%
X124193300Y-121259600D03*
D11*
X129273300Y-121259600D03*
D10*
X134353300Y-121259600D03*
D12*
X125463300Y-118719600D03*
X131813300Y-116179600D03*
%TD*%
D10*
%TO.C,SW64*%
X343268300Y-178409600D03*
D11*
X348348300Y-178409600D03*
D10*
X353428300Y-178409600D03*
D12*
X344538300Y-175869600D03*
X350888300Y-173329600D03*
%TD*%
D10*
%TO.C,SW31*%
X200393300Y-121259600D03*
D11*
X205473300Y-121259600D03*
D10*
X210553300Y-121259600D03*
D12*
X201663300Y-118719600D03*
X208013300Y-116179600D03*
%TD*%
D10*
%TO.C,SW16*%
X109905800Y-140309600D03*
D11*
X114985800Y-140309600D03*
D10*
X120065800Y-140309600D03*
D12*
X111175800Y-137769600D03*
X117525800Y-135229600D03*
%TD*%
D10*
%TO.C,SW3*%
X64662050Y-140309600D03*
D11*
X69742050Y-140309600D03*
D10*
X74822050Y-140309600D03*
D12*
X65932050Y-137769600D03*
X72282050Y-135229600D03*
%TD*%
D10*
%TO.C,SW33*%
X195630800Y-159359600D03*
D11*
X200710800Y-159359600D03*
D10*
X205790800Y-159359600D03*
D12*
X196900800Y-156819600D03*
X203250800Y-154279600D03*
%TD*%
D10*
%TO.C,SW59*%
X319455800Y-121259600D03*
D11*
X324535800Y-121259600D03*
D10*
X329615800Y-121259600D03*
D12*
X320725800Y-118719600D03*
X327075800Y-116179600D03*
%TD*%
D10*
%TO.C,SW63*%
X324218300Y-178409600D03*
D11*
X329298300Y-178409600D03*
D10*
X334378300Y-178409600D03*
D12*
X325488300Y-175869600D03*
X331838300Y-173329600D03*
%TD*%
D10*
%TO.C,SW34*%
X169437050Y-178409600D03*
D11*
X174517050Y-178409600D03*
D10*
X179597050Y-178409600D03*
D12*
X170707050Y-175869600D03*
X177057050Y-173329600D03*
%TD*%
D10*
%TO.C,SW11*%
X90855800Y-140309600D03*
D11*
X95935800Y-140309600D03*
D10*
X101015800Y-140309600D03*
D12*
X92125800Y-137769600D03*
X98475800Y-135229600D03*
%TD*%
D10*
%TO.C,SW9*%
X95618300Y-102209600D03*
D11*
X100698300Y-102209600D03*
D10*
X105778300Y-102209600D03*
D12*
X96888300Y-99669600D03*
X103238300Y-97129600D03*
%TD*%
D10*
%TO.C,SW42*%
X233730800Y-159359600D03*
D11*
X238810800Y-159359600D03*
D10*
X243890800Y-159359600D03*
D12*
X235000800Y-156819600D03*
X241350800Y-154279600D03*
%TD*%
D10*
%TO.C,SW51*%
X271830800Y-159359600D03*
D11*
X276910800Y-159359600D03*
D10*
X281990800Y-159359600D03*
D12*
X273100800Y-156819600D03*
X279450800Y-154279600D03*
%TD*%
D10*
%TO.C,SW8*%
X81330800Y-178409600D03*
D11*
X86410800Y-178409600D03*
D10*
X91490800Y-178409600D03*
D12*
X82600800Y-175869600D03*
X88950800Y-173329600D03*
%TD*%
D17*
%TO.C,H1*%
X146517050Y-178409600D03*
%TD*%
D10*
%TO.C,SW39*%
X228968300Y-102209600D03*
D11*
X234048300Y-102209600D03*
D10*
X239128300Y-102209600D03*
D12*
X230238300Y-99669600D03*
X236588300Y-97129600D03*
%TD*%
D10*
%TO.C,SW48*%
X267068300Y-102209600D03*
D11*
X272148300Y-102209600D03*
D10*
X277228300Y-102209600D03*
D12*
X268338300Y-99669600D03*
X274688300Y-97129600D03*
%TD*%
D10*
%TO.C,SW57*%
X286118300Y-178409600D03*
D11*
X291198300Y-178409600D03*
D10*
X296278300Y-178409600D03*
D12*
X287388300Y-175869600D03*
X293738300Y-173329600D03*
%TD*%
D10*
%TO.C,SW29*%
X176580800Y-159359600D03*
D11*
X181660800Y-159359600D03*
D10*
X186740800Y-159359600D03*
D12*
X177850800Y-156819600D03*
X184200800Y-154279600D03*
%TD*%
D10*
%TO.C,SW25*%
X157530800Y-159359600D03*
D11*
X162610800Y-159359600D03*
D10*
X167690800Y-159359600D03*
D12*
X158800800Y-156819600D03*
X165150800Y-154279600D03*
%TD*%
D17*
%TO.C,H6*%
X312535800Y-119259600D03*
%TD*%
D10*
%TO.C,SW1*%
X57518300Y-102209600D03*
D11*
X62598300Y-102209600D03*
D10*
X67678300Y-102209600D03*
D12*
X58788300Y-99669600D03*
X65138300Y-97129600D03*
%TD*%
D18*
%TO.C,U3*%
X344880000Y-157650000D03*
D19*
X344880000Y-155110000D03*
X344880000Y-152570000D03*
X344880000Y-150030000D03*
X344880000Y-147490000D03*
X344880000Y-144950000D03*
X344880000Y-142410000D03*
X344880000Y-139870000D03*
X344880000Y-137330000D03*
X344880000Y-134790000D03*
X344880000Y-132250000D03*
X344880000Y-129710000D03*
X344880000Y-127170000D03*
X344880000Y-124630000D03*
X352750000Y-124630000D03*
X352750000Y-127170000D03*
X352750000Y-129710000D03*
X352750000Y-132250000D03*
X352750000Y-134790000D03*
X352750000Y-137330000D03*
X352750000Y-139870000D03*
X352750000Y-142410000D03*
X352750000Y-144950000D03*
X352750000Y-147490000D03*
X352750000Y-150030000D03*
X352750000Y-152570000D03*
X352750000Y-155110000D03*
X352750000Y-157650000D03*
%TD*%
D20*
%TO.C,GND*%
X55350000Y-149850000D03*
%TD*%
D21*
%TO.C,U1*%
X355707050Y-94540850D03*
X355707050Y-97080850D03*
X355707050Y-99620850D03*
X355707050Y-102160850D03*
X355707050Y-104700850D03*
X355707050Y-107240850D03*
X355707050Y-109780850D03*
X355707050Y-112320850D03*
X355707050Y-114860850D03*
X355707050Y-117400850D03*
X355707050Y-119940850D03*
X355707050Y-122480850D03*
X340467050Y-122480850D03*
X340467050Y-119940850D03*
X340467050Y-117400850D03*
X340467050Y-114860850D03*
X340467050Y-112320850D03*
X340467050Y-109780850D03*
X340467050Y-107240850D03*
X340467050Y-104700850D03*
X340467050Y-102160850D03*
X340467050Y-99620850D03*
X340467050Y-97080850D03*
X340467050Y-94540850D03*
X353167050Y-117400850D03*
X350627050Y-117400850D03*
X348087050Y-117400850D03*
%TD*%
D22*
%TO.C,Battery*%
X57800000Y-142350000D03*
D23*
X57800000Y-140350000D03*
%TD*%
M02*
