M48
; DRILL file {KiCad 9.0.3} date 2025-07-28T21:17:25+0700
; FORMAT={-:-/ absolute / metric / decimal}
; #@! TF.CreationDate,2025-07-28T21:17:25+07:00
; #@! TF.GenerationSoftware,Kicad,Pcbnew,9.0.3
; #@! TF.FileFunction,MixedPlating,1,2
FMAT,2
METRIC
; #@! TA.AperFunction,Plated,PTH,ViaDrill
T1C0.300
; #@! TA.AperFunction,Plated,PTH,ComponentDrill
T2C0.750
; #@! TA.AperFunction,Plated,PTH,ComponentDrill
T3C0.820
; #@! TA.AperFunction,Plated,PTH,ComponentDrill
T4C1.000
; #@! TA.AperFunction,Plated,PTH,ComponentDrill
T5C1.092
; #@! TA.AperFunction,Plated,PTH,ComponentDrill
T6C1.500
; #@! TA.AperFunction,Plated,PTH,ComponentDrill
T7C3.050
; #@! TA.AperFunction,NonPlated,NPTH,ComponentDrill
T8C1.750
; #@! TA.AperFunction,NonPlated,NPTH,ComponentDrill
T9C1.900
; #@! TA.AperFunction,NonPlated,NPTH,ComponentDrill
T10C2.700
; #@! TA.AperFunction,NonPlated,NPTH,ComponentDrill
T11C3.048
; #@! TA.AperFunction,NonPlated,NPTH,ComponentDrill
T12C3.988
; #@! TA.AperFunction,NonPlated,NPTH,ComponentDrill
T13C4.000
%
G90
G05
T1
X335.1Y-94.0
T2
X57.8Y-140.35
X57.8Y-142.35
T3
X344.88Y-124.63
X344.88Y-127.17
X344.88Y-129.71
X344.88Y-132.25
X344.88Y-134.79
X344.88Y-137.33
X344.88Y-139.87
X344.88Y-142.41
X344.88Y-144.95
X344.88Y-147.49
X344.88Y-150.03
X344.88Y-152.57
X344.88Y-155.11
X344.88Y-157.65
X352.75Y-124.63
X352.75Y-127.17
X352.75Y-129.71
X352.75Y-132.25
X352.75Y-134.79
X352.75Y-137.33
X352.75Y-139.87
X352.75Y-142.41
X352.75Y-144.95
X352.75Y-147.49
X352.75Y-150.03
X352.75Y-152.57
X352.75Y-155.11
X352.75Y-157.65
T4
X55.35Y-149.85
T5
X340.467Y-94.541
X340.467Y-97.081
X340.467Y-99.621
X340.467Y-102.161
X340.467Y-104.701
X340.467Y-107.241
X340.467Y-109.781
X340.467Y-112.321
X340.467Y-114.861
X340.467Y-117.401
X340.467Y-119.941
X340.467Y-122.481
X348.087Y-117.401
X350.627Y-117.401
X353.167Y-117.401
X355.707Y-94.541
X355.707Y-97.081
X355.707Y-99.621
X355.707Y-102.161
X355.707Y-104.701
X355.707Y-107.241
X355.707Y-109.781
X355.707Y-112.321
X355.707Y-114.861
X355.707Y-117.401
X355.707Y-119.941
X355.707Y-122.481
T6
X347.23Y-93.003
X350.73Y-93.003
X350.73Y-166.503
T7
X58.788Y-99.67
X61.17Y-175.87
X63.551Y-118.72
X65.138Y-97.13
X65.932Y-137.77
X67.52Y-173.33
X69.901Y-116.18
X70.695Y-156.82
X72.282Y-135.23
X77.045Y-154.28
X77.838Y-99.67
X82.601Y-175.87
X84.188Y-97.13
X87.363Y-118.72
X88.951Y-173.33
X92.126Y-137.77
X93.713Y-116.18
X96.888Y-99.67
X98.476Y-135.23
X101.651Y-156.82
X101.651Y-175.87
X103.238Y-97.13
X106.413Y-118.72
X108.001Y-154.28
X108.001Y-173.33
X111.176Y-137.77
X112.763Y-116.18
X115.938Y-99.67
X117.526Y-135.23
X120.701Y-156.82
X122.288Y-97.13
X125.463Y-118.72
X127.051Y-154.28
X130.226Y-137.77
X131.813Y-116.18
X134.988Y-99.67
X136.576Y-135.23
X139.751Y-156.82
X141.338Y-97.13
X144.513Y-118.72
X146.101Y-154.28
X149.276Y-137.77
X150.863Y-116.18
X154.038Y-99.67
X155.626Y-135.23
X158.801Y-156.82
X160.388Y-97.13
X163.563Y-118.72
X165.151Y-154.28
X168.326Y-137.77
X169.913Y-116.18
X170.707Y-175.87
X173.088Y-99.67
X174.676Y-135.23
X177.057Y-173.33
X177.851Y-156.82
X179.438Y-97.13
X182.613Y-118.72
X184.201Y-154.28
X187.376Y-137.77
X188.963Y-116.18
X192.138Y-99.67
X193.726Y-135.23
X196.901Y-156.82
X198.488Y-97.13
X201.663Y-118.72
X203.251Y-154.28
X206.426Y-137.77
X208.013Y-116.18
X211.188Y-99.67
X212.776Y-135.23
X215.951Y-156.82
X217.538Y-97.13
X220.713Y-118.72
X222.301Y-154.28
X225.476Y-137.77
X227.063Y-116.18
X230.238Y-99.67
X231.826Y-135.23
X235.001Y-156.82
X236.588Y-97.13
X239.763Y-118.72
X241.351Y-154.28
X242.145Y-175.87
X244.526Y-137.77
X246.113Y-116.18
X248.495Y-173.33
X249.288Y-99.67
X250.876Y-135.23
X254.051Y-156.82
X255.638Y-97.13
X258.813Y-118.72
X260.401Y-154.28
X263.576Y-137.77
X265.163Y-116.18
X265.957Y-175.87
X268.338Y-99.67
X269.926Y-135.23
X272.307Y-173.33
X273.101Y-156.82
X274.688Y-97.13
X277.863Y-118.72
X279.451Y-154.28
X282.626Y-137.77
X284.213Y-116.18
X287.388Y-99.67
X287.388Y-175.87
X288.976Y-135.23
X293.738Y-97.13
X293.738Y-173.33
X296.913Y-118.72
X299.295Y-156.82
X303.263Y-116.18
X305.645Y-154.28
X306.438Y-175.87
X312.788Y-173.33
X313.582Y-137.77
X315.963Y-99.67
X319.932Y-135.23
X320.726Y-118.72
X322.313Y-97.13
X325.488Y-156.82
X325.488Y-175.87
X327.076Y-116.18
X331.838Y-154.28
X331.838Y-173.33
X344.538Y-175.87
X350.888Y-173.33
T8
X57.518Y-102.21
X59.9Y-178.41
X62.281Y-121.26
X64.662Y-140.31
X67.678Y-102.21
X69.425Y-159.36
X70.06Y-178.41
X72.441Y-121.26
X74.822Y-140.31
X76.568Y-102.21
X79.585Y-159.36
X81.331Y-178.41
X86.093Y-121.26
X86.728Y-102.21
X90.856Y-140.31
X91.491Y-178.41
X95.618Y-102.21
X96.253Y-121.26
X100.381Y-159.36
X100.381Y-178.41
X101.016Y-140.31
X105.143Y-121.26
X105.778Y-102.21
X109.906Y-140.31
X110.541Y-159.36
X110.541Y-178.41
X114.668Y-102.21
X115.303Y-121.26
X119.431Y-159.36
X120.066Y-140.31
X124.193Y-121.26
X124.828Y-102.21
X128.956Y-140.31
X129.591Y-159.36
X133.718Y-102.21
X134.353Y-121.26
X138.481Y-159.36
X139.116Y-140.31
X143.243Y-121.26
X143.878Y-102.21
X148.006Y-140.31
X148.641Y-159.36
X152.768Y-102.21
X153.403Y-121.26
X157.531Y-159.36
X158.166Y-140.31
X162.293Y-121.26
X162.928Y-102.21
X167.056Y-140.31
X167.691Y-159.36
X169.437Y-178.41
X171.818Y-102.21
X172.453Y-121.26
X176.581Y-159.36
X177.216Y-140.31
X179.597Y-178.41
X181.343Y-121.26
X181.978Y-102.21
X186.106Y-140.31
X186.741Y-159.36
X190.868Y-102.21
X191.503Y-121.26
X195.631Y-159.36
X196.266Y-140.31
X200.393Y-121.26
X201.028Y-102.21
X205.156Y-140.31
X205.791Y-159.36
X209.918Y-102.21
X210.553Y-121.26
X214.681Y-159.36
X215.316Y-140.31
X219.443Y-121.26
X220.078Y-102.21
X224.206Y-140.31
X224.841Y-159.36
X228.968Y-102.21
X229.603Y-121.26
X233.731Y-159.36
X234.366Y-140.31
X238.493Y-121.26
X239.128Y-102.21
X240.875Y-178.41
X243.256Y-140.31
X243.891Y-159.36
X248.018Y-102.21
X248.653Y-121.26
X251.035Y-178.41
X252.781Y-159.36
X253.416Y-140.31
X257.543Y-121.26
X258.178Y-102.21
X262.306Y-140.31
X262.941Y-159.36
X264.687Y-178.41
X267.068Y-102.21
X267.703Y-121.26
X271.831Y-159.36
X272.466Y-140.31
X274.847Y-178.41
X276.593Y-121.26
X277.228Y-102.21
X281.356Y-140.31
X281.991Y-159.36
X286.118Y-102.21
X286.118Y-178.41
X286.753Y-121.26
X291.516Y-140.31
X295.643Y-121.26
X296.278Y-102.21
X296.278Y-178.41
X298.025Y-159.36
X305.168Y-178.41
X305.803Y-121.26
X308.185Y-159.36
X312.312Y-140.31
X314.693Y-102.21
X315.328Y-178.41
X319.456Y-121.26
X322.472Y-140.31
X324.218Y-159.36
X324.218Y-178.41
X324.853Y-102.21
X329.616Y-121.26
X334.378Y-159.36
X334.378Y-178.41
X343.268Y-178.41
X353.428Y-178.41
T9
X344.73Y-97.153
X344.73Y-162.353
X353.23Y-98.353
X353.23Y-161.153
T10
X55.361Y-121.26
X55.455Y-159.36
X146.517Y-178.41
X202.517Y-178.41
X312.536Y-119.26
X317.605Y-159.36
T11
X62.567Y-152.375
X86.443Y-152.375
X124.517Y-171.425
X224.517Y-171.425
X305.454Y-133.325
X307.835Y-95.225
X329.33Y-133.325
X331.711Y-95.225
T12
X62.567Y-167.585
X86.443Y-167.585
X124.517Y-186.635
X224.517Y-186.635
X305.454Y-148.535
X307.835Y-110.435
X329.33Y-148.535
X331.711Y-110.435
T13
X62.598Y-102.21
X64.98Y-178.41
X67.361Y-121.26
X69.742Y-140.31
X74.505Y-159.36
X81.648Y-102.21
X86.411Y-178.41
X91.173Y-121.26
X95.936Y-140.31
X100.698Y-102.21
X105.461Y-159.36
X105.461Y-178.41
X110.223Y-121.26
X114.986Y-140.31
X119.748Y-102.21
X124.511Y-159.36
X129.273Y-121.26
X134.036Y-140.31
X138.798Y-102.21
X143.561Y-159.36
X148.323Y-121.26
X153.086Y-140.31
X157.848Y-102.21
X162.611Y-159.36
X167.373Y-121.26
X172.136Y-140.31
X174.517Y-178.41
X176.898Y-102.21
X181.661Y-159.36
X186.423Y-121.26
X191.186Y-140.31
X195.948Y-102.21
X200.711Y-159.36
X205.473Y-121.26
X210.236Y-140.31
X214.998Y-102.21
X219.761Y-159.36
X224.523Y-121.26
X229.286Y-140.31
X234.048Y-102.21
X238.811Y-159.36
X243.573Y-121.26
X245.955Y-178.41
X248.336Y-140.31
X253.098Y-102.21
X257.861Y-159.36
X262.623Y-121.26
X267.386Y-140.31
X269.767Y-178.41
X272.148Y-102.21
X276.911Y-159.36
X281.673Y-121.26
X286.436Y-140.31
X291.198Y-102.21
X291.198Y-178.41
X300.723Y-121.26
X303.105Y-159.36
X310.248Y-178.41
X317.392Y-140.31
X319.773Y-102.21
X324.536Y-121.26
X329.298Y-159.36
X329.298Y-178.41
X348.348Y-178.41
M30
