%TF.GenerationSoftware,KiCad,Pcbnew,9.0.3*%
%TF.CreationDate,2025-07-28T21:16:55+07:00*%
%TF.ProjectId,DIY Bluetooth Mechanical Keyboard,44495920-426c-4756-9574-6f6f7468204d,rev?*%
%TF.SameCoordinates,Original*%
%TF.FileFunction,Legend,Bot*%
%TF.FilePolarity,Positive*%
%FSLAX46Y46*%
G04 Gerber Fmt 4.6, Leading zero omitted, Abs format (unit mm)*
G04 Created by KiCad (PCBNEW 9.0.3) date 2025-07-28 21:16:55*
%MOMM*%
%LPD*%
G01*
G04 APERTURE LIST*
%ADD10C,0.200000*%
%ADD11C,0.150000*%
%ADD12C,0.120000*%
%ADD13C,0.127000*%
G04 APERTURE END LIST*
D10*
X356306517Y-124199838D02*
X356401755Y-124152219D01*
X356401755Y-124152219D02*
X356544612Y-124152219D01*
X356544612Y-124152219D02*
X356687469Y-124199838D01*
X356687469Y-124199838D02*
X356782707Y-124295076D01*
X356782707Y-124295076D02*
X356830326Y-124390314D01*
X356830326Y-124390314D02*
X356877945Y-124580790D01*
X356877945Y-124580790D02*
X356877945Y-124723647D01*
X356877945Y-124723647D02*
X356830326Y-124914123D01*
X356830326Y-124914123D02*
X356782707Y-125009361D01*
X356782707Y-125009361D02*
X356687469Y-125104600D01*
X356687469Y-125104600D02*
X356544612Y-125152219D01*
X356544612Y-125152219D02*
X356449374Y-125152219D01*
X356449374Y-125152219D02*
X356306517Y-125104600D01*
X356306517Y-125104600D02*
X356258898Y-125056980D01*
X356258898Y-125056980D02*
X356258898Y-124723647D01*
X356258898Y-124723647D02*
X356449374Y-124723647D01*
X355830326Y-125152219D02*
X355830326Y-124152219D01*
X355830326Y-124152219D02*
X355258898Y-125152219D01*
X355258898Y-125152219D02*
X355258898Y-124152219D01*
X354782707Y-125152219D02*
X354782707Y-124152219D01*
X354782707Y-124152219D02*
X354544612Y-124152219D01*
X354544612Y-124152219D02*
X354401755Y-124199838D01*
X354401755Y-124199838D02*
X354306517Y-124295076D01*
X354306517Y-124295076D02*
X354258898Y-124390314D01*
X354258898Y-124390314D02*
X354211279Y-124580790D01*
X354211279Y-124580790D02*
X354211279Y-124723647D01*
X354211279Y-124723647D02*
X354258898Y-124914123D01*
X354258898Y-124914123D02*
X354306517Y-125009361D01*
X354306517Y-125009361D02*
X354401755Y-125104600D01*
X354401755Y-125104600D02*
X354544612Y-125152219D01*
X354544612Y-125152219D02*
X354782707Y-125152219D01*
X343056517Y-134299838D02*
X343151755Y-134252219D01*
X343151755Y-134252219D02*
X343294612Y-134252219D01*
X343294612Y-134252219D02*
X343437469Y-134299838D01*
X343437469Y-134299838D02*
X343532707Y-134395076D01*
X343532707Y-134395076D02*
X343580326Y-134490314D01*
X343580326Y-134490314D02*
X343627945Y-134680790D01*
X343627945Y-134680790D02*
X343627945Y-134823647D01*
X343627945Y-134823647D02*
X343580326Y-135014123D01*
X343580326Y-135014123D02*
X343532707Y-135109361D01*
X343532707Y-135109361D02*
X343437469Y-135204600D01*
X343437469Y-135204600D02*
X343294612Y-135252219D01*
X343294612Y-135252219D02*
X343199374Y-135252219D01*
X343199374Y-135252219D02*
X343056517Y-135204600D01*
X343056517Y-135204600D02*
X343008898Y-135156980D01*
X343008898Y-135156980D02*
X343008898Y-134823647D01*
X343008898Y-134823647D02*
X343199374Y-134823647D01*
X342580326Y-135252219D02*
X342580326Y-134252219D01*
X342580326Y-134252219D02*
X342008898Y-135252219D01*
X342008898Y-135252219D02*
X342008898Y-134252219D01*
X341532707Y-135252219D02*
X341532707Y-134252219D01*
X341532707Y-134252219D02*
X341294612Y-134252219D01*
X341294612Y-134252219D02*
X341151755Y-134299838D01*
X341151755Y-134299838D02*
X341056517Y-134395076D01*
X341056517Y-134395076D02*
X341008898Y-134490314D01*
X341008898Y-134490314D02*
X340961279Y-134680790D01*
X340961279Y-134680790D02*
X340961279Y-134823647D01*
X340961279Y-134823647D02*
X341008898Y-135014123D01*
X341008898Y-135014123D02*
X341056517Y-135109361D01*
X341056517Y-135109361D02*
X341151755Y-135204600D01*
X341151755Y-135204600D02*
X341294612Y-135252219D01*
X341294612Y-135252219D02*
X341532707Y-135252219D01*
X337106517Y-96599838D02*
X337201755Y-96552219D01*
X337201755Y-96552219D02*
X337344612Y-96552219D01*
X337344612Y-96552219D02*
X337487469Y-96599838D01*
X337487469Y-96599838D02*
X337582707Y-96695076D01*
X337582707Y-96695076D02*
X337630326Y-96790314D01*
X337630326Y-96790314D02*
X337677945Y-96980790D01*
X337677945Y-96980790D02*
X337677945Y-97123647D01*
X337677945Y-97123647D02*
X337630326Y-97314123D01*
X337630326Y-97314123D02*
X337582707Y-97409361D01*
X337582707Y-97409361D02*
X337487469Y-97504600D01*
X337487469Y-97504600D02*
X337344612Y-97552219D01*
X337344612Y-97552219D02*
X337249374Y-97552219D01*
X337249374Y-97552219D02*
X337106517Y-97504600D01*
X337106517Y-97504600D02*
X337058898Y-97456980D01*
X337058898Y-97456980D02*
X337058898Y-97123647D01*
X337058898Y-97123647D02*
X337249374Y-97123647D01*
X336630326Y-97552219D02*
X336630326Y-96552219D01*
X336630326Y-96552219D02*
X336058898Y-97552219D01*
X336058898Y-97552219D02*
X336058898Y-96552219D01*
X335582707Y-97552219D02*
X335582707Y-96552219D01*
X335582707Y-96552219D02*
X335344612Y-96552219D01*
X335344612Y-96552219D02*
X335201755Y-96599838D01*
X335201755Y-96599838D02*
X335106517Y-96695076D01*
X335106517Y-96695076D02*
X335058898Y-96790314D01*
X335058898Y-96790314D02*
X335011279Y-96980790D01*
X335011279Y-96980790D02*
X335011279Y-97123647D01*
X335011279Y-97123647D02*
X335058898Y-97314123D01*
X335058898Y-97314123D02*
X335106517Y-97409361D01*
X335106517Y-97409361D02*
X335201755Y-97504600D01*
X335201755Y-97504600D02*
X335344612Y-97552219D01*
X335344612Y-97552219D02*
X335582707Y-97552219D01*
X337108898Y-100052219D02*
X337442231Y-99576028D01*
X337680326Y-100052219D02*
X337680326Y-99052219D01*
X337680326Y-99052219D02*
X337299374Y-99052219D01*
X337299374Y-99052219D02*
X337204136Y-99099838D01*
X337204136Y-99099838D02*
X337156517Y-99147457D01*
X337156517Y-99147457D02*
X337108898Y-99242695D01*
X337108898Y-99242695D02*
X337108898Y-99385552D01*
X337108898Y-99385552D02*
X337156517Y-99480790D01*
X337156517Y-99480790D02*
X337204136Y-99528409D01*
X337204136Y-99528409D02*
X337299374Y-99576028D01*
X337299374Y-99576028D02*
X337680326Y-99576028D01*
X336727945Y-100004600D02*
X336585088Y-100052219D01*
X336585088Y-100052219D02*
X336346993Y-100052219D01*
X336346993Y-100052219D02*
X336251755Y-100004600D01*
X336251755Y-100004600D02*
X336204136Y-99956980D01*
X336204136Y-99956980D02*
X336156517Y-99861742D01*
X336156517Y-99861742D02*
X336156517Y-99766504D01*
X336156517Y-99766504D02*
X336204136Y-99671266D01*
X336204136Y-99671266D02*
X336251755Y-99623647D01*
X336251755Y-99623647D02*
X336346993Y-99576028D01*
X336346993Y-99576028D02*
X336537469Y-99528409D01*
X336537469Y-99528409D02*
X336632707Y-99480790D01*
X336632707Y-99480790D02*
X336680326Y-99433171D01*
X336680326Y-99433171D02*
X336727945Y-99337933D01*
X336727945Y-99337933D02*
X336727945Y-99242695D01*
X336727945Y-99242695D02*
X336680326Y-99147457D01*
X336680326Y-99147457D02*
X336632707Y-99099838D01*
X336632707Y-99099838D02*
X336537469Y-99052219D01*
X336537469Y-99052219D02*
X336299374Y-99052219D01*
X336299374Y-99052219D02*
X336156517Y-99099838D01*
X335870802Y-99052219D02*
X335299374Y-99052219D01*
X335585088Y-100052219D02*
X335585088Y-99052219D01*
X343627945Y-130104600D02*
X343485088Y-130152219D01*
X343485088Y-130152219D02*
X343246993Y-130152219D01*
X343246993Y-130152219D02*
X343151755Y-130104600D01*
X343151755Y-130104600D02*
X343104136Y-130056980D01*
X343104136Y-130056980D02*
X343056517Y-129961742D01*
X343056517Y-129961742D02*
X343056517Y-129866504D01*
X343056517Y-129866504D02*
X343104136Y-129771266D01*
X343104136Y-129771266D02*
X343151755Y-129723647D01*
X343151755Y-129723647D02*
X343246993Y-129676028D01*
X343246993Y-129676028D02*
X343437469Y-129628409D01*
X343437469Y-129628409D02*
X343532707Y-129580790D01*
X343532707Y-129580790D02*
X343580326Y-129533171D01*
X343580326Y-129533171D02*
X343627945Y-129437933D01*
X343627945Y-129437933D02*
X343627945Y-129342695D01*
X343627945Y-129342695D02*
X343580326Y-129247457D01*
X343580326Y-129247457D02*
X343532707Y-129199838D01*
X343532707Y-129199838D02*
X343437469Y-129152219D01*
X343437469Y-129152219D02*
X343199374Y-129152219D01*
X343199374Y-129152219D02*
X343056517Y-129199838D01*
X342056517Y-130056980D02*
X342104136Y-130104600D01*
X342104136Y-130104600D02*
X342246993Y-130152219D01*
X342246993Y-130152219D02*
X342342231Y-130152219D01*
X342342231Y-130152219D02*
X342485088Y-130104600D01*
X342485088Y-130104600D02*
X342580326Y-130009361D01*
X342580326Y-130009361D02*
X342627945Y-129914123D01*
X342627945Y-129914123D02*
X342675564Y-129723647D01*
X342675564Y-129723647D02*
X342675564Y-129580790D01*
X342675564Y-129580790D02*
X342627945Y-129390314D01*
X342627945Y-129390314D02*
X342580326Y-129295076D01*
X342580326Y-129295076D02*
X342485088Y-129199838D01*
X342485088Y-129199838D02*
X342342231Y-129152219D01*
X342342231Y-129152219D02*
X342246993Y-129152219D01*
X342246993Y-129152219D02*
X342104136Y-129199838D01*
X342104136Y-129199838D02*
X342056517Y-129247457D01*
X341627945Y-130152219D02*
X341627945Y-129152219D01*
X341056517Y-130152219D02*
X341485088Y-129580790D01*
X341056517Y-129152219D02*
X341627945Y-129723647D01*
X343627945Y-127704600D02*
X343485088Y-127752219D01*
X343485088Y-127752219D02*
X343246993Y-127752219D01*
X343246993Y-127752219D02*
X343151755Y-127704600D01*
X343151755Y-127704600D02*
X343104136Y-127656980D01*
X343104136Y-127656980D02*
X343056517Y-127561742D01*
X343056517Y-127561742D02*
X343056517Y-127466504D01*
X343056517Y-127466504D02*
X343104136Y-127371266D01*
X343104136Y-127371266D02*
X343151755Y-127323647D01*
X343151755Y-127323647D02*
X343246993Y-127276028D01*
X343246993Y-127276028D02*
X343437469Y-127228409D01*
X343437469Y-127228409D02*
X343532707Y-127180790D01*
X343532707Y-127180790D02*
X343580326Y-127133171D01*
X343580326Y-127133171D02*
X343627945Y-127037933D01*
X343627945Y-127037933D02*
X343627945Y-126942695D01*
X343627945Y-126942695D02*
X343580326Y-126847457D01*
X343580326Y-126847457D02*
X343532707Y-126799838D01*
X343532707Y-126799838D02*
X343437469Y-126752219D01*
X343437469Y-126752219D02*
X343199374Y-126752219D01*
X343199374Y-126752219D02*
X343056517Y-126799838D01*
X342627945Y-127752219D02*
X342627945Y-126752219D01*
X342627945Y-126752219D02*
X342389850Y-126752219D01*
X342389850Y-126752219D02*
X342246993Y-126799838D01*
X342246993Y-126799838D02*
X342151755Y-126895076D01*
X342151755Y-126895076D02*
X342104136Y-126990314D01*
X342104136Y-126990314D02*
X342056517Y-127180790D01*
X342056517Y-127180790D02*
X342056517Y-127323647D01*
X342056517Y-127323647D02*
X342104136Y-127514123D01*
X342104136Y-127514123D02*
X342151755Y-127609361D01*
X342151755Y-127609361D02*
X342246993Y-127704600D01*
X342246993Y-127704600D02*
X342389850Y-127752219D01*
X342389850Y-127752219D02*
X342627945Y-127752219D01*
X341675564Y-127466504D02*
X341199374Y-127466504D01*
X341770802Y-127752219D02*
X341437469Y-126752219D01*
X341437469Y-126752219D02*
X341104136Y-127752219D01*
X356306517Y-129299838D02*
X356401755Y-129252219D01*
X356401755Y-129252219D02*
X356544612Y-129252219D01*
X356544612Y-129252219D02*
X356687469Y-129299838D01*
X356687469Y-129299838D02*
X356782707Y-129395076D01*
X356782707Y-129395076D02*
X356830326Y-129490314D01*
X356830326Y-129490314D02*
X356877945Y-129680790D01*
X356877945Y-129680790D02*
X356877945Y-129823647D01*
X356877945Y-129823647D02*
X356830326Y-130014123D01*
X356830326Y-130014123D02*
X356782707Y-130109361D01*
X356782707Y-130109361D02*
X356687469Y-130204600D01*
X356687469Y-130204600D02*
X356544612Y-130252219D01*
X356544612Y-130252219D02*
X356449374Y-130252219D01*
X356449374Y-130252219D02*
X356306517Y-130204600D01*
X356306517Y-130204600D02*
X356258898Y-130156980D01*
X356258898Y-130156980D02*
X356258898Y-129823647D01*
X356258898Y-129823647D02*
X356449374Y-129823647D01*
X355830326Y-130252219D02*
X355830326Y-129252219D01*
X355830326Y-129252219D02*
X355258898Y-130252219D01*
X355258898Y-130252219D02*
X355258898Y-129252219D01*
X354782707Y-130252219D02*
X354782707Y-129252219D01*
X354782707Y-129252219D02*
X354544612Y-129252219D01*
X354544612Y-129252219D02*
X354401755Y-129299838D01*
X354401755Y-129299838D02*
X354306517Y-129395076D01*
X354306517Y-129395076D02*
X354258898Y-129490314D01*
X354258898Y-129490314D02*
X354211279Y-129680790D01*
X354211279Y-129680790D02*
X354211279Y-129823647D01*
X354211279Y-129823647D02*
X354258898Y-130014123D01*
X354258898Y-130014123D02*
X354306517Y-130109361D01*
X354306517Y-130109361D02*
X354401755Y-130204600D01*
X354401755Y-130204600D02*
X354544612Y-130252219D01*
X354544612Y-130252219D02*
X354782707Y-130252219D01*
X356306517Y-126799838D02*
X356401755Y-126752219D01*
X356401755Y-126752219D02*
X356544612Y-126752219D01*
X356544612Y-126752219D02*
X356687469Y-126799838D01*
X356687469Y-126799838D02*
X356782707Y-126895076D01*
X356782707Y-126895076D02*
X356830326Y-126990314D01*
X356830326Y-126990314D02*
X356877945Y-127180790D01*
X356877945Y-127180790D02*
X356877945Y-127323647D01*
X356877945Y-127323647D02*
X356830326Y-127514123D01*
X356830326Y-127514123D02*
X356782707Y-127609361D01*
X356782707Y-127609361D02*
X356687469Y-127704600D01*
X356687469Y-127704600D02*
X356544612Y-127752219D01*
X356544612Y-127752219D02*
X356449374Y-127752219D01*
X356449374Y-127752219D02*
X356306517Y-127704600D01*
X356306517Y-127704600D02*
X356258898Y-127656980D01*
X356258898Y-127656980D02*
X356258898Y-127323647D01*
X356258898Y-127323647D02*
X356449374Y-127323647D01*
X355830326Y-127752219D02*
X355830326Y-126752219D01*
X355830326Y-126752219D02*
X355258898Y-127752219D01*
X355258898Y-127752219D02*
X355258898Y-126752219D01*
X354782707Y-127752219D02*
X354782707Y-126752219D01*
X354782707Y-126752219D02*
X354544612Y-126752219D01*
X354544612Y-126752219D02*
X354401755Y-126799838D01*
X354401755Y-126799838D02*
X354306517Y-126895076D01*
X354306517Y-126895076D02*
X354258898Y-126990314D01*
X354258898Y-126990314D02*
X354211279Y-127180790D01*
X354211279Y-127180790D02*
X354211279Y-127323647D01*
X354211279Y-127323647D02*
X354258898Y-127514123D01*
X354258898Y-127514123D02*
X354306517Y-127609361D01*
X354306517Y-127609361D02*
X354401755Y-127704600D01*
X354401755Y-127704600D02*
X354544612Y-127752219D01*
X354544612Y-127752219D02*
X354782707Y-127752219D01*
X343675564Y-136752219D02*
X343056517Y-136752219D01*
X343056517Y-136752219D02*
X343389850Y-137133171D01*
X343389850Y-137133171D02*
X343246993Y-137133171D01*
X343246993Y-137133171D02*
X343151755Y-137180790D01*
X343151755Y-137180790D02*
X343104136Y-137228409D01*
X343104136Y-137228409D02*
X343056517Y-137323647D01*
X343056517Y-137323647D02*
X343056517Y-137561742D01*
X343056517Y-137561742D02*
X343104136Y-137656980D01*
X343104136Y-137656980D02*
X343151755Y-137704600D01*
X343151755Y-137704600D02*
X343246993Y-137752219D01*
X343246993Y-137752219D02*
X343532707Y-137752219D01*
X343532707Y-137752219D02*
X343627945Y-137704600D01*
X343627945Y-137704600D02*
X343675564Y-137656980D01*
X342770802Y-136752219D02*
X342437469Y-137752219D01*
X342437469Y-137752219D02*
X342104136Y-136752219D01*
X341866040Y-136752219D02*
X341246993Y-136752219D01*
X341246993Y-136752219D02*
X341580326Y-137133171D01*
X341580326Y-137133171D02*
X341437469Y-137133171D01*
X341437469Y-137133171D02*
X341342231Y-137180790D01*
X341342231Y-137180790D02*
X341294612Y-137228409D01*
X341294612Y-137228409D02*
X341246993Y-137323647D01*
X341246993Y-137323647D02*
X341246993Y-137561742D01*
X341246993Y-137561742D02*
X341294612Y-137656980D01*
X341294612Y-137656980D02*
X341342231Y-137704600D01*
X341342231Y-137704600D02*
X341437469Y-137752219D01*
X341437469Y-137752219D02*
X341723183Y-137752219D01*
X341723183Y-137752219D02*
X341818421Y-137704600D01*
X341818421Y-137704600D02*
X341866040Y-137656980D01*
D11*
X298365710Y-170530044D02*
X298365710Y-169530044D01*
X298365710Y-169530044D02*
X298127615Y-169530044D01*
X298127615Y-169530044D02*
X297984758Y-169577663D01*
X297984758Y-169577663D02*
X297889520Y-169672901D01*
X297889520Y-169672901D02*
X297841901Y-169768139D01*
X297841901Y-169768139D02*
X297794282Y-169958615D01*
X297794282Y-169958615D02*
X297794282Y-170101472D01*
X297794282Y-170101472D02*
X297841901Y-170291948D01*
X297841901Y-170291948D02*
X297889520Y-170387186D01*
X297889520Y-170387186D02*
X297984758Y-170482425D01*
X297984758Y-170482425D02*
X298127615Y-170530044D01*
X298127615Y-170530044D02*
X298365710Y-170530044D01*
X296889520Y-169530044D02*
X297365710Y-169530044D01*
X297365710Y-169530044D02*
X297413329Y-170006234D01*
X297413329Y-170006234D02*
X297365710Y-169958615D01*
X297365710Y-169958615D02*
X297270472Y-169910996D01*
X297270472Y-169910996D02*
X297032377Y-169910996D01*
X297032377Y-169910996D02*
X296937139Y-169958615D01*
X296937139Y-169958615D02*
X296889520Y-170006234D01*
X296889520Y-170006234D02*
X296841901Y-170101472D01*
X296841901Y-170101472D02*
X296841901Y-170339567D01*
X296841901Y-170339567D02*
X296889520Y-170434805D01*
X296889520Y-170434805D02*
X296937139Y-170482425D01*
X296937139Y-170482425D02*
X297032377Y-170530044D01*
X297032377Y-170530044D02*
X297270472Y-170530044D01*
X297270472Y-170530044D02*
X297365710Y-170482425D01*
X297365710Y-170482425D02*
X297413329Y-170434805D01*
X296508567Y-169530044D02*
X295841901Y-169530044D01*
X295841901Y-169530044D02*
X296270472Y-170530044D01*
X336465710Y-151314419D02*
X336465710Y-150314419D01*
X336465710Y-150314419D02*
X336227615Y-150314419D01*
X336227615Y-150314419D02*
X336084758Y-150362038D01*
X336084758Y-150362038D02*
X335989520Y-150457276D01*
X335989520Y-150457276D02*
X335941901Y-150552514D01*
X335941901Y-150552514D02*
X335894282Y-150742990D01*
X335894282Y-150742990D02*
X335894282Y-150885847D01*
X335894282Y-150885847D02*
X335941901Y-151076323D01*
X335941901Y-151076323D02*
X335989520Y-151171561D01*
X335989520Y-151171561D02*
X336084758Y-151266800D01*
X336084758Y-151266800D02*
X336227615Y-151314419D01*
X336227615Y-151314419D02*
X336465710Y-151314419D01*
X335037139Y-150314419D02*
X335227615Y-150314419D01*
X335227615Y-150314419D02*
X335322853Y-150362038D01*
X335322853Y-150362038D02*
X335370472Y-150409657D01*
X335370472Y-150409657D02*
X335465710Y-150552514D01*
X335465710Y-150552514D02*
X335513329Y-150742990D01*
X335513329Y-150742990D02*
X335513329Y-151123942D01*
X335513329Y-151123942D02*
X335465710Y-151219180D01*
X335465710Y-151219180D02*
X335418091Y-151266800D01*
X335418091Y-151266800D02*
X335322853Y-151314419D01*
X335322853Y-151314419D02*
X335132377Y-151314419D01*
X335132377Y-151314419D02*
X335037139Y-151266800D01*
X335037139Y-151266800D02*
X334989520Y-151219180D01*
X334989520Y-151219180D02*
X334941901Y-151123942D01*
X334941901Y-151123942D02*
X334941901Y-150885847D01*
X334941901Y-150885847D02*
X334989520Y-150790609D01*
X334989520Y-150790609D02*
X335037139Y-150742990D01*
X335037139Y-150742990D02*
X335132377Y-150695371D01*
X335132377Y-150695371D02*
X335322853Y-150695371D01*
X335322853Y-150695371D02*
X335418091Y-150742990D01*
X335418091Y-150742990D02*
X335465710Y-150790609D01*
X335465710Y-150790609D02*
X335513329Y-150885847D01*
X334560948Y-150409657D02*
X334513329Y-150362038D01*
X334513329Y-150362038D02*
X334418091Y-150314419D01*
X334418091Y-150314419D02*
X334179996Y-150314419D01*
X334179996Y-150314419D02*
X334084758Y-150362038D01*
X334084758Y-150362038D02*
X334037139Y-150409657D01*
X334037139Y-150409657D02*
X333989520Y-150504895D01*
X333989520Y-150504895D02*
X333989520Y-150600133D01*
X333989520Y-150600133D02*
X334037139Y-150742990D01*
X334037139Y-150742990D02*
X334608567Y-151314419D01*
X334608567Y-151314419D02*
X333989520Y-151314419D01*
X324559460Y-132264419D02*
X324559460Y-131264419D01*
X324559460Y-131264419D02*
X324321365Y-131264419D01*
X324321365Y-131264419D02*
X324178508Y-131312038D01*
X324178508Y-131312038D02*
X324083270Y-131407276D01*
X324083270Y-131407276D02*
X324035651Y-131502514D01*
X324035651Y-131502514D02*
X323988032Y-131692990D01*
X323988032Y-131692990D02*
X323988032Y-131835847D01*
X323988032Y-131835847D02*
X324035651Y-132026323D01*
X324035651Y-132026323D02*
X324083270Y-132121561D01*
X324083270Y-132121561D02*
X324178508Y-132216800D01*
X324178508Y-132216800D02*
X324321365Y-132264419D01*
X324321365Y-132264419D02*
X324559460Y-132264419D01*
X323130889Y-131264419D02*
X323321365Y-131264419D01*
X323321365Y-131264419D02*
X323416603Y-131312038D01*
X323416603Y-131312038D02*
X323464222Y-131359657D01*
X323464222Y-131359657D02*
X323559460Y-131502514D01*
X323559460Y-131502514D02*
X323607079Y-131692990D01*
X323607079Y-131692990D02*
X323607079Y-132073942D01*
X323607079Y-132073942D02*
X323559460Y-132169180D01*
X323559460Y-132169180D02*
X323511841Y-132216800D01*
X323511841Y-132216800D02*
X323416603Y-132264419D01*
X323416603Y-132264419D02*
X323226127Y-132264419D01*
X323226127Y-132264419D02*
X323130889Y-132216800D01*
X323130889Y-132216800D02*
X323083270Y-132169180D01*
X323083270Y-132169180D02*
X323035651Y-132073942D01*
X323035651Y-132073942D02*
X323035651Y-131835847D01*
X323035651Y-131835847D02*
X323083270Y-131740609D01*
X323083270Y-131740609D02*
X323130889Y-131692990D01*
X323130889Y-131692990D02*
X323226127Y-131645371D01*
X323226127Y-131645371D02*
X323416603Y-131645371D01*
X323416603Y-131645371D02*
X323511841Y-131692990D01*
X323511841Y-131692990D02*
X323559460Y-131740609D01*
X323559460Y-131740609D02*
X323607079Y-131835847D01*
X322416603Y-131264419D02*
X322321365Y-131264419D01*
X322321365Y-131264419D02*
X322226127Y-131312038D01*
X322226127Y-131312038D02*
X322178508Y-131359657D01*
X322178508Y-131359657D02*
X322130889Y-131454895D01*
X322130889Y-131454895D02*
X322083270Y-131645371D01*
X322083270Y-131645371D02*
X322083270Y-131883466D01*
X322083270Y-131883466D02*
X322130889Y-132073942D01*
X322130889Y-132073942D02*
X322178508Y-132169180D01*
X322178508Y-132169180D02*
X322226127Y-132216800D01*
X322226127Y-132216800D02*
X322321365Y-132264419D01*
X322321365Y-132264419D02*
X322416603Y-132264419D01*
X322416603Y-132264419D02*
X322511841Y-132216800D01*
X322511841Y-132216800D02*
X322559460Y-132169180D01*
X322559460Y-132169180D02*
X322607079Y-132073942D01*
X322607079Y-132073942D02*
X322654698Y-131883466D01*
X322654698Y-131883466D02*
X322654698Y-131645371D01*
X322654698Y-131645371D02*
X322607079Y-131454895D01*
X322607079Y-131454895D02*
X322559460Y-131359657D01*
X322559460Y-131359657D02*
X322511841Y-131312038D01*
X322511841Y-131312038D02*
X322416603Y-131264419D01*
X207878210Y-151480044D02*
X207878210Y-150480044D01*
X207878210Y-150480044D02*
X207640115Y-150480044D01*
X207640115Y-150480044D02*
X207497258Y-150527663D01*
X207497258Y-150527663D02*
X207402020Y-150622901D01*
X207402020Y-150622901D02*
X207354401Y-150718139D01*
X207354401Y-150718139D02*
X207306782Y-150908615D01*
X207306782Y-150908615D02*
X207306782Y-151051472D01*
X207306782Y-151051472D02*
X207354401Y-151241948D01*
X207354401Y-151241948D02*
X207402020Y-151337186D01*
X207402020Y-151337186D02*
X207497258Y-151432425D01*
X207497258Y-151432425D02*
X207640115Y-151480044D01*
X207640115Y-151480044D02*
X207878210Y-151480044D01*
X206973448Y-150480044D02*
X206354401Y-150480044D01*
X206354401Y-150480044D02*
X206687734Y-150860996D01*
X206687734Y-150860996D02*
X206544877Y-150860996D01*
X206544877Y-150860996D02*
X206449639Y-150908615D01*
X206449639Y-150908615D02*
X206402020Y-150956234D01*
X206402020Y-150956234D02*
X206354401Y-151051472D01*
X206354401Y-151051472D02*
X206354401Y-151289567D01*
X206354401Y-151289567D02*
X206402020Y-151384805D01*
X206402020Y-151384805D02*
X206449639Y-151432425D01*
X206449639Y-151432425D02*
X206544877Y-151480044D01*
X206544877Y-151480044D02*
X206830591Y-151480044D01*
X206830591Y-151480044D02*
X206925829Y-151432425D01*
X206925829Y-151432425D02*
X206973448Y-151384805D01*
X206021067Y-150480044D02*
X205402020Y-150480044D01*
X205402020Y-150480044D02*
X205735353Y-150860996D01*
X205735353Y-150860996D02*
X205592496Y-150860996D01*
X205592496Y-150860996D02*
X205497258Y-150908615D01*
X205497258Y-150908615D02*
X205449639Y-150956234D01*
X205449639Y-150956234D02*
X205402020Y-151051472D01*
X205402020Y-151051472D02*
X205402020Y-151289567D01*
X205402020Y-151289567D02*
X205449639Y-151384805D01*
X205449639Y-151384805D02*
X205497258Y-151432425D01*
X205497258Y-151432425D02*
X205592496Y-151480044D01*
X205592496Y-151480044D02*
X205878210Y-151480044D01*
X205878210Y-151480044D02*
X205973448Y-151432425D01*
X205973448Y-151432425D02*
X206021067Y-151384805D01*
X74052019Y-113380044D02*
X74052019Y-112380044D01*
X74052019Y-112380044D02*
X73813924Y-112380044D01*
X73813924Y-112380044D02*
X73671067Y-112427663D01*
X73671067Y-112427663D02*
X73575829Y-112522901D01*
X73575829Y-112522901D02*
X73528210Y-112618139D01*
X73528210Y-112618139D02*
X73480591Y-112808615D01*
X73480591Y-112808615D02*
X73480591Y-112951472D01*
X73480591Y-112951472D02*
X73528210Y-113141948D01*
X73528210Y-113141948D02*
X73575829Y-113237186D01*
X73575829Y-113237186D02*
X73671067Y-113332425D01*
X73671067Y-113332425D02*
X73813924Y-113380044D01*
X73813924Y-113380044D02*
X74052019Y-113380044D01*
X73099638Y-112475282D02*
X73052019Y-112427663D01*
X73052019Y-112427663D02*
X72956781Y-112380044D01*
X72956781Y-112380044D02*
X72718686Y-112380044D01*
X72718686Y-112380044D02*
X72623448Y-112427663D01*
X72623448Y-112427663D02*
X72575829Y-112475282D01*
X72575829Y-112475282D02*
X72528210Y-112570520D01*
X72528210Y-112570520D02*
X72528210Y-112665758D01*
X72528210Y-112665758D02*
X72575829Y-112808615D01*
X72575829Y-112808615D02*
X73147257Y-113380044D01*
X73147257Y-113380044D02*
X72528210Y-113380044D01*
X260265710Y-94164419D02*
X260265710Y-93164419D01*
X260265710Y-93164419D02*
X260027615Y-93164419D01*
X260027615Y-93164419D02*
X259884758Y-93212038D01*
X259884758Y-93212038D02*
X259789520Y-93307276D01*
X259789520Y-93307276D02*
X259741901Y-93402514D01*
X259741901Y-93402514D02*
X259694282Y-93592990D01*
X259694282Y-93592990D02*
X259694282Y-93735847D01*
X259694282Y-93735847D02*
X259741901Y-93926323D01*
X259741901Y-93926323D02*
X259789520Y-94021561D01*
X259789520Y-94021561D02*
X259884758Y-94116800D01*
X259884758Y-94116800D02*
X260027615Y-94164419D01*
X260027615Y-94164419D02*
X260265710Y-94164419D01*
X258837139Y-93497752D02*
X258837139Y-94164419D01*
X259075234Y-93116800D02*
X259313329Y-93831085D01*
X259313329Y-93831085D02*
X258694282Y-93831085D01*
X258408567Y-93164419D02*
X257789520Y-93164419D01*
X257789520Y-93164419D02*
X258122853Y-93545371D01*
X258122853Y-93545371D02*
X257979996Y-93545371D01*
X257979996Y-93545371D02*
X257884758Y-93592990D01*
X257884758Y-93592990D02*
X257837139Y-93640609D01*
X257837139Y-93640609D02*
X257789520Y-93735847D01*
X257789520Y-93735847D02*
X257789520Y-93973942D01*
X257789520Y-93973942D02*
X257837139Y-94069180D01*
X257837139Y-94069180D02*
X257884758Y-94116800D01*
X257884758Y-94116800D02*
X257979996Y-94164419D01*
X257979996Y-94164419D02*
X258265710Y-94164419D01*
X258265710Y-94164419D02*
X258360948Y-94116800D01*
X258360948Y-94116800D02*
X258408567Y-94069180D01*
X336465710Y-170364419D02*
X336465710Y-169364419D01*
X336465710Y-169364419D02*
X336227615Y-169364419D01*
X336227615Y-169364419D02*
X336084758Y-169412038D01*
X336084758Y-169412038D02*
X335989520Y-169507276D01*
X335989520Y-169507276D02*
X335941901Y-169602514D01*
X335941901Y-169602514D02*
X335894282Y-169792990D01*
X335894282Y-169792990D02*
X335894282Y-169935847D01*
X335894282Y-169935847D02*
X335941901Y-170126323D01*
X335941901Y-170126323D02*
X335989520Y-170221561D01*
X335989520Y-170221561D02*
X336084758Y-170316800D01*
X336084758Y-170316800D02*
X336227615Y-170364419D01*
X336227615Y-170364419D02*
X336465710Y-170364419D01*
X335037139Y-169364419D02*
X335227615Y-169364419D01*
X335227615Y-169364419D02*
X335322853Y-169412038D01*
X335322853Y-169412038D02*
X335370472Y-169459657D01*
X335370472Y-169459657D02*
X335465710Y-169602514D01*
X335465710Y-169602514D02*
X335513329Y-169792990D01*
X335513329Y-169792990D02*
X335513329Y-170173942D01*
X335513329Y-170173942D02*
X335465710Y-170269180D01*
X335465710Y-170269180D02*
X335418091Y-170316800D01*
X335418091Y-170316800D02*
X335322853Y-170364419D01*
X335322853Y-170364419D02*
X335132377Y-170364419D01*
X335132377Y-170364419D02*
X335037139Y-170316800D01*
X335037139Y-170316800D02*
X334989520Y-170269180D01*
X334989520Y-170269180D02*
X334941901Y-170173942D01*
X334941901Y-170173942D02*
X334941901Y-169935847D01*
X334941901Y-169935847D02*
X334989520Y-169840609D01*
X334989520Y-169840609D02*
X335037139Y-169792990D01*
X335037139Y-169792990D02*
X335132377Y-169745371D01*
X335132377Y-169745371D02*
X335322853Y-169745371D01*
X335322853Y-169745371D02*
X335418091Y-169792990D01*
X335418091Y-169792990D02*
X335465710Y-169840609D01*
X335465710Y-169840609D02*
X335513329Y-169935847D01*
X334608567Y-169364419D02*
X333989520Y-169364419D01*
X333989520Y-169364419D02*
X334322853Y-169745371D01*
X334322853Y-169745371D02*
X334179996Y-169745371D01*
X334179996Y-169745371D02*
X334084758Y-169792990D01*
X334084758Y-169792990D02*
X334037139Y-169840609D01*
X334037139Y-169840609D02*
X333989520Y-169935847D01*
X333989520Y-169935847D02*
X333989520Y-170173942D01*
X333989520Y-170173942D02*
X334037139Y-170269180D01*
X334037139Y-170269180D02*
X334084758Y-170316800D01*
X334084758Y-170316800D02*
X334179996Y-170364419D01*
X334179996Y-170364419D02*
X334465710Y-170364419D01*
X334465710Y-170364419D02*
X334560948Y-170316800D01*
X334560948Y-170316800D02*
X334608567Y-170269180D01*
X184065710Y-94164419D02*
X184065710Y-93164419D01*
X184065710Y-93164419D02*
X183827615Y-93164419D01*
X183827615Y-93164419D02*
X183684758Y-93212038D01*
X183684758Y-93212038D02*
X183589520Y-93307276D01*
X183589520Y-93307276D02*
X183541901Y-93402514D01*
X183541901Y-93402514D02*
X183494282Y-93592990D01*
X183494282Y-93592990D02*
X183494282Y-93735847D01*
X183494282Y-93735847D02*
X183541901Y-93926323D01*
X183541901Y-93926323D02*
X183589520Y-94021561D01*
X183589520Y-94021561D02*
X183684758Y-94116800D01*
X183684758Y-94116800D02*
X183827615Y-94164419D01*
X183827615Y-94164419D02*
X184065710Y-94164419D01*
X183113329Y-93259657D02*
X183065710Y-93212038D01*
X183065710Y-93212038D02*
X182970472Y-93164419D01*
X182970472Y-93164419D02*
X182732377Y-93164419D01*
X182732377Y-93164419D02*
X182637139Y-93212038D01*
X182637139Y-93212038D02*
X182589520Y-93259657D01*
X182589520Y-93259657D02*
X182541901Y-93354895D01*
X182541901Y-93354895D02*
X182541901Y-93450133D01*
X182541901Y-93450133D02*
X182589520Y-93592990D01*
X182589520Y-93592990D02*
X183160948Y-94164419D01*
X183160948Y-94164419D02*
X182541901Y-94164419D01*
X181684758Y-93164419D02*
X181875234Y-93164419D01*
X181875234Y-93164419D02*
X181970472Y-93212038D01*
X181970472Y-93212038D02*
X182018091Y-93259657D01*
X182018091Y-93259657D02*
X182113329Y-93402514D01*
X182113329Y-93402514D02*
X182160948Y-93592990D01*
X182160948Y-93592990D02*
X182160948Y-93973942D01*
X182160948Y-93973942D02*
X182113329Y-94069180D01*
X182113329Y-94069180D02*
X182065710Y-94116800D01*
X182065710Y-94116800D02*
X181970472Y-94164419D01*
X181970472Y-94164419D02*
X181779996Y-94164419D01*
X181779996Y-94164419D02*
X181684758Y-94116800D01*
X181684758Y-94116800D02*
X181637139Y-94069180D01*
X181637139Y-94069180D02*
X181589520Y-93973942D01*
X181589520Y-93973942D02*
X181589520Y-93735847D01*
X181589520Y-93735847D02*
X181637139Y-93640609D01*
X181637139Y-93640609D02*
X181684758Y-93592990D01*
X181684758Y-93592990D02*
X181779996Y-93545371D01*
X181779996Y-93545371D02*
X181970472Y-93545371D01*
X181970472Y-93545371D02*
X182065710Y-93592990D01*
X182065710Y-93592990D02*
X182113329Y-93640609D01*
X182113329Y-93640609D02*
X182160948Y-93735847D01*
X131678210Y-151480044D02*
X131678210Y-150480044D01*
X131678210Y-150480044D02*
X131440115Y-150480044D01*
X131440115Y-150480044D02*
X131297258Y-150527663D01*
X131297258Y-150527663D02*
X131202020Y-150622901D01*
X131202020Y-150622901D02*
X131154401Y-150718139D01*
X131154401Y-150718139D02*
X131106782Y-150908615D01*
X131106782Y-150908615D02*
X131106782Y-151051472D01*
X131106782Y-151051472D02*
X131154401Y-151241948D01*
X131154401Y-151241948D02*
X131202020Y-151337186D01*
X131202020Y-151337186D02*
X131297258Y-151432425D01*
X131297258Y-151432425D02*
X131440115Y-151480044D01*
X131440115Y-151480044D02*
X131678210Y-151480044D01*
X130154401Y-151480044D02*
X130725829Y-151480044D01*
X130440115Y-151480044D02*
X130440115Y-150480044D01*
X130440115Y-150480044D02*
X130535353Y-150622901D01*
X130535353Y-150622901D02*
X130630591Y-150718139D01*
X130630591Y-150718139D02*
X130725829Y-150765758D01*
X129821067Y-150480044D02*
X129154401Y-150480044D01*
X129154401Y-150480044D02*
X129582972Y-151480044D01*
X334952381Y-106404819D02*
X335285714Y-105928628D01*
X335523809Y-106404819D02*
X335523809Y-105404819D01*
X335523809Y-105404819D02*
X335142857Y-105404819D01*
X335142857Y-105404819D02*
X335047619Y-105452438D01*
X335047619Y-105452438D02*
X335000000Y-105500057D01*
X335000000Y-105500057D02*
X334952381Y-105595295D01*
X334952381Y-105595295D02*
X334952381Y-105738152D01*
X334952381Y-105738152D02*
X335000000Y-105833390D01*
X335000000Y-105833390D02*
X335047619Y-105881009D01*
X335047619Y-105881009D02*
X335142857Y-105928628D01*
X335142857Y-105928628D02*
X335523809Y-105928628D01*
X334523809Y-105881009D02*
X334190476Y-105881009D01*
X334047619Y-106404819D02*
X334523809Y-106404819D01*
X334523809Y-106404819D02*
X334523809Y-105404819D01*
X334523809Y-105404819D02*
X334047619Y-105404819D01*
X333666666Y-106357200D02*
X333523809Y-106404819D01*
X333523809Y-106404819D02*
X333285714Y-106404819D01*
X333285714Y-106404819D02*
X333190476Y-106357200D01*
X333190476Y-106357200D02*
X333142857Y-106309580D01*
X333142857Y-106309580D02*
X333095238Y-106214342D01*
X333095238Y-106214342D02*
X333095238Y-106119104D01*
X333095238Y-106119104D02*
X333142857Y-106023866D01*
X333142857Y-106023866D02*
X333190476Y-105976247D01*
X333190476Y-105976247D02*
X333285714Y-105928628D01*
X333285714Y-105928628D02*
X333476190Y-105881009D01*
X333476190Y-105881009D02*
X333571428Y-105833390D01*
X333571428Y-105833390D02*
X333619047Y-105785771D01*
X333619047Y-105785771D02*
X333666666Y-105690533D01*
X333666666Y-105690533D02*
X333666666Y-105595295D01*
X333666666Y-105595295D02*
X333619047Y-105500057D01*
X333619047Y-105500057D02*
X333571428Y-105452438D01*
X333571428Y-105452438D02*
X333476190Y-105404819D01*
X333476190Y-105404819D02*
X333238095Y-105404819D01*
X333238095Y-105404819D02*
X333095238Y-105452438D01*
X332666666Y-105881009D02*
X332333333Y-105881009D01*
X332190476Y-106404819D02*
X332666666Y-106404819D01*
X332666666Y-106404819D02*
X332666666Y-105404819D01*
X332666666Y-105404819D02*
X332190476Y-105404819D01*
X331904761Y-105404819D02*
X331333333Y-105404819D01*
X331619047Y-106404819D02*
X331619047Y-105404819D01*
X276934460Y-170364419D02*
X276934460Y-169364419D01*
X276934460Y-169364419D02*
X276696365Y-169364419D01*
X276696365Y-169364419D02*
X276553508Y-169412038D01*
X276553508Y-169412038D02*
X276458270Y-169507276D01*
X276458270Y-169507276D02*
X276410651Y-169602514D01*
X276410651Y-169602514D02*
X276363032Y-169792990D01*
X276363032Y-169792990D02*
X276363032Y-169935847D01*
X276363032Y-169935847D02*
X276410651Y-170126323D01*
X276410651Y-170126323D02*
X276458270Y-170221561D01*
X276458270Y-170221561D02*
X276553508Y-170316800D01*
X276553508Y-170316800D02*
X276696365Y-170364419D01*
X276696365Y-170364419D02*
X276934460Y-170364419D01*
X275458270Y-169364419D02*
X275934460Y-169364419D01*
X275934460Y-169364419D02*
X275982079Y-169840609D01*
X275982079Y-169840609D02*
X275934460Y-169792990D01*
X275934460Y-169792990D02*
X275839222Y-169745371D01*
X275839222Y-169745371D02*
X275601127Y-169745371D01*
X275601127Y-169745371D02*
X275505889Y-169792990D01*
X275505889Y-169792990D02*
X275458270Y-169840609D01*
X275458270Y-169840609D02*
X275410651Y-169935847D01*
X275410651Y-169935847D02*
X275410651Y-170173942D01*
X275410651Y-170173942D02*
X275458270Y-170269180D01*
X275458270Y-170269180D02*
X275505889Y-170316800D01*
X275505889Y-170316800D02*
X275601127Y-170364419D01*
X275601127Y-170364419D02*
X275839222Y-170364419D01*
X275839222Y-170364419D02*
X275934460Y-170316800D01*
X275934460Y-170316800D02*
X275982079Y-170269180D01*
X275029698Y-169459657D02*
X274982079Y-169412038D01*
X274982079Y-169412038D02*
X274886841Y-169364419D01*
X274886841Y-169364419D02*
X274648746Y-169364419D01*
X274648746Y-169364419D02*
X274553508Y-169412038D01*
X274553508Y-169412038D02*
X274505889Y-169459657D01*
X274505889Y-169459657D02*
X274458270Y-169554895D01*
X274458270Y-169554895D02*
X274458270Y-169650133D01*
X274458270Y-169650133D02*
X274505889Y-169792990D01*
X274505889Y-169792990D02*
X275077317Y-170364419D01*
X275077317Y-170364419D02*
X274458270Y-170364419D01*
X231690710Y-113214419D02*
X231690710Y-112214419D01*
X231690710Y-112214419D02*
X231452615Y-112214419D01*
X231452615Y-112214419D02*
X231309758Y-112262038D01*
X231309758Y-112262038D02*
X231214520Y-112357276D01*
X231214520Y-112357276D02*
X231166901Y-112452514D01*
X231166901Y-112452514D02*
X231119282Y-112642990D01*
X231119282Y-112642990D02*
X231119282Y-112785847D01*
X231119282Y-112785847D02*
X231166901Y-112976323D01*
X231166901Y-112976323D02*
X231214520Y-113071561D01*
X231214520Y-113071561D02*
X231309758Y-113166800D01*
X231309758Y-113166800D02*
X231452615Y-113214419D01*
X231452615Y-113214419D02*
X231690710Y-113214419D01*
X230785948Y-112214419D02*
X230166901Y-112214419D01*
X230166901Y-112214419D02*
X230500234Y-112595371D01*
X230500234Y-112595371D02*
X230357377Y-112595371D01*
X230357377Y-112595371D02*
X230262139Y-112642990D01*
X230262139Y-112642990D02*
X230214520Y-112690609D01*
X230214520Y-112690609D02*
X230166901Y-112785847D01*
X230166901Y-112785847D02*
X230166901Y-113023942D01*
X230166901Y-113023942D02*
X230214520Y-113119180D01*
X230214520Y-113119180D02*
X230262139Y-113166800D01*
X230262139Y-113166800D02*
X230357377Y-113214419D01*
X230357377Y-113214419D02*
X230643091Y-113214419D01*
X230643091Y-113214419D02*
X230738329Y-113166800D01*
X230738329Y-113166800D02*
X230785948Y-113119180D01*
X229309758Y-112214419D02*
X229500234Y-112214419D01*
X229500234Y-112214419D02*
X229595472Y-112262038D01*
X229595472Y-112262038D02*
X229643091Y-112309657D01*
X229643091Y-112309657D02*
X229738329Y-112452514D01*
X229738329Y-112452514D02*
X229785948Y-112642990D01*
X229785948Y-112642990D02*
X229785948Y-113023942D01*
X229785948Y-113023942D02*
X229738329Y-113119180D01*
X229738329Y-113119180D02*
X229690710Y-113166800D01*
X229690710Y-113166800D02*
X229595472Y-113214419D01*
X229595472Y-113214419D02*
X229404996Y-113214419D01*
X229404996Y-113214419D02*
X229309758Y-113166800D01*
X229309758Y-113166800D02*
X229262139Y-113119180D01*
X229262139Y-113119180D02*
X229214520Y-113023942D01*
X229214520Y-113023942D02*
X229214520Y-112785847D01*
X229214520Y-112785847D02*
X229262139Y-112690609D01*
X229262139Y-112690609D02*
X229309758Y-112642990D01*
X229309758Y-112642990D02*
X229404996Y-112595371D01*
X229404996Y-112595371D02*
X229595472Y-112595371D01*
X229595472Y-112595371D02*
X229690710Y-112642990D01*
X229690710Y-112642990D02*
X229738329Y-112690609D01*
X229738329Y-112690609D02*
X229785948Y-112785847D01*
X203115710Y-94164419D02*
X203115710Y-93164419D01*
X203115710Y-93164419D02*
X202877615Y-93164419D01*
X202877615Y-93164419D02*
X202734758Y-93212038D01*
X202734758Y-93212038D02*
X202639520Y-93307276D01*
X202639520Y-93307276D02*
X202591901Y-93402514D01*
X202591901Y-93402514D02*
X202544282Y-93592990D01*
X202544282Y-93592990D02*
X202544282Y-93735847D01*
X202544282Y-93735847D02*
X202591901Y-93926323D01*
X202591901Y-93926323D02*
X202639520Y-94021561D01*
X202639520Y-94021561D02*
X202734758Y-94116800D01*
X202734758Y-94116800D02*
X202877615Y-94164419D01*
X202877615Y-94164419D02*
X203115710Y-94164419D01*
X202210948Y-93164419D02*
X201591901Y-93164419D01*
X201591901Y-93164419D02*
X201925234Y-93545371D01*
X201925234Y-93545371D02*
X201782377Y-93545371D01*
X201782377Y-93545371D02*
X201687139Y-93592990D01*
X201687139Y-93592990D02*
X201639520Y-93640609D01*
X201639520Y-93640609D02*
X201591901Y-93735847D01*
X201591901Y-93735847D02*
X201591901Y-93973942D01*
X201591901Y-93973942D02*
X201639520Y-94069180D01*
X201639520Y-94069180D02*
X201687139Y-94116800D01*
X201687139Y-94116800D02*
X201782377Y-94164419D01*
X201782377Y-94164419D02*
X202068091Y-94164419D01*
X202068091Y-94164419D02*
X202163329Y-94116800D01*
X202163329Y-94116800D02*
X202210948Y-94069180D01*
X200972853Y-93164419D02*
X200877615Y-93164419D01*
X200877615Y-93164419D02*
X200782377Y-93212038D01*
X200782377Y-93212038D02*
X200734758Y-93259657D01*
X200734758Y-93259657D02*
X200687139Y-93354895D01*
X200687139Y-93354895D02*
X200639520Y-93545371D01*
X200639520Y-93545371D02*
X200639520Y-93783466D01*
X200639520Y-93783466D02*
X200687139Y-93973942D01*
X200687139Y-93973942D02*
X200734758Y-94069180D01*
X200734758Y-94069180D02*
X200782377Y-94116800D01*
X200782377Y-94116800D02*
X200877615Y-94164419D01*
X200877615Y-94164419D02*
X200972853Y-94164419D01*
X200972853Y-94164419D02*
X201068091Y-94116800D01*
X201068091Y-94116800D02*
X201115710Y-94069180D01*
X201115710Y-94069180D02*
X201163329Y-93973942D01*
X201163329Y-93973942D02*
X201210948Y-93783466D01*
X201210948Y-93783466D02*
X201210948Y-93545371D01*
X201210948Y-93545371D02*
X201163329Y-93354895D01*
X201163329Y-93354895D02*
X201115710Y-93259657D01*
X201115710Y-93259657D02*
X201068091Y-93212038D01*
X201068091Y-93212038D02*
X200972853Y-93164419D01*
X334024135Y-113884869D02*
X334024135Y-112884869D01*
X334024135Y-112884869D02*
X333786040Y-112884869D01*
X333786040Y-112884869D02*
X333643183Y-112932488D01*
X333643183Y-112932488D02*
X333547945Y-113027726D01*
X333547945Y-113027726D02*
X333500326Y-113122964D01*
X333500326Y-113122964D02*
X333452707Y-113313440D01*
X333452707Y-113313440D02*
X333452707Y-113456297D01*
X333452707Y-113456297D02*
X333500326Y-113646773D01*
X333500326Y-113646773D02*
X333547945Y-113742011D01*
X333547945Y-113742011D02*
X333643183Y-113837250D01*
X333643183Y-113837250D02*
X333786040Y-113884869D01*
X333786040Y-113884869D02*
X334024135Y-113884869D01*
X332547945Y-112884869D02*
X333024135Y-112884869D01*
X333024135Y-112884869D02*
X333071754Y-113361059D01*
X333071754Y-113361059D02*
X333024135Y-113313440D01*
X333024135Y-113313440D02*
X332928897Y-113265821D01*
X332928897Y-113265821D02*
X332690802Y-113265821D01*
X332690802Y-113265821D02*
X332595564Y-113313440D01*
X332595564Y-113313440D02*
X332547945Y-113361059D01*
X332547945Y-113361059D02*
X332500326Y-113456297D01*
X332500326Y-113456297D02*
X332500326Y-113694392D01*
X332500326Y-113694392D02*
X332547945Y-113789630D01*
X332547945Y-113789630D02*
X332595564Y-113837250D01*
X332595564Y-113837250D02*
X332690802Y-113884869D01*
X332690802Y-113884869D02*
X332928897Y-113884869D01*
X332928897Y-113884869D02*
X333024135Y-113837250D01*
X333024135Y-113837250D02*
X333071754Y-113789630D01*
X332024135Y-113884869D02*
X331833659Y-113884869D01*
X331833659Y-113884869D02*
X331738421Y-113837250D01*
X331738421Y-113837250D02*
X331690802Y-113789630D01*
X331690802Y-113789630D02*
X331595564Y-113646773D01*
X331595564Y-113646773D02*
X331547945Y-113456297D01*
X331547945Y-113456297D02*
X331547945Y-113075345D01*
X331547945Y-113075345D02*
X331595564Y-112980107D01*
X331595564Y-112980107D02*
X331643183Y-112932488D01*
X331643183Y-112932488D02*
X331738421Y-112884869D01*
X331738421Y-112884869D02*
X331928897Y-112884869D01*
X331928897Y-112884869D02*
X332024135Y-112932488D01*
X332024135Y-112932488D02*
X332071754Y-112980107D01*
X332071754Y-112980107D02*
X332119373Y-113075345D01*
X332119373Y-113075345D02*
X332119373Y-113313440D01*
X332119373Y-113313440D02*
X332071754Y-113408678D01*
X332071754Y-113408678D02*
X332024135Y-113456297D01*
X332024135Y-113456297D02*
X331928897Y-113503916D01*
X331928897Y-113503916D02*
X331738421Y-113503916D01*
X331738421Y-113503916D02*
X331643183Y-113456297D01*
X331643183Y-113456297D02*
X331595564Y-113408678D01*
X331595564Y-113408678D02*
X331547945Y-113313440D01*
X310148135Y-113935669D02*
X310148135Y-112935669D01*
X310148135Y-112935669D02*
X309910040Y-112935669D01*
X309910040Y-112935669D02*
X309767183Y-112983288D01*
X309767183Y-112983288D02*
X309671945Y-113078526D01*
X309671945Y-113078526D02*
X309624326Y-113173764D01*
X309624326Y-113173764D02*
X309576707Y-113364240D01*
X309576707Y-113364240D02*
X309576707Y-113507097D01*
X309576707Y-113507097D02*
X309624326Y-113697573D01*
X309624326Y-113697573D02*
X309671945Y-113792811D01*
X309671945Y-113792811D02*
X309767183Y-113888050D01*
X309767183Y-113888050D02*
X309910040Y-113935669D01*
X309910040Y-113935669D02*
X310148135Y-113935669D01*
X308671945Y-112935669D02*
X309148135Y-112935669D01*
X309148135Y-112935669D02*
X309195754Y-113411859D01*
X309195754Y-113411859D02*
X309148135Y-113364240D01*
X309148135Y-113364240D02*
X309052897Y-113316621D01*
X309052897Y-113316621D02*
X308814802Y-113316621D01*
X308814802Y-113316621D02*
X308719564Y-113364240D01*
X308719564Y-113364240D02*
X308671945Y-113411859D01*
X308671945Y-113411859D02*
X308624326Y-113507097D01*
X308624326Y-113507097D02*
X308624326Y-113745192D01*
X308624326Y-113745192D02*
X308671945Y-113840430D01*
X308671945Y-113840430D02*
X308719564Y-113888050D01*
X308719564Y-113888050D02*
X308814802Y-113935669D01*
X308814802Y-113935669D02*
X309052897Y-113935669D01*
X309052897Y-113935669D02*
X309148135Y-113888050D01*
X309148135Y-113888050D02*
X309195754Y-113840430D01*
X307767183Y-113269002D02*
X307767183Y-113935669D01*
X308005278Y-112888050D02*
X308243373Y-113602335D01*
X308243373Y-113602335D02*
X307624326Y-113602335D01*
X349567420Y-159707700D02*
X349567420Y-160842972D01*
X349567420Y-160842972D02*
X349500640Y-160976533D01*
X349500640Y-160976533D02*
X349433859Y-161043314D01*
X349433859Y-161043314D02*
X349300298Y-161110094D01*
X349300298Y-161110094D02*
X349033175Y-161110094D01*
X349033175Y-161110094D02*
X348899614Y-161043314D01*
X348899614Y-161043314D02*
X348832833Y-160976533D01*
X348832833Y-160976533D02*
X348766052Y-160842972D01*
X348766052Y-160842972D02*
X348766052Y-159707700D01*
X348231807Y-159707700D02*
X347363658Y-159707700D01*
X347363658Y-159707700D02*
X347831123Y-160241946D01*
X347831123Y-160241946D02*
X347630781Y-160241946D01*
X347630781Y-160241946D02*
X347497219Y-160308726D01*
X347497219Y-160308726D02*
X347430439Y-160375507D01*
X347430439Y-160375507D02*
X347363658Y-160509068D01*
X347363658Y-160509068D02*
X347363658Y-160842972D01*
X347363658Y-160842972D02*
X347430439Y-160976533D01*
X347430439Y-160976533D02*
X347497219Y-161043314D01*
X347497219Y-161043314D02*
X347630781Y-161110094D01*
X347630781Y-161110094D02*
X348031465Y-161110094D01*
X348031465Y-161110094D02*
X348165026Y-161043314D01*
X348165026Y-161043314D02*
X348231807Y-160976533D01*
X112628210Y-170530044D02*
X112628210Y-169530044D01*
X112628210Y-169530044D02*
X112390115Y-169530044D01*
X112390115Y-169530044D02*
X112247258Y-169577663D01*
X112247258Y-169577663D02*
X112152020Y-169672901D01*
X112152020Y-169672901D02*
X112104401Y-169768139D01*
X112104401Y-169768139D02*
X112056782Y-169958615D01*
X112056782Y-169958615D02*
X112056782Y-170101472D01*
X112056782Y-170101472D02*
X112104401Y-170291948D01*
X112104401Y-170291948D02*
X112152020Y-170387186D01*
X112152020Y-170387186D02*
X112247258Y-170482425D01*
X112247258Y-170482425D02*
X112390115Y-170530044D01*
X112390115Y-170530044D02*
X112628210Y-170530044D01*
X111104401Y-170530044D02*
X111675829Y-170530044D01*
X111390115Y-170530044D02*
X111390115Y-169530044D01*
X111390115Y-169530044D02*
X111485353Y-169672901D01*
X111485353Y-169672901D02*
X111580591Y-169768139D01*
X111580591Y-169768139D02*
X111675829Y-169815758D01*
X110771067Y-169530044D02*
X110152020Y-169530044D01*
X110152020Y-169530044D02*
X110485353Y-169910996D01*
X110485353Y-169910996D02*
X110342496Y-169910996D01*
X110342496Y-169910996D02*
X110247258Y-169958615D01*
X110247258Y-169958615D02*
X110199639Y-170006234D01*
X110199639Y-170006234D02*
X110152020Y-170101472D01*
X110152020Y-170101472D02*
X110152020Y-170339567D01*
X110152020Y-170339567D02*
X110199639Y-170434805D01*
X110199639Y-170434805D02*
X110247258Y-170482425D01*
X110247258Y-170482425D02*
X110342496Y-170530044D01*
X110342496Y-170530044D02*
X110628210Y-170530044D01*
X110628210Y-170530044D02*
X110723448Y-170482425D01*
X110723448Y-170482425D02*
X110771067Y-170434805D01*
X236453210Y-132264419D02*
X236453210Y-131264419D01*
X236453210Y-131264419D02*
X236215115Y-131264419D01*
X236215115Y-131264419D02*
X236072258Y-131312038D01*
X236072258Y-131312038D02*
X235977020Y-131407276D01*
X235977020Y-131407276D02*
X235929401Y-131502514D01*
X235929401Y-131502514D02*
X235881782Y-131692990D01*
X235881782Y-131692990D02*
X235881782Y-131835847D01*
X235881782Y-131835847D02*
X235929401Y-132026323D01*
X235929401Y-132026323D02*
X235977020Y-132121561D01*
X235977020Y-132121561D02*
X236072258Y-132216800D01*
X236072258Y-132216800D02*
X236215115Y-132264419D01*
X236215115Y-132264419D02*
X236453210Y-132264419D01*
X235024639Y-131597752D02*
X235024639Y-132264419D01*
X235262734Y-131216800D02*
X235500829Y-131931085D01*
X235500829Y-131931085D02*
X234881782Y-131931085D01*
X233977020Y-132264419D02*
X234548448Y-132264419D01*
X234262734Y-132264419D02*
X234262734Y-131264419D01*
X234262734Y-131264419D02*
X234357972Y-131407276D01*
X234357972Y-131407276D02*
X234453210Y-131502514D01*
X234453210Y-131502514D02*
X234548448Y-131550133D01*
X97864519Y-113380044D02*
X97864519Y-112380044D01*
X97864519Y-112380044D02*
X97626424Y-112380044D01*
X97626424Y-112380044D02*
X97483567Y-112427663D01*
X97483567Y-112427663D02*
X97388329Y-112522901D01*
X97388329Y-112522901D02*
X97340710Y-112618139D01*
X97340710Y-112618139D02*
X97293091Y-112808615D01*
X97293091Y-112808615D02*
X97293091Y-112951472D01*
X97293091Y-112951472D02*
X97340710Y-113141948D01*
X97340710Y-113141948D02*
X97388329Y-113237186D01*
X97388329Y-113237186D02*
X97483567Y-113332425D01*
X97483567Y-113332425D02*
X97626424Y-113380044D01*
X97626424Y-113380044D02*
X97864519Y-113380044D01*
X96959757Y-112380044D02*
X96293091Y-112380044D01*
X96293091Y-112380044D02*
X96721662Y-113380044D01*
X217403210Y-132430044D02*
X217403210Y-131430044D01*
X217403210Y-131430044D02*
X217165115Y-131430044D01*
X217165115Y-131430044D02*
X217022258Y-131477663D01*
X217022258Y-131477663D02*
X216927020Y-131572901D01*
X216927020Y-131572901D02*
X216879401Y-131668139D01*
X216879401Y-131668139D02*
X216831782Y-131858615D01*
X216831782Y-131858615D02*
X216831782Y-132001472D01*
X216831782Y-132001472D02*
X216879401Y-132191948D01*
X216879401Y-132191948D02*
X216927020Y-132287186D01*
X216927020Y-132287186D02*
X217022258Y-132382425D01*
X217022258Y-132382425D02*
X217165115Y-132430044D01*
X217165115Y-132430044D02*
X217403210Y-132430044D01*
X216498448Y-131430044D02*
X215879401Y-131430044D01*
X215879401Y-131430044D02*
X216212734Y-131810996D01*
X216212734Y-131810996D02*
X216069877Y-131810996D01*
X216069877Y-131810996D02*
X215974639Y-131858615D01*
X215974639Y-131858615D02*
X215927020Y-131906234D01*
X215927020Y-131906234D02*
X215879401Y-132001472D01*
X215879401Y-132001472D02*
X215879401Y-132239567D01*
X215879401Y-132239567D02*
X215927020Y-132334805D01*
X215927020Y-132334805D02*
X215974639Y-132382425D01*
X215974639Y-132382425D02*
X216069877Y-132430044D01*
X216069877Y-132430044D02*
X216355591Y-132430044D01*
X216355591Y-132430044D02*
X216450829Y-132382425D01*
X216450829Y-132382425D02*
X216498448Y-132334805D01*
X215546067Y-131430044D02*
X214879401Y-131430044D01*
X214879401Y-131430044D02*
X215307972Y-132430044D01*
X90019094Y-151476869D02*
X90019094Y-150476869D01*
X90019094Y-150476869D02*
X89780999Y-150476869D01*
X89780999Y-150476869D02*
X89638142Y-150524488D01*
X89638142Y-150524488D02*
X89542904Y-150619726D01*
X89542904Y-150619726D02*
X89495285Y-150714964D01*
X89495285Y-150714964D02*
X89447666Y-150905440D01*
X89447666Y-150905440D02*
X89447666Y-151048297D01*
X89447666Y-151048297D02*
X89495285Y-151238773D01*
X89495285Y-151238773D02*
X89542904Y-151334011D01*
X89542904Y-151334011D02*
X89638142Y-151429250D01*
X89638142Y-151429250D02*
X89780999Y-151476869D01*
X89780999Y-151476869D02*
X90019094Y-151476869D01*
X88590523Y-150810202D02*
X88590523Y-151476869D01*
X88828618Y-150429250D02*
X89066713Y-151143535D01*
X89066713Y-151143535D02*
X88447666Y-151143535D01*
X56111904Y-147302438D02*
X56207142Y-147254819D01*
X56207142Y-147254819D02*
X56349999Y-147254819D01*
X56349999Y-147254819D02*
X56492856Y-147302438D01*
X56492856Y-147302438D02*
X56588094Y-147397676D01*
X56588094Y-147397676D02*
X56635713Y-147492914D01*
X56635713Y-147492914D02*
X56683332Y-147683390D01*
X56683332Y-147683390D02*
X56683332Y-147826247D01*
X56683332Y-147826247D02*
X56635713Y-148016723D01*
X56635713Y-148016723D02*
X56588094Y-148111961D01*
X56588094Y-148111961D02*
X56492856Y-148207200D01*
X56492856Y-148207200D02*
X56349999Y-148254819D01*
X56349999Y-148254819D02*
X56254761Y-148254819D01*
X56254761Y-148254819D02*
X56111904Y-148207200D01*
X56111904Y-148207200D02*
X56064285Y-148159580D01*
X56064285Y-148159580D02*
X56064285Y-147826247D01*
X56064285Y-147826247D02*
X56254761Y-147826247D01*
X55635713Y-148254819D02*
X55635713Y-147254819D01*
X55635713Y-147254819D02*
X55064285Y-148254819D01*
X55064285Y-148254819D02*
X55064285Y-147254819D01*
X54588094Y-148254819D02*
X54588094Y-147254819D01*
X54588094Y-147254819D02*
X54349999Y-147254819D01*
X54349999Y-147254819D02*
X54207142Y-147302438D01*
X54207142Y-147302438D02*
X54111904Y-147397676D01*
X54111904Y-147397676D02*
X54064285Y-147492914D01*
X54064285Y-147492914D02*
X54016666Y-147683390D01*
X54016666Y-147683390D02*
X54016666Y-147826247D01*
X54016666Y-147826247D02*
X54064285Y-148016723D01*
X54064285Y-148016723D02*
X54111904Y-148111961D01*
X54111904Y-148111961D02*
X54207142Y-148207200D01*
X54207142Y-148207200D02*
X54349999Y-148254819D01*
X54349999Y-148254819D02*
X54588094Y-148254819D01*
X179303210Y-132430044D02*
X179303210Y-131430044D01*
X179303210Y-131430044D02*
X179065115Y-131430044D01*
X179065115Y-131430044D02*
X178922258Y-131477663D01*
X178922258Y-131477663D02*
X178827020Y-131572901D01*
X178827020Y-131572901D02*
X178779401Y-131668139D01*
X178779401Y-131668139D02*
X178731782Y-131858615D01*
X178731782Y-131858615D02*
X178731782Y-132001472D01*
X178731782Y-132001472D02*
X178779401Y-132191948D01*
X178779401Y-132191948D02*
X178827020Y-132287186D01*
X178827020Y-132287186D02*
X178922258Y-132382425D01*
X178922258Y-132382425D02*
X179065115Y-132430044D01*
X179065115Y-132430044D02*
X179303210Y-132430044D01*
X178350829Y-131525282D02*
X178303210Y-131477663D01*
X178303210Y-131477663D02*
X178207972Y-131430044D01*
X178207972Y-131430044D02*
X177969877Y-131430044D01*
X177969877Y-131430044D02*
X177874639Y-131477663D01*
X177874639Y-131477663D02*
X177827020Y-131525282D01*
X177827020Y-131525282D02*
X177779401Y-131620520D01*
X177779401Y-131620520D02*
X177779401Y-131715758D01*
X177779401Y-131715758D02*
X177827020Y-131858615D01*
X177827020Y-131858615D02*
X178398448Y-132430044D01*
X178398448Y-132430044D02*
X177779401Y-132430044D01*
X177207972Y-131858615D02*
X177303210Y-131810996D01*
X177303210Y-131810996D02*
X177350829Y-131763377D01*
X177350829Y-131763377D02*
X177398448Y-131668139D01*
X177398448Y-131668139D02*
X177398448Y-131620520D01*
X177398448Y-131620520D02*
X177350829Y-131525282D01*
X177350829Y-131525282D02*
X177303210Y-131477663D01*
X177303210Y-131477663D02*
X177207972Y-131430044D01*
X177207972Y-131430044D02*
X177017496Y-131430044D01*
X177017496Y-131430044D02*
X176922258Y-131477663D01*
X176922258Y-131477663D02*
X176874639Y-131525282D01*
X176874639Y-131525282D02*
X176827020Y-131620520D01*
X176827020Y-131620520D02*
X176827020Y-131668139D01*
X176827020Y-131668139D02*
X176874639Y-131763377D01*
X176874639Y-131763377D02*
X176922258Y-131810996D01*
X176922258Y-131810996D02*
X177017496Y-131858615D01*
X177017496Y-131858615D02*
X177207972Y-131858615D01*
X177207972Y-131858615D02*
X177303210Y-131906234D01*
X177303210Y-131906234D02*
X177350829Y-131953853D01*
X177350829Y-131953853D02*
X177398448Y-132049091D01*
X177398448Y-132049091D02*
X177398448Y-132239567D01*
X177398448Y-132239567D02*
X177350829Y-132334805D01*
X177350829Y-132334805D02*
X177303210Y-132382425D01*
X177303210Y-132382425D02*
X177207972Y-132430044D01*
X177207972Y-132430044D02*
X177017496Y-132430044D01*
X177017496Y-132430044D02*
X176922258Y-132382425D01*
X176922258Y-132382425D02*
X176874639Y-132334805D01*
X176874639Y-132334805D02*
X176827020Y-132239567D01*
X176827020Y-132239567D02*
X176827020Y-132049091D01*
X176827020Y-132049091D02*
X176874639Y-131953853D01*
X176874639Y-131953853D02*
X176922258Y-131906234D01*
X176922258Y-131906234D02*
X177017496Y-131858615D01*
X193590710Y-113380044D02*
X193590710Y-112380044D01*
X193590710Y-112380044D02*
X193352615Y-112380044D01*
X193352615Y-112380044D02*
X193209758Y-112427663D01*
X193209758Y-112427663D02*
X193114520Y-112522901D01*
X193114520Y-112522901D02*
X193066901Y-112618139D01*
X193066901Y-112618139D02*
X193019282Y-112808615D01*
X193019282Y-112808615D02*
X193019282Y-112951472D01*
X193019282Y-112951472D02*
X193066901Y-113141948D01*
X193066901Y-113141948D02*
X193114520Y-113237186D01*
X193114520Y-113237186D02*
X193209758Y-113332425D01*
X193209758Y-113332425D02*
X193352615Y-113380044D01*
X193352615Y-113380044D02*
X193590710Y-113380044D01*
X192638329Y-112475282D02*
X192590710Y-112427663D01*
X192590710Y-112427663D02*
X192495472Y-112380044D01*
X192495472Y-112380044D02*
X192257377Y-112380044D01*
X192257377Y-112380044D02*
X192162139Y-112427663D01*
X192162139Y-112427663D02*
X192114520Y-112475282D01*
X192114520Y-112475282D02*
X192066901Y-112570520D01*
X192066901Y-112570520D02*
X192066901Y-112665758D01*
X192066901Y-112665758D02*
X192114520Y-112808615D01*
X192114520Y-112808615D02*
X192685948Y-113380044D01*
X192685948Y-113380044D02*
X192066901Y-113380044D01*
X191733567Y-112380044D02*
X191066901Y-112380044D01*
X191066901Y-112380044D02*
X191495472Y-113380044D01*
X298365710Y-94164419D02*
X298365710Y-93164419D01*
X298365710Y-93164419D02*
X298127615Y-93164419D01*
X298127615Y-93164419D02*
X297984758Y-93212038D01*
X297984758Y-93212038D02*
X297889520Y-93307276D01*
X297889520Y-93307276D02*
X297841901Y-93402514D01*
X297841901Y-93402514D02*
X297794282Y-93592990D01*
X297794282Y-93592990D02*
X297794282Y-93735847D01*
X297794282Y-93735847D02*
X297841901Y-93926323D01*
X297841901Y-93926323D02*
X297889520Y-94021561D01*
X297889520Y-94021561D02*
X297984758Y-94116800D01*
X297984758Y-94116800D02*
X298127615Y-94164419D01*
X298127615Y-94164419D02*
X298365710Y-94164419D01*
X296889520Y-93164419D02*
X297365710Y-93164419D01*
X297365710Y-93164419D02*
X297413329Y-93640609D01*
X297413329Y-93640609D02*
X297365710Y-93592990D01*
X297365710Y-93592990D02*
X297270472Y-93545371D01*
X297270472Y-93545371D02*
X297032377Y-93545371D01*
X297032377Y-93545371D02*
X296937139Y-93592990D01*
X296937139Y-93592990D02*
X296889520Y-93640609D01*
X296889520Y-93640609D02*
X296841901Y-93735847D01*
X296841901Y-93735847D02*
X296841901Y-93973942D01*
X296841901Y-93973942D02*
X296889520Y-94069180D01*
X296889520Y-94069180D02*
X296937139Y-94116800D01*
X296937139Y-94116800D02*
X297032377Y-94164419D01*
X297032377Y-94164419D02*
X297270472Y-94164419D01*
X297270472Y-94164419D02*
X297365710Y-94116800D01*
X297365710Y-94116800D02*
X297413329Y-94069180D01*
X296508567Y-93164419D02*
X295889520Y-93164419D01*
X295889520Y-93164419D02*
X296222853Y-93545371D01*
X296222853Y-93545371D02*
X296079996Y-93545371D01*
X296079996Y-93545371D02*
X295984758Y-93592990D01*
X295984758Y-93592990D02*
X295937139Y-93640609D01*
X295937139Y-93640609D02*
X295889520Y-93735847D01*
X295889520Y-93735847D02*
X295889520Y-93973942D01*
X295889520Y-93973942D02*
X295937139Y-94069180D01*
X295937139Y-94069180D02*
X295984758Y-94116800D01*
X295984758Y-94116800D02*
X296079996Y-94164419D01*
X296079996Y-94164419D02*
X296365710Y-94164419D01*
X296365710Y-94164419D02*
X296460948Y-94116800D01*
X296460948Y-94116800D02*
X296508567Y-94069180D01*
X245978210Y-151480044D02*
X245978210Y-150480044D01*
X245978210Y-150480044D02*
X245740115Y-150480044D01*
X245740115Y-150480044D02*
X245597258Y-150527663D01*
X245597258Y-150527663D02*
X245502020Y-150622901D01*
X245502020Y-150622901D02*
X245454401Y-150718139D01*
X245454401Y-150718139D02*
X245406782Y-150908615D01*
X245406782Y-150908615D02*
X245406782Y-151051472D01*
X245406782Y-151051472D02*
X245454401Y-151241948D01*
X245454401Y-151241948D02*
X245502020Y-151337186D01*
X245502020Y-151337186D02*
X245597258Y-151432425D01*
X245597258Y-151432425D02*
X245740115Y-151480044D01*
X245740115Y-151480044D02*
X245978210Y-151480044D01*
X244549639Y-150813377D02*
X244549639Y-151480044D01*
X244787734Y-150432425D02*
X245025829Y-151146710D01*
X245025829Y-151146710D02*
X244406782Y-151146710D01*
X244073448Y-150575282D02*
X244025829Y-150527663D01*
X244025829Y-150527663D02*
X243930591Y-150480044D01*
X243930591Y-150480044D02*
X243692496Y-150480044D01*
X243692496Y-150480044D02*
X243597258Y-150527663D01*
X243597258Y-150527663D02*
X243549639Y-150575282D01*
X243549639Y-150575282D02*
X243502020Y-150670520D01*
X243502020Y-150670520D02*
X243502020Y-150765758D01*
X243502020Y-150765758D02*
X243549639Y-150908615D01*
X243549639Y-150908615D02*
X244121067Y-151480044D01*
X244121067Y-151480044D02*
X243502020Y-151480044D01*
X122153210Y-132264419D02*
X122153210Y-131264419D01*
X122153210Y-131264419D02*
X121915115Y-131264419D01*
X121915115Y-131264419D02*
X121772258Y-131312038D01*
X121772258Y-131312038D02*
X121677020Y-131407276D01*
X121677020Y-131407276D02*
X121629401Y-131502514D01*
X121629401Y-131502514D02*
X121581782Y-131692990D01*
X121581782Y-131692990D02*
X121581782Y-131835847D01*
X121581782Y-131835847D02*
X121629401Y-132026323D01*
X121629401Y-132026323D02*
X121677020Y-132121561D01*
X121677020Y-132121561D02*
X121772258Y-132216800D01*
X121772258Y-132216800D02*
X121915115Y-132264419D01*
X121915115Y-132264419D02*
X122153210Y-132264419D01*
X120629401Y-132264419D02*
X121200829Y-132264419D01*
X120915115Y-132264419D02*
X120915115Y-131264419D01*
X120915115Y-131264419D02*
X121010353Y-131407276D01*
X121010353Y-131407276D02*
X121105591Y-131502514D01*
X121105591Y-131502514D02*
X121200829Y-131550133D01*
X119772258Y-131264419D02*
X119962734Y-131264419D01*
X119962734Y-131264419D02*
X120057972Y-131312038D01*
X120057972Y-131312038D02*
X120105591Y-131359657D01*
X120105591Y-131359657D02*
X120200829Y-131502514D01*
X120200829Y-131502514D02*
X120248448Y-131692990D01*
X120248448Y-131692990D02*
X120248448Y-132073942D01*
X120248448Y-132073942D02*
X120200829Y-132169180D01*
X120200829Y-132169180D02*
X120153210Y-132216800D01*
X120153210Y-132216800D02*
X120057972Y-132264419D01*
X120057972Y-132264419D02*
X119867496Y-132264419D01*
X119867496Y-132264419D02*
X119772258Y-132216800D01*
X119772258Y-132216800D02*
X119724639Y-132169180D01*
X119724639Y-132169180D02*
X119677020Y-132073942D01*
X119677020Y-132073942D02*
X119677020Y-131835847D01*
X119677020Y-131835847D02*
X119724639Y-131740609D01*
X119724639Y-131740609D02*
X119772258Y-131692990D01*
X119772258Y-131692990D02*
X119867496Y-131645371D01*
X119867496Y-131645371D02*
X120057972Y-131645371D01*
X120057972Y-131645371D02*
X120153210Y-131692990D01*
X120153210Y-131692990D02*
X120200829Y-131740609D01*
X120200829Y-131740609D02*
X120248448Y-131835847D01*
X141203210Y-132430044D02*
X141203210Y-131430044D01*
X141203210Y-131430044D02*
X140965115Y-131430044D01*
X140965115Y-131430044D02*
X140822258Y-131477663D01*
X140822258Y-131477663D02*
X140727020Y-131572901D01*
X140727020Y-131572901D02*
X140679401Y-131668139D01*
X140679401Y-131668139D02*
X140631782Y-131858615D01*
X140631782Y-131858615D02*
X140631782Y-132001472D01*
X140631782Y-132001472D02*
X140679401Y-132191948D01*
X140679401Y-132191948D02*
X140727020Y-132287186D01*
X140727020Y-132287186D02*
X140822258Y-132382425D01*
X140822258Y-132382425D02*
X140965115Y-132430044D01*
X140965115Y-132430044D02*
X141203210Y-132430044D01*
X140250829Y-131525282D02*
X140203210Y-131477663D01*
X140203210Y-131477663D02*
X140107972Y-131430044D01*
X140107972Y-131430044D02*
X139869877Y-131430044D01*
X139869877Y-131430044D02*
X139774639Y-131477663D01*
X139774639Y-131477663D02*
X139727020Y-131525282D01*
X139727020Y-131525282D02*
X139679401Y-131620520D01*
X139679401Y-131620520D02*
X139679401Y-131715758D01*
X139679401Y-131715758D02*
X139727020Y-131858615D01*
X139727020Y-131858615D02*
X140298448Y-132430044D01*
X140298448Y-132430044D02*
X139679401Y-132430044D01*
X139060353Y-131430044D02*
X138965115Y-131430044D01*
X138965115Y-131430044D02*
X138869877Y-131477663D01*
X138869877Y-131477663D02*
X138822258Y-131525282D01*
X138822258Y-131525282D02*
X138774639Y-131620520D01*
X138774639Y-131620520D02*
X138727020Y-131810996D01*
X138727020Y-131810996D02*
X138727020Y-132049091D01*
X138727020Y-132049091D02*
X138774639Y-132239567D01*
X138774639Y-132239567D02*
X138822258Y-132334805D01*
X138822258Y-132334805D02*
X138869877Y-132382425D01*
X138869877Y-132382425D02*
X138965115Y-132430044D01*
X138965115Y-132430044D02*
X139060353Y-132430044D01*
X139060353Y-132430044D02*
X139155591Y-132382425D01*
X139155591Y-132382425D02*
X139203210Y-132334805D01*
X139203210Y-132334805D02*
X139250829Y-132239567D01*
X139250829Y-132239567D02*
X139298448Y-132049091D01*
X139298448Y-132049091D02*
X139298448Y-131810996D01*
X139298448Y-131810996D02*
X139250829Y-131620520D01*
X139250829Y-131620520D02*
X139203210Y-131525282D01*
X139203210Y-131525282D02*
X139155591Y-131477663D01*
X139155591Y-131477663D02*
X139060353Y-131430044D01*
X93102019Y-170530044D02*
X93102019Y-169530044D01*
X93102019Y-169530044D02*
X92863924Y-169530044D01*
X92863924Y-169530044D02*
X92721067Y-169577663D01*
X92721067Y-169577663D02*
X92625829Y-169672901D01*
X92625829Y-169672901D02*
X92578210Y-169768139D01*
X92578210Y-169768139D02*
X92530591Y-169958615D01*
X92530591Y-169958615D02*
X92530591Y-170101472D01*
X92530591Y-170101472D02*
X92578210Y-170291948D01*
X92578210Y-170291948D02*
X92625829Y-170387186D01*
X92625829Y-170387186D02*
X92721067Y-170482425D01*
X92721067Y-170482425D02*
X92863924Y-170530044D01*
X92863924Y-170530044D02*
X93102019Y-170530044D01*
X91959162Y-169958615D02*
X92054400Y-169910996D01*
X92054400Y-169910996D02*
X92102019Y-169863377D01*
X92102019Y-169863377D02*
X92149638Y-169768139D01*
X92149638Y-169768139D02*
X92149638Y-169720520D01*
X92149638Y-169720520D02*
X92102019Y-169625282D01*
X92102019Y-169625282D02*
X92054400Y-169577663D01*
X92054400Y-169577663D02*
X91959162Y-169530044D01*
X91959162Y-169530044D02*
X91768686Y-169530044D01*
X91768686Y-169530044D02*
X91673448Y-169577663D01*
X91673448Y-169577663D02*
X91625829Y-169625282D01*
X91625829Y-169625282D02*
X91578210Y-169720520D01*
X91578210Y-169720520D02*
X91578210Y-169768139D01*
X91578210Y-169768139D02*
X91625829Y-169863377D01*
X91625829Y-169863377D02*
X91673448Y-169910996D01*
X91673448Y-169910996D02*
X91768686Y-169958615D01*
X91768686Y-169958615D02*
X91959162Y-169958615D01*
X91959162Y-169958615D02*
X92054400Y-170006234D01*
X92054400Y-170006234D02*
X92102019Y-170053853D01*
X92102019Y-170053853D02*
X92149638Y-170149091D01*
X92149638Y-170149091D02*
X92149638Y-170339567D01*
X92149638Y-170339567D02*
X92102019Y-170434805D01*
X92102019Y-170434805D02*
X92054400Y-170482425D01*
X92054400Y-170482425D02*
X91959162Y-170530044D01*
X91959162Y-170530044D02*
X91768686Y-170530044D01*
X91768686Y-170530044D02*
X91673448Y-170482425D01*
X91673448Y-170482425D02*
X91625829Y-170434805D01*
X91625829Y-170434805D02*
X91578210Y-170339567D01*
X91578210Y-170339567D02*
X91578210Y-170149091D01*
X91578210Y-170149091D02*
X91625829Y-170053853D01*
X91625829Y-170053853D02*
X91673448Y-170006234D01*
X91673448Y-170006234D02*
X91768686Y-169958615D01*
X279315710Y-94164419D02*
X279315710Y-93164419D01*
X279315710Y-93164419D02*
X279077615Y-93164419D01*
X279077615Y-93164419D02*
X278934758Y-93212038D01*
X278934758Y-93212038D02*
X278839520Y-93307276D01*
X278839520Y-93307276D02*
X278791901Y-93402514D01*
X278791901Y-93402514D02*
X278744282Y-93592990D01*
X278744282Y-93592990D02*
X278744282Y-93735847D01*
X278744282Y-93735847D02*
X278791901Y-93926323D01*
X278791901Y-93926323D02*
X278839520Y-94021561D01*
X278839520Y-94021561D02*
X278934758Y-94116800D01*
X278934758Y-94116800D02*
X279077615Y-94164419D01*
X279077615Y-94164419D02*
X279315710Y-94164419D01*
X277887139Y-93497752D02*
X277887139Y-94164419D01*
X278125234Y-93116800D02*
X278363329Y-93831085D01*
X278363329Y-93831085D02*
X277744282Y-93831085D01*
X277220472Y-93592990D02*
X277315710Y-93545371D01*
X277315710Y-93545371D02*
X277363329Y-93497752D01*
X277363329Y-93497752D02*
X277410948Y-93402514D01*
X277410948Y-93402514D02*
X277410948Y-93354895D01*
X277410948Y-93354895D02*
X277363329Y-93259657D01*
X277363329Y-93259657D02*
X277315710Y-93212038D01*
X277315710Y-93212038D02*
X277220472Y-93164419D01*
X277220472Y-93164419D02*
X277029996Y-93164419D01*
X277029996Y-93164419D02*
X276934758Y-93212038D01*
X276934758Y-93212038D02*
X276887139Y-93259657D01*
X276887139Y-93259657D02*
X276839520Y-93354895D01*
X276839520Y-93354895D02*
X276839520Y-93402514D01*
X276839520Y-93402514D02*
X276887139Y-93497752D01*
X276887139Y-93497752D02*
X276934758Y-93545371D01*
X276934758Y-93545371D02*
X277029996Y-93592990D01*
X277029996Y-93592990D02*
X277220472Y-93592990D01*
X277220472Y-93592990D02*
X277315710Y-93640609D01*
X277315710Y-93640609D02*
X277363329Y-93688228D01*
X277363329Y-93688228D02*
X277410948Y-93783466D01*
X277410948Y-93783466D02*
X277410948Y-93973942D01*
X277410948Y-93973942D02*
X277363329Y-94069180D01*
X277363329Y-94069180D02*
X277315710Y-94116800D01*
X277315710Y-94116800D02*
X277220472Y-94164419D01*
X277220472Y-94164419D02*
X277029996Y-94164419D01*
X277029996Y-94164419D02*
X276934758Y-94116800D01*
X276934758Y-94116800D02*
X276887139Y-94069180D01*
X276887139Y-94069180D02*
X276839520Y-93973942D01*
X276839520Y-93973942D02*
X276839520Y-93783466D01*
X276839520Y-93783466D02*
X276887139Y-93688228D01*
X276887139Y-93688228D02*
X276934758Y-93640609D01*
X276934758Y-93640609D02*
X277029996Y-93592990D01*
D10*
X350912763Y-119488307D02*
X350865144Y-119440688D01*
X350865144Y-119440688D02*
X350769906Y-119393069D01*
X350769906Y-119393069D02*
X350531811Y-119393069D01*
X350531811Y-119393069D02*
X350436573Y-119440688D01*
X350436573Y-119440688D02*
X350388954Y-119488307D01*
X350388954Y-119488307D02*
X350341335Y-119583545D01*
X350341335Y-119583545D02*
X350341335Y-119678783D01*
X350341335Y-119678783D02*
X350388954Y-119821640D01*
X350388954Y-119821640D02*
X350960382Y-120393069D01*
X350960382Y-120393069D02*
X350341335Y-120393069D01*
X358664342Y-109566402D02*
X358664342Y-110233069D01*
X358902437Y-109185450D02*
X359140532Y-109899735D01*
X359140532Y-109899735D02*
X358521485Y-109899735D01*
X358950056Y-119821640D02*
X359045294Y-119774021D01*
X359045294Y-119774021D02*
X359092913Y-119726402D01*
X359092913Y-119726402D02*
X359140532Y-119631164D01*
X359140532Y-119631164D02*
X359140532Y-119583545D01*
X359140532Y-119583545D02*
X359092913Y-119488307D01*
X359092913Y-119488307D02*
X359045294Y-119440688D01*
X359045294Y-119440688D02*
X358950056Y-119393069D01*
X358950056Y-119393069D02*
X358759580Y-119393069D01*
X358759580Y-119393069D02*
X358664342Y-119440688D01*
X358664342Y-119440688D02*
X358616723Y-119488307D01*
X358616723Y-119488307D02*
X358569104Y-119583545D01*
X358569104Y-119583545D02*
X358569104Y-119631164D01*
X358569104Y-119631164D02*
X358616723Y-119726402D01*
X358616723Y-119726402D02*
X358664342Y-119774021D01*
X358664342Y-119774021D02*
X358759580Y-119821640D01*
X358759580Y-119821640D02*
X358950056Y-119821640D01*
X358950056Y-119821640D02*
X359045294Y-119869259D01*
X359045294Y-119869259D02*
X359092913Y-119916878D01*
X359092913Y-119916878D02*
X359140532Y-120012116D01*
X359140532Y-120012116D02*
X359140532Y-120202592D01*
X359140532Y-120202592D02*
X359092913Y-120297830D01*
X359092913Y-120297830D02*
X359045294Y-120345450D01*
X359045294Y-120345450D02*
X358950056Y-120393069D01*
X358950056Y-120393069D02*
X358759580Y-120393069D01*
X358759580Y-120393069D02*
X358664342Y-120345450D01*
X358664342Y-120345450D02*
X358616723Y-120297830D01*
X358616723Y-120297830D02*
X358569104Y-120202592D01*
X358569104Y-120202592D02*
X358569104Y-120012116D01*
X358569104Y-120012116D02*
X358616723Y-119916878D01*
X358616723Y-119916878D02*
X358664342Y-119869259D01*
X358664342Y-119869259D02*
X358759580Y-119821640D01*
X359188151Y-116853069D02*
X358521485Y-116853069D01*
X358521485Y-116853069D02*
X358950056Y-117853069D01*
X359188151Y-106693069D02*
X358569104Y-106693069D01*
X358569104Y-106693069D02*
X358902437Y-107074021D01*
X358902437Y-107074021D02*
X358759580Y-107074021D01*
X358759580Y-107074021D02*
X358664342Y-107121640D01*
X358664342Y-107121640D02*
X358616723Y-107169259D01*
X358616723Y-107169259D02*
X358569104Y-107264497D01*
X358569104Y-107264497D02*
X358569104Y-107502592D01*
X358569104Y-107502592D02*
X358616723Y-107597830D01*
X358616723Y-107597830D02*
X358664342Y-107645450D01*
X358664342Y-107645450D02*
X358759580Y-107693069D01*
X358759580Y-107693069D02*
X359045294Y-107693069D01*
X359045294Y-107693069D02*
X359140532Y-107645450D01*
X359140532Y-107645450D02*
X359188151Y-107597830D01*
X337033567Y-122933069D02*
X337604995Y-122933069D01*
X337319281Y-122933069D02*
X337319281Y-121933069D01*
X337319281Y-121933069D02*
X337414519Y-122075926D01*
X337414519Y-122075926D02*
X337509757Y-122171164D01*
X337509757Y-122171164D02*
X337604995Y-122218783D01*
X336414519Y-121933069D02*
X336319281Y-121933069D01*
X336319281Y-121933069D02*
X336224043Y-121980688D01*
X336224043Y-121980688D02*
X336176424Y-122028307D01*
X336176424Y-122028307D02*
X336128805Y-122123545D01*
X336128805Y-122123545D02*
X336081186Y-122314021D01*
X336081186Y-122314021D02*
X336081186Y-122552116D01*
X336081186Y-122552116D02*
X336128805Y-122742592D01*
X336128805Y-122742592D02*
X336176424Y-122837830D01*
X336176424Y-122837830D02*
X336224043Y-122885450D01*
X336224043Y-122885450D02*
X336319281Y-122933069D01*
X336319281Y-122933069D02*
X336414519Y-122933069D01*
X336414519Y-122933069D02*
X336509757Y-122885450D01*
X336509757Y-122885450D02*
X336557376Y-122837830D01*
X336557376Y-122837830D02*
X336604995Y-122742592D01*
X336604995Y-122742592D02*
X336652614Y-122552116D01*
X336652614Y-122552116D02*
X336652614Y-122314021D01*
X336652614Y-122314021D02*
X336604995Y-122123545D01*
X336604995Y-122123545D02*
X336557376Y-122028307D01*
X336557376Y-122028307D02*
X336509757Y-121980688D01*
X336509757Y-121980688D02*
X336414519Y-121933069D01*
X348420382Y-119393067D02*
X347753716Y-119393067D01*
X347753716Y-119393067D02*
X348182287Y-120393067D01*
X358616723Y-111773069D02*
X359092913Y-111773069D01*
X359092913Y-111773069D02*
X359140532Y-112249259D01*
X359140532Y-112249259D02*
X359092913Y-112201640D01*
X359092913Y-112201640D02*
X358997675Y-112154021D01*
X358997675Y-112154021D02*
X358759580Y-112154021D01*
X358759580Y-112154021D02*
X358664342Y-112201640D01*
X358664342Y-112201640D02*
X358616723Y-112249259D01*
X358616723Y-112249259D02*
X358569104Y-112344497D01*
X358569104Y-112344497D02*
X358569104Y-112582592D01*
X358569104Y-112582592D02*
X358616723Y-112677830D01*
X358616723Y-112677830D02*
X358664342Y-112725450D01*
X358664342Y-112725450D02*
X358759580Y-112773069D01*
X358759580Y-112773069D02*
X358997675Y-112773069D01*
X358997675Y-112773069D02*
X359092913Y-112725450D01*
X359092913Y-112725450D02*
X359140532Y-112677830D01*
X337033567Y-115313069D02*
X337604995Y-115313069D01*
X337319281Y-115313069D02*
X337319281Y-114313069D01*
X337319281Y-114313069D02*
X337414519Y-114455926D01*
X337414519Y-114455926D02*
X337509757Y-114551164D01*
X337509757Y-114551164D02*
X337604995Y-114598783D01*
X336128805Y-114313069D02*
X336604995Y-114313069D01*
X336604995Y-114313069D02*
X336652614Y-114789259D01*
X336652614Y-114789259D02*
X336604995Y-114741640D01*
X336604995Y-114741640D02*
X336509757Y-114694021D01*
X336509757Y-114694021D02*
X336271662Y-114694021D01*
X336271662Y-114694021D02*
X336176424Y-114741640D01*
X336176424Y-114741640D02*
X336128805Y-114789259D01*
X336128805Y-114789259D02*
X336081186Y-114884497D01*
X336081186Y-114884497D02*
X336081186Y-115122592D01*
X336081186Y-115122592D02*
X336128805Y-115217830D01*
X336128805Y-115217830D02*
X336176424Y-115265450D01*
X336176424Y-115265450D02*
X336271662Y-115313069D01*
X336271662Y-115313069D02*
X336509757Y-115313069D01*
X336509757Y-115313069D02*
X336604995Y-115265450D01*
X336604995Y-115265450D02*
X336652614Y-115217830D01*
X358664342Y-114313069D02*
X358854818Y-114313069D01*
X358854818Y-114313069D02*
X358950056Y-114360688D01*
X358950056Y-114360688D02*
X358997675Y-114408307D01*
X358997675Y-114408307D02*
X359092913Y-114551164D01*
X359092913Y-114551164D02*
X359140532Y-114741640D01*
X359140532Y-114741640D02*
X359140532Y-115122592D01*
X359140532Y-115122592D02*
X359092913Y-115217830D01*
X359092913Y-115217830D02*
X359045294Y-115265450D01*
X359045294Y-115265450D02*
X358950056Y-115313069D01*
X358950056Y-115313069D02*
X358759580Y-115313069D01*
X358759580Y-115313069D02*
X358664342Y-115265450D01*
X358664342Y-115265450D02*
X358616723Y-115217830D01*
X358616723Y-115217830D02*
X358569104Y-115122592D01*
X358569104Y-115122592D02*
X358569104Y-114884497D01*
X358569104Y-114884497D02*
X358616723Y-114789259D01*
X358616723Y-114789259D02*
X358664342Y-114741640D01*
X358664342Y-114741640D02*
X358759580Y-114694021D01*
X358759580Y-114694021D02*
X358950056Y-114694021D01*
X358950056Y-114694021D02*
X359045294Y-114741640D01*
X359045294Y-114741640D02*
X359092913Y-114789259D01*
X359092913Y-114789259D02*
X359140532Y-114884497D01*
X359140532Y-104248307D02*
X359092913Y-104200688D01*
X359092913Y-104200688D02*
X358997675Y-104153069D01*
X358997675Y-104153069D02*
X358759580Y-104153069D01*
X358759580Y-104153069D02*
X358664342Y-104200688D01*
X358664342Y-104200688D02*
X358616723Y-104248307D01*
X358616723Y-104248307D02*
X358569104Y-104343545D01*
X358569104Y-104343545D02*
X358569104Y-104438783D01*
X358569104Y-104438783D02*
X358616723Y-104581640D01*
X358616723Y-104581640D02*
X359188151Y-105153069D01*
X359188151Y-105153069D02*
X358569104Y-105153069D01*
X352881335Y-120393069D02*
X353452763Y-120393069D01*
X353167049Y-120393069D02*
X353167049Y-119393069D01*
X353167049Y-119393069D02*
X353262287Y-119535926D01*
X353262287Y-119535926D02*
X353357525Y-119631164D01*
X353357525Y-119631164D02*
X353452763Y-119678783D01*
X358902437Y-96533069D02*
X358807199Y-96533069D01*
X358807199Y-96533069D02*
X358711961Y-96580688D01*
X358711961Y-96580688D02*
X358664342Y-96628307D01*
X358664342Y-96628307D02*
X358616723Y-96723545D01*
X358616723Y-96723545D02*
X358569104Y-96914021D01*
X358569104Y-96914021D02*
X358569104Y-97152116D01*
X358569104Y-97152116D02*
X358616723Y-97342592D01*
X358616723Y-97342592D02*
X358664342Y-97437830D01*
X358664342Y-97437830D02*
X358711961Y-97485450D01*
X358711961Y-97485450D02*
X358807199Y-97533069D01*
X358807199Y-97533069D02*
X358902437Y-97533069D01*
X358902437Y-97533069D02*
X358997675Y-97485450D01*
X358997675Y-97485450D02*
X359045294Y-97437830D01*
X359045294Y-97437830D02*
X359092913Y-97342592D01*
X359092913Y-97342592D02*
X359140532Y-97152116D01*
X359140532Y-97152116D02*
X359140532Y-96914021D01*
X359140532Y-96914021D02*
X359092913Y-96723545D01*
X359092913Y-96723545D02*
X359045294Y-96628307D01*
X359045294Y-96628307D02*
X358997675Y-96580688D01*
X358997675Y-96580688D02*
X358902437Y-96533069D01*
X337033567Y-117853069D02*
X337604995Y-117853069D01*
X337319281Y-117853069D02*
X337319281Y-116853069D01*
X337319281Y-116853069D02*
X337414519Y-116995926D01*
X337414519Y-116995926D02*
X337509757Y-117091164D01*
X337509757Y-117091164D02*
X337604995Y-117138783D01*
X336176424Y-117186402D02*
X336176424Y-117853069D01*
X336414519Y-116805450D02*
X336652614Y-117519735D01*
X336652614Y-117519735D02*
X336033567Y-117519735D01*
X337033567Y-120393069D02*
X337604995Y-120393069D01*
X337319281Y-120393069D02*
X337319281Y-119393069D01*
X337319281Y-119393069D02*
X337414519Y-119535926D01*
X337414519Y-119535926D02*
X337509757Y-119631164D01*
X337509757Y-119631164D02*
X337604995Y-119678783D01*
X336176424Y-119393069D02*
X336366900Y-119393069D01*
X336366900Y-119393069D02*
X336462138Y-119440688D01*
X336462138Y-119440688D02*
X336509757Y-119488307D01*
X336509757Y-119488307D02*
X336604995Y-119631164D01*
X336604995Y-119631164D02*
X336652614Y-119821640D01*
X336652614Y-119821640D02*
X336652614Y-120202592D01*
X336652614Y-120202592D02*
X336604995Y-120297830D01*
X336604995Y-120297830D02*
X336557376Y-120345450D01*
X336557376Y-120345450D02*
X336462138Y-120393069D01*
X336462138Y-120393069D02*
X336271662Y-120393069D01*
X336271662Y-120393069D02*
X336176424Y-120345450D01*
X336176424Y-120345450D02*
X336128805Y-120297830D01*
X336128805Y-120297830D02*
X336081186Y-120202592D01*
X336081186Y-120202592D02*
X336081186Y-119964497D01*
X336081186Y-119964497D02*
X336128805Y-119869259D01*
X336128805Y-119869259D02*
X336176424Y-119821640D01*
X336176424Y-119821640D02*
X336271662Y-119774021D01*
X336271662Y-119774021D02*
X336462138Y-119774021D01*
X336462138Y-119774021D02*
X336557376Y-119821640D01*
X336557376Y-119821640D02*
X336604995Y-119869259D01*
X336604995Y-119869259D02*
X336652614Y-119964497D01*
X337604995Y-104248307D02*
X337557376Y-104200688D01*
X337557376Y-104200688D02*
X337462138Y-104153069D01*
X337462138Y-104153069D02*
X337224043Y-104153069D01*
X337224043Y-104153069D02*
X337128805Y-104200688D01*
X337128805Y-104200688D02*
X337081186Y-104248307D01*
X337081186Y-104248307D02*
X337033567Y-104343545D01*
X337033567Y-104343545D02*
X337033567Y-104438783D01*
X337033567Y-104438783D02*
X337081186Y-104581640D01*
X337081186Y-104581640D02*
X337652614Y-105153069D01*
X337652614Y-105153069D02*
X337033567Y-105153069D01*
X336081186Y-105153069D02*
X336652614Y-105153069D01*
X336366900Y-105153069D02*
X336366900Y-104153069D01*
X336366900Y-104153069D02*
X336462138Y-104295926D01*
X336462138Y-104295926D02*
X336557376Y-104391164D01*
X336557376Y-104391164D02*
X336652614Y-104438783D01*
X337604995Y-106788307D02*
X337557376Y-106740688D01*
X337557376Y-106740688D02*
X337462138Y-106693069D01*
X337462138Y-106693069D02*
X337224043Y-106693069D01*
X337224043Y-106693069D02*
X337128805Y-106740688D01*
X337128805Y-106740688D02*
X337081186Y-106788307D01*
X337081186Y-106788307D02*
X337033567Y-106883545D01*
X337033567Y-106883545D02*
X337033567Y-106978783D01*
X337033567Y-106978783D02*
X337081186Y-107121640D01*
X337081186Y-107121640D02*
X337652614Y-107693069D01*
X337652614Y-107693069D02*
X337033567Y-107693069D01*
X336414519Y-106693069D02*
X336319281Y-106693069D01*
X336319281Y-106693069D02*
X336224043Y-106740688D01*
X336224043Y-106740688D02*
X336176424Y-106788307D01*
X336176424Y-106788307D02*
X336128805Y-106883545D01*
X336128805Y-106883545D02*
X336081186Y-107074021D01*
X336081186Y-107074021D02*
X336081186Y-107312116D01*
X336081186Y-107312116D02*
X336128805Y-107502592D01*
X336128805Y-107502592D02*
X336176424Y-107597830D01*
X336176424Y-107597830D02*
X336224043Y-107645450D01*
X336224043Y-107645450D02*
X336319281Y-107693069D01*
X336319281Y-107693069D02*
X336414519Y-107693069D01*
X336414519Y-107693069D02*
X336509757Y-107645450D01*
X336509757Y-107645450D02*
X336557376Y-107597830D01*
X336557376Y-107597830D02*
X336604995Y-107502592D01*
X336604995Y-107502592D02*
X336652614Y-107312116D01*
X336652614Y-107312116D02*
X336652614Y-107074021D01*
X336652614Y-107074021D02*
X336604995Y-106883545D01*
X336604995Y-106883545D02*
X336557376Y-106788307D01*
X336557376Y-106788307D02*
X336509757Y-106740688D01*
X336509757Y-106740688D02*
X336414519Y-106693069D01*
X337652614Y-101613069D02*
X337033567Y-101613069D01*
X337033567Y-101613069D02*
X337366900Y-101994021D01*
X337366900Y-101994021D02*
X337224043Y-101994021D01*
X337224043Y-101994021D02*
X337128805Y-102041640D01*
X337128805Y-102041640D02*
X337081186Y-102089259D01*
X337081186Y-102089259D02*
X337033567Y-102184497D01*
X337033567Y-102184497D02*
X337033567Y-102422592D01*
X337033567Y-102422592D02*
X337081186Y-102517830D01*
X337081186Y-102517830D02*
X337128805Y-102565450D01*
X337128805Y-102565450D02*
X337224043Y-102613069D01*
X337224043Y-102613069D02*
X337509757Y-102613069D01*
X337509757Y-102613069D02*
X337604995Y-102565450D01*
X337604995Y-102565450D02*
X337652614Y-102517830D01*
X336604995Y-102517830D02*
X336557376Y-102565450D01*
X336557376Y-102565450D02*
X336604995Y-102613069D01*
X336604995Y-102613069D02*
X336652614Y-102565450D01*
X336652614Y-102565450D02*
X336604995Y-102517830D01*
X336604995Y-102517830D02*
X336604995Y-102613069D01*
X336224043Y-101613069D02*
X335604996Y-101613069D01*
X335604996Y-101613069D02*
X335938329Y-101994021D01*
X335938329Y-101994021D02*
X335795472Y-101994021D01*
X335795472Y-101994021D02*
X335700234Y-102041640D01*
X335700234Y-102041640D02*
X335652615Y-102089259D01*
X335652615Y-102089259D02*
X335604996Y-102184497D01*
X335604996Y-102184497D02*
X335604996Y-102422592D01*
X335604996Y-102422592D02*
X335652615Y-102517830D01*
X335652615Y-102517830D02*
X335700234Y-102565450D01*
X335700234Y-102565450D02*
X335795472Y-102613069D01*
X335795472Y-102613069D02*
X336081186Y-102613069D01*
X336081186Y-102613069D02*
X336176424Y-102565450D01*
X336176424Y-102565450D02*
X336224043Y-102517830D01*
X335271662Y-101946402D02*
X335033567Y-102613069D01*
X335033567Y-102613069D02*
X334795472Y-101946402D01*
X337224043Y-94469259D02*
X337081186Y-94516878D01*
X337081186Y-94516878D02*
X337033567Y-94564497D01*
X337033567Y-94564497D02*
X336985948Y-94659735D01*
X336985948Y-94659735D02*
X336985948Y-94802592D01*
X336985948Y-94802592D02*
X337033567Y-94897830D01*
X337033567Y-94897830D02*
X337081186Y-94945450D01*
X337081186Y-94945450D02*
X337176424Y-94993069D01*
X337176424Y-94993069D02*
X337557376Y-94993069D01*
X337557376Y-94993069D02*
X337557376Y-93993069D01*
X337557376Y-93993069D02*
X337224043Y-93993069D01*
X337224043Y-93993069D02*
X337128805Y-94040688D01*
X337128805Y-94040688D02*
X337081186Y-94088307D01*
X337081186Y-94088307D02*
X337033567Y-94183545D01*
X337033567Y-94183545D02*
X337033567Y-94278783D01*
X337033567Y-94278783D02*
X337081186Y-94374021D01*
X337081186Y-94374021D02*
X337128805Y-94421640D01*
X337128805Y-94421640D02*
X337224043Y-94469259D01*
X337224043Y-94469259D02*
X337557376Y-94469259D01*
X336557376Y-94612116D02*
X335795472Y-94612116D01*
X336176424Y-94993069D02*
X336176424Y-94231164D01*
X359045294Y-122933069D02*
X358854818Y-122933069D01*
X358854818Y-122933069D02*
X358759580Y-122885450D01*
X358759580Y-122885450D02*
X358711961Y-122837830D01*
X358711961Y-122837830D02*
X358616723Y-122694973D01*
X358616723Y-122694973D02*
X358569104Y-122504497D01*
X358569104Y-122504497D02*
X358569104Y-122123545D01*
X358569104Y-122123545D02*
X358616723Y-122028307D01*
X358616723Y-122028307D02*
X358664342Y-121980688D01*
X358664342Y-121980688D02*
X358759580Y-121933069D01*
X358759580Y-121933069D02*
X358950056Y-121933069D01*
X358950056Y-121933069D02*
X359045294Y-121980688D01*
X359045294Y-121980688D02*
X359092913Y-122028307D01*
X359092913Y-122028307D02*
X359140532Y-122123545D01*
X359140532Y-122123545D02*
X359140532Y-122361640D01*
X359140532Y-122361640D02*
X359092913Y-122456878D01*
X359092913Y-122456878D02*
X359045294Y-122504497D01*
X359045294Y-122504497D02*
X358950056Y-122552116D01*
X358950056Y-122552116D02*
X358759580Y-122552116D01*
X358759580Y-122552116D02*
X358664342Y-122504497D01*
X358664342Y-122504497D02*
X358616723Y-122456878D01*
X358616723Y-122456878D02*
X358569104Y-122361640D01*
X358569104Y-94993069D02*
X359140532Y-94993069D01*
X358854818Y-94993069D02*
X358854818Y-93993069D01*
X358854818Y-93993069D02*
X358950056Y-94135926D01*
X358950056Y-94135926D02*
X359045294Y-94231164D01*
X359045294Y-94231164D02*
X359140532Y-94278783D01*
X337033567Y-110233069D02*
X337604995Y-110233069D01*
X337319281Y-110233069D02*
X337319281Y-109233069D01*
X337319281Y-109233069D02*
X337414519Y-109375926D01*
X337414519Y-109375926D02*
X337509757Y-109471164D01*
X337509757Y-109471164D02*
X337604995Y-109518783D01*
X336557376Y-110233069D02*
X336366900Y-110233069D01*
X336366900Y-110233069D02*
X336271662Y-110185450D01*
X336271662Y-110185450D02*
X336224043Y-110137830D01*
X336224043Y-110137830D02*
X336128805Y-109994973D01*
X336128805Y-109994973D02*
X336081186Y-109804497D01*
X336081186Y-109804497D02*
X336081186Y-109423545D01*
X336081186Y-109423545D02*
X336128805Y-109328307D01*
X336128805Y-109328307D02*
X336176424Y-109280688D01*
X336176424Y-109280688D02*
X336271662Y-109233069D01*
X336271662Y-109233069D02*
X336462138Y-109233069D01*
X336462138Y-109233069D02*
X336557376Y-109280688D01*
X336557376Y-109280688D02*
X336604995Y-109328307D01*
X336604995Y-109328307D02*
X336652614Y-109423545D01*
X336652614Y-109423545D02*
X336652614Y-109661640D01*
X336652614Y-109661640D02*
X336604995Y-109756878D01*
X336604995Y-109756878D02*
X336557376Y-109804497D01*
X336557376Y-109804497D02*
X336462138Y-109852116D01*
X336462138Y-109852116D02*
X336271662Y-109852116D01*
X336271662Y-109852116D02*
X336176424Y-109804497D01*
X336176424Y-109804497D02*
X336128805Y-109756878D01*
X336128805Y-109756878D02*
X336081186Y-109661640D01*
D11*
X265028210Y-151314419D02*
X265028210Y-150314419D01*
X265028210Y-150314419D02*
X264790115Y-150314419D01*
X264790115Y-150314419D02*
X264647258Y-150362038D01*
X264647258Y-150362038D02*
X264552020Y-150457276D01*
X264552020Y-150457276D02*
X264504401Y-150552514D01*
X264504401Y-150552514D02*
X264456782Y-150742990D01*
X264456782Y-150742990D02*
X264456782Y-150885847D01*
X264456782Y-150885847D02*
X264504401Y-151076323D01*
X264504401Y-151076323D02*
X264552020Y-151171561D01*
X264552020Y-151171561D02*
X264647258Y-151266800D01*
X264647258Y-151266800D02*
X264790115Y-151314419D01*
X264790115Y-151314419D02*
X265028210Y-151314419D01*
X263599639Y-150647752D02*
X263599639Y-151314419D01*
X263837734Y-150266800D02*
X264075829Y-150981085D01*
X264075829Y-150981085D02*
X263456782Y-150981085D01*
X262647258Y-150314419D02*
X262837734Y-150314419D01*
X262837734Y-150314419D02*
X262932972Y-150362038D01*
X262932972Y-150362038D02*
X262980591Y-150409657D01*
X262980591Y-150409657D02*
X263075829Y-150552514D01*
X263075829Y-150552514D02*
X263123448Y-150742990D01*
X263123448Y-150742990D02*
X263123448Y-151123942D01*
X263123448Y-151123942D02*
X263075829Y-151219180D01*
X263075829Y-151219180D02*
X263028210Y-151266800D01*
X263028210Y-151266800D02*
X262932972Y-151314419D01*
X262932972Y-151314419D02*
X262742496Y-151314419D01*
X262742496Y-151314419D02*
X262647258Y-151266800D01*
X262647258Y-151266800D02*
X262599639Y-151219180D01*
X262599639Y-151219180D02*
X262552020Y-151123942D01*
X262552020Y-151123942D02*
X262552020Y-150885847D01*
X262552020Y-150885847D02*
X262599639Y-150790609D01*
X262599639Y-150790609D02*
X262647258Y-150742990D01*
X262647258Y-150742990D02*
X262742496Y-150695371D01*
X262742496Y-150695371D02*
X262932972Y-150695371D01*
X262932972Y-150695371D02*
X263028210Y-150742990D01*
X263028210Y-150742990D02*
X263075829Y-150790609D01*
X263075829Y-150790609D02*
X263123448Y-150885847D01*
X326940710Y-94164419D02*
X326940710Y-93164419D01*
X326940710Y-93164419D02*
X326702615Y-93164419D01*
X326702615Y-93164419D02*
X326559758Y-93212038D01*
X326559758Y-93212038D02*
X326464520Y-93307276D01*
X326464520Y-93307276D02*
X326416901Y-93402514D01*
X326416901Y-93402514D02*
X326369282Y-93592990D01*
X326369282Y-93592990D02*
X326369282Y-93735847D01*
X326369282Y-93735847D02*
X326416901Y-93926323D01*
X326416901Y-93926323D02*
X326464520Y-94021561D01*
X326464520Y-94021561D02*
X326559758Y-94116800D01*
X326559758Y-94116800D02*
X326702615Y-94164419D01*
X326702615Y-94164419D02*
X326940710Y-94164419D01*
X325464520Y-93164419D02*
X325940710Y-93164419D01*
X325940710Y-93164419D02*
X325988329Y-93640609D01*
X325988329Y-93640609D02*
X325940710Y-93592990D01*
X325940710Y-93592990D02*
X325845472Y-93545371D01*
X325845472Y-93545371D02*
X325607377Y-93545371D01*
X325607377Y-93545371D02*
X325512139Y-93592990D01*
X325512139Y-93592990D02*
X325464520Y-93640609D01*
X325464520Y-93640609D02*
X325416901Y-93735847D01*
X325416901Y-93735847D02*
X325416901Y-93973942D01*
X325416901Y-93973942D02*
X325464520Y-94069180D01*
X325464520Y-94069180D02*
X325512139Y-94116800D01*
X325512139Y-94116800D02*
X325607377Y-94164419D01*
X325607377Y-94164419D02*
X325845472Y-94164419D01*
X325845472Y-94164419D02*
X325940710Y-94116800D01*
X325940710Y-94116800D02*
X325988329Y-94069180D01*
X324845472Y-93592990D02*
X324940710Y-93545371D01*
X324940710Y-93545371D02*
X324988329Y-93497752D01*
X324988329Y-93497752D02*
X325035948Y-93402514D01*
X325035948Y-93402514D02*
X325035948Y-93354895D01*
X325035948Y-93354895D02*
X324988329Y-93259657D01*
X324988329Y-93259657D02*
X324940710Y-93212038D01*
X324940710Y-93212038D02*
X324845472Y-93164419D01*
X324845472Y-93164419D02*
X324654996Y-93164419D01*
X324654996Y-93164419D02*
X324559758Y-93212038D01*
X324559758Y-93212038D02*
X324512139Y-93259657D01*
X324512139Y-93259657D02*
X324464520Y-93354895D01*
X324464520Y-93354895D02*
X324464520Y-93402514D01*
X324464520Y-93402514D02*
X324512139Y-93497752D01*
X324512139Y-93497752D02*
X324559758Y-93545371D01*
X324559758Y-93545371D02*
X324654996Y-93592990D01*
X324654996Y-93592990D02*
X324845472Y-93592990D01*
X324845472Y-93592990D02*
X324940710Y-93640609D01*
X324940710Y-93640609D02*
X324988329Y-93688228D01*
X324988329Y-93688228D02*
X325035948Y-93783466D01*
X325035948Y-93783466D02*
X325035948Y-93973942D01*
X325035948Y-93973942D02*
X324988329Y-94069180D01*
X324988329Y-94069180D02*
X324940710Y-94116800D01*
X324940710Y-94116800D02*
X324845472Y-94164419D01*
X324845472Y-94164419D02*
X324654996Y-94164419D01*
X324654996Y-94164419D02*
X324559758Y-94116800D01*
X324559758Y-94116800D02*
X324512139Y-94069180D01*
X324512139Y-94069180D02*
X324464520Y-93973942D01*
X324464520Y-93973942D02*
X324464520Y-93783466D01*
X324464520Y-93783466D02*
X324512139Y-93688228D01*
X324512139Y-93688228D02*
X324559758Y-93640609D01*
X324559758Y-93640609D02*
X324654996Y-93592990D01*
X288840710Y-113214419D02*
X288840710Y-112214419D01*
X288840710Y-112214419D02*
X288602615Y-112214419D01*
X288602615Y-112214419D02*
X288459758Y-112262038D01*
X288459758Y-112262038D02*
X288364520Y-112357276D01*
X288364520Y-112357276D02*
X288316901Y-112452514D01*
X288316901Y-112452514D02*
X288269282Y-112642990D01*
X288269282Y-112642990D02*
X288269282Y-112785847D01*
X288269282Y-112785847D02*
X288316901Y-112976323D01*
X288316901Y-112976323D02*
X288364520Y-113071561D01*
X288364520Y-113071561D02*
X288459758Y-113166800D01*
X288459758Y-113166800D02*
X288602615Y-113214419D01*
X288602615Y-113214419D02*
X288840710Y-113214419D01*
X287412139Y-112547752D02*
X287412139Y-113214419D01*
X287650234Y-112166800D02*
X287888329Y-112881085D01*
X287888329Y-112881085D02*
X287269282Y-112881085D01*
X286840710Y-113214419D02*
X286650234Y-113214419D01*
X286650234Y-113214419D02*
X286554996Y-113166800D01*
X286554996Y-113166800D02*
X286507377Y-113119180D01*
X286507377Y-113119180D02*
X286412139Y-112976323D01*
X286412139Y-112976323D02*
X286364520Y-112785847D01*
X286364520Y-112785847D02*
X286364520Y-112404895D01*
X286364520Y-112404895D02*
X286412139Y-112309657D01*
X286412139Y-112309657D02*
X286459758Y-112262038D01*
X286459758Y-112262038D02*
X286554996Y-112214419D01*
X286554996Y-112214419D02*
X286745472Y-112214419D01*
X286745472Y-112214419D02*
X286840710Y-112262038D01*
X286840710Y-112262038D02*
X286888329Y-112309657D01*
X286888329Y-112309657D02*
X286935948Y-112404895D01*
X286935948Y-112404895D02*
X286935948Y-112642990D01*
X286935948Y-112642990D02*
X286888329Y-112738228D01*
X286888329Y-112738228D02*
X286840710Y-112785847D01*
X286840710Y-112785847D02*
X286745472Y-112833466D01*
X286745472Y-112833466D02*
X286554996Y-112833466D01*
X286554996Y-112833466D02*
X286459758Y-112785847D01*
X286459758Y-112785847D02*
X286412139Y-112738228D01*
X286412139Y-112738228D02*
X286364520Y-112642990D01*
X355515710Y-170530044D02*
X355515710Y-169530044D01*
X355515710Y-169530044D02*
X355277615Y-169530044D01*
X355277615Y-169530044D02*
X355134758Y-169577663D01*
X355134758Y-169577663D02*
X355039520Y-169672901D01*
X355039520Y-169672901D02*
X354991901Y-169768139D01*
X354991901Y-169768139D02*
X354944282Y-169958615D01*
X354944282Y-169958615D02*
X354944282Y-170101472D01*
X354944282Y-170101472D02*
X354991901Y-170291948D01*
X354991901Y-170291948D02*
X355039520Y-170387186D01*
X355039520Y-170387186D02*
X355134758Y-170482425D01*
X355134758Y-170482425D02*
X355277615Y-170530044D01*
X355277615Y-170530044D02*
X355515710Y-170530044D01*
X354087139Y-169530044D02*
X354277615Y-169530044D01*
X354277615Y-169530044D02*
X354372853Y-169577663D01*
X354372853Y-169577663D02*
X354420472Y-169625282D01*
X354420472Y-169625282D02*
X354515710Y-169768139D01*
X354515710Y-169768139D02*
X354563329Y-169958615D01*
X354563329Y-169958615D02*
X354563329Y-170339567D01*
X354563329Y-170339567D02*
X354515710Y-170434805D01*
X354515710Y-170434805D02*
X354468091Y-170482425D01*
X354468091Y-170482425D02*
X354372853Y-170530044D01*
X354372853Y-170530044D02*
X354182377Y-170530044D01*
X354182377Y-170530044D02*
X354087139Y-170482425D01*
X354087139Y-170482425D02*
X354039520Y-170434805D01*
X354039520Y-170434805D02*
X353991901Y-170339567D01*
X353991901Y-170339567D02*
X353991901Y-170101472D01*
X353991901Y-170101472D02*
X354039520Y-170006234D01*
X354039520Y-170006234D02*
X354087139Y-169958615D01*
X354087139Y-169958615D02*
X354182377Y-169910996D01*
X354182377Y-169910996D02*
X354372853Y-169910996D01*
X354372853Y-169910996D02*
X354468091Y-169958615D01*
X354468091Y-169958615D02*
X354515710Y-170006234D01*
X354515710Y-170006234D02*
X354563329Y-170101472D01*
X353134758Y-169863377D02*
X353134758Y-170530044D01*
X353372853Y-169482425D02*
X353610948Y-170196710D01*
X353610948Y-170196710D02*
X352991901Y-170196710D01*
X274553210Y-132430044D02*
X274553210Y-131430044D01*
X274553210Y-131430044D02*
X274315115Y-131430044D01*
X274315115Y-131430044D02*
X274172258Y-131477663D01*
X274172258Y-131477663D02*
X274077020Y-131572901D01*
X274077020Y-131572901D02*
X274029401Y-131668139D01*
X274029401Y-131668139D02*
X273981782Y-131858615D01*
X273981782Y-131858615D02*
X273981782Y-132001472D01*
X273981782Y-132001472D02*
X274029401Y-132191948D01*
X274029401Y-132191948D02*
X274077020Y-132287186D01*
X274077020Y-132287186D02*
X274172258Y-132382425D01*
X274172258Y-132382425D02*
X274315115Y-132430044D01*
X274315115Y-132430044D02*
X274553210Y-132430044D01*
X273077020Y-131430044D02*
X273553210Y-131430044D01*
X273553210Y-131430044D02*
X273600829Y-131906234D01*
X273600829Y-131906234D02*
X273553210Y-131858615D01*
X273553210Y-131858615D02*
X273457972Y-131810996D01*
X273457972Y-131810996D02*
X273219877Y-131810996D01*
X273219877Y-131810996D02*
X273124639Y-131858615D01*
X273124639Y-131858615D02*
X273077020Y-131906234D01*
X273077020Y-131906234D02*
X273029401Y-132001472D01*
X273029401Y-132001472D02*
X273029401Y-132239567D01*
X273029401Y-132239567D02*
X273077020Y-132334805D01*
X273077020Y-132334805D02*
X273124639Y-132382425D01*
X273124639Y-132382425D02*
X273219877Y-132430044D01*
X273219877Y-132430044D02*
X273457972Y-132430044D01*
X273457972Y-132430044D02*
X273553210Y-132382425D01*
X273553210Y-132382425D02*
X273600829Y-132334805D01*
X272410353Y-131430044D02*
X272315115Y-131430044D01*
X272315115Y-131430044D02*
X272219877Y-131477663D01*
X272219877Y-131477663D02*
X272172258Y-131525282D01*
X272172258Y-131525282D02*
X272124639Y-131620520D01*
X272124639Y-131620520D02*
X272077020Y-131810996D01*
X272077020Y-131810996D02*
X272077020Y-132049091D01*
X272077020Y-132049091D02*
X272124639Y-132239567D01*
X272124639Y-132239567D02*
X272172258Y-132334805D01*
X272172258Y-132334805D02*
X272219877Y-132382425D01*
X272219877Y-132382425D02*
X272315115Y-132430044D01*
X272315115Y-132430044D02*
X272410353Y-132430044D01*
X272410353Y-132430044D02*
X272505591Y-132382425D01*
X272505591Y-132382425D02*
X272553210Y-132334805D01*
X272553210Y-132334805D02*
X272600829Y-132239567D01*
X272600829Y-132239567D02*
X272648448Y-132049091D01*
X272648448Y-132049091D02*
X272648448Y-131810996D01*
X272648448Y-131810996D02*
X272600829Y-131620520D01*
X272600829Y-131620520D02*
X272553210Y-131525282D01*
X272553210Y-131525282D02*
X272505591Y-131477663D01*
X272505591Y-131477663D02*
X272410353Y-131430044D01*
X310271960Y-151314419D02*
X310271960Y-150314419D01*
X310271960Y-150314419D02*
X310033865Y-150314419D01*
X310033865Y-150314419D02*
X309891008Y-150362038D01*
X309891008Y-150362038D02*
X309795770Y-150457276D01*
X309795770Y-150457276D02*
X309748151Y-150552514D01*
X309748151Y-150552514D02*
X309700532Y-150742990D01*
X309700532Y-150742990D02*
X309700532Y-150885847D01*
X309700532Y-150885847D02*
X309748151Y-151076323D01*
X309748151Y-151076323D02*
X309795770Y-151171561D01*
X309795770Y-151171561D02*
X309891008Y-151266800D01*
X309891008Y-151266800D02*
X310033865Y-151314419D01*
X310033865Y-151314419D02*
X310271960Y-151314419D01*
X308795770Y-150314419D02*
X309271960Y-150314419D01*
X309271960Y-150314419D02*
X309319579Y-150790609D01*
X309319579Y-150790609D02*
X309271960Y-150742990D01*
X309271960Y-150742990D02*
X309176722Y-150695371D01*
X309176722Y-150695371D02*
X308938627Y-150695371D01*
X308938627Y-150695371D02*
X308843389Y-150742990D01*
X308843389Y-150742990D02*
X308795770Y-150790609D01*
X308795770Y-150790609D02*
X308748151Y-150885847D01*
X308748151Y-150885847D02*
X308748151Y-151123942D01*
X308748151Y-151123942D02*
X308795770Y-151219180D01*
X308795770Y-151219180D02*
X308843389Y-151266800D01*
X308843389Y-151266800D02*
X308938627Y-151314419D01*
X308938627Y-151314419D02*
X309176722Y-151314419D01*
X309176722Y-151314419D02*
X309271960Y-151266800D01*
X309271960Y-151266800D02*
X309319579Y-151219180D01*
X307891008Y-150314419D02*
X308081484Y-150314419D01*
X308081484Y-150314419D02*
X308176722Y-150362038D01*
X308176722Y-150362038D02*
X308224341Y-150409657D01*
X308224341Y-150409657D02*
X308319579Y-150552514D01*
X308319579Y-150552514D02*
X308367198Y-150742990D01*
X308367198Y-150742990D02*
X308367198Y-151123942D01*
X308367198Y-151123942D02*
X308319579Y-151219180D01*
X308319579Y-151219180D02*
X308271960Y-151266800D01*
X308271960Y-151266800D02*
X308176722Y-151314419D01*
X308176722Y-151314419D02*
X307986246Y-151314419D01*
X307986246Y-151314419D02*
X307891008Y-151266800D01*
X307891008Y-151266800D02*
X307843389Y-151219180D01*
X307843389Y-151219180D02*
X307795770Y-151123942D01*
X307795770Y-151123942D02*
X307795770Y-150885847D01*
X307795770Y-150885847D02*
X307843389Y-150790609D01*
X307843389Y-150790609D02*
X307891008Y-150742990D01*
X307891008Y-150742990D02*
X307986246Y-150695371D01*
X307986246Y-150695371D02*
X308176722Y-150695371D01*
X308176722Y-150695371D02*
X308271960Y-150742990D01*
X308271960Y-150742990D02*
X308319579Y-150790609D01*
X308319579Y-150790609D02*
X308367198Y-150885847D01*
X250740710Y-113380044D02*
X250740710Y-112380044D01*
X250740710Y-112380044D02*
X250502615Y-112380044D01*
X250502615Y-112380044D02*
X250359758Y-112427663D01*
X250359758Y-112427663D02*
X250264520Y-112522901D01*
X250264520Y-112522901D02*
X250216901Y-112618139D01*
X250216901Y-112618139D02*
X250169282Y-112808615D01*
X250169282Y-112808615D02*
X250169282Y-112951472D01*
X250169282Y-112951472D02*
X250216901Y-113141948D01*
X250216901Y-113141948D02*
X250264520Y-113237186D01*
X250264520Y-113237186D02*
X250359758Y-113332425D01*
X250359758Y-113332425D02*
X250502615Y-113380044D01*
X250502615Y-113380044D02*
X250740710Y-113380044D01*
X249312139Y-112713377D02*
X249312139Y-113380044D01*
X249550234Y-112332425D02*
X249788329Y-113046710D01*
X249788329Y-113046710D02*
X249169282Y-113046710D01*
X248597853Y-112380044D02*
X248502615Y-112380044D01*
X248502615Y-112380044D02*
X248407377Y-112427663D01*
X248407377Y-112427663D02*
X248359758Y-112475282D01*
X248359758Y-112475282D02*
X248312139Y-112570520D01*
X248312139Y-112570520D02*
X248264520Y-112760996D01*
X248264520Y-112760996D02*
X248264520Y-112999091D01*
X248264520Y-112999091D02*
X248312139Y-113189567D01*
X248312139Y-113189567D02*
X248359758Y-113284805D01*
X248359758Y-113284805D02*
X248407377Y-113332425D01*
X248407377Y-113332425D02*
X248502615Y-113380044D01*
X248502615Y-113380044D02*
X248597853Y-113380044D01*
X248597853Y-113380044D02*
X248693091Y-113332425D01*
X248693091Y-113332425D02*
X248740710Y-113284805D01*
X248740710Y-113284805D02*
X248788329Y-113189567D01*
X248788329Y-113189567D02*
X248835948Y-112999091D01*
X248835948Y-112999091D02*
X248835948Y-112760996D01*
X248835948Y-112760996D02*
X248788329Y-112570520D01*
X248788329Y-112570520D02*
X248740710Y-112475282D01*
X248740710Y-112475282D02*
X248693091Y-112427663D01*
X248693091Y-112427663D02*
X248597853Y-112380044D01*
X107389519Y-94330044D02*
X107389519Y-93330044D01*
X107389519Y-93330044D02*
X107151424Y-93330044D01*
X107151424Y-93330044D02*
X107008567Y-93377663D01*
X107008567Y-93377663D02*
X106913329Y-93472901D01*
X106913329Y-93472901D02*
X106865710Y-93568139D01*
X106865710Y-93568139D02*
X106818091Y-93758615D01*
X106818091Y-93758615D02*
X106818091Y-93901472D01*
X106818091Y-93901472D02*
X106865710Y-94091948D01*
X106865710Y-94091948D02*
X106913329Y-94187186D01*
X106913329Y-94187186D02*
X107008567Y-94282425D01*
X107008567Y-94282425D02*
X107151424Y-94330044D01*
X107151424Y-94330044D02*
X107389519Y-94330044D01*
X106341900Y-94330044D02*
X106151424Y-94330044D01*
X106151424Y-94330044D02*
X106056186Y-94282425D01*
X106056186Y-94282425D02*
X106008567Y-94234805D01*
X106008567Y-94234805D02*
X105913329Y-94091948D01*
X105913329Y-94091948D02*
X105865710Y-93901472D01*
X105865710Y-93901472D02*
X105865710Y-93520520D01*
X105865710Y-93520520D02*
X105913329Y-93425282D01*
X105913329Y-93425282D02*
X105960948Y-93377663D01*
X105960948Y-93377663D02*
X106056186Y-93330044D01*
X106056186Y-93330044D02*
X106246662Y-93330044D01*
X106246662Y-93330044D02*
X106341900Y-93377663D01*
X106341900Y-93377663D02*
X106389519Y-93425282D01*
X106389519Y-93425282D02*
X106437138Y-93520520D01*
X106437138Y-93520520D02*
X106437138Y-93758615D01*
X106437138Y-93758615D02*
X106389519Y-93853853D01*
X106389519Y-93853853D02*
X106341900Y-93901472D01*
X106341900Y-93901472D02*
X106246662Y-93949091D01*
X106246662Y-93949091D02*
X106056186Y-93949091D01*
X106056186Y-93949091D02*
X105960948Y-93901472D01*
X105960948Y-93901472D02*
X105913329Y-93853853D01*
X105913329Y-93853853D02*
X105865710Y-93758615D01*
X117390710Y-113380044D02*
X117390710Y-112380044D01*
X117390710Y-112380044D02*
X117152615Y-112380044D01*
X117152615Y-112380044D02*
X117009758Y-112427663D01*
X117009758Y-112427663D02*
X116914520Y-112522901D01*
X116914520Y-112522901D02*
X116866901Y-112618139D01*
X116866901Y-112618139D02*
X116819282Y-112808615D01*
X116819282Y-112808615D02*
X116819282Y-112951472D01*
X116819282Y-112951472D02*
X116866901Y-113141948D01*
X116866901Y-113141948D02*
X116914520Y-113237186D01*
X116914520Y-113237186D02*
X117009758Y-113332425D01*
X117009758Y-113332425D02*
X117152615Y-113380044D01*
X117152615Y-113380044D02*
X117390710Y-113380044D01*
X115866901Y-113380044D02*
X116438329Y-113380044D01*
X116152615Y-113380044D02*
X116152615Y-112380044D01*
X116152615Y-112380044D02*
X116247853Y-112522901D01*
X116247853Y-112522901D02*
X116343091Y-112618139D01*
X116343091Y-112618139D02*
X116438329Y-112665758D01*
X115247853Y-112380044D02*
X115152615Y-112380044D01*
X115152615Y-112380044D02*
X115057377Y-112427663D01*
X115057377Y-112427663D02*
X115009758Y-112475282D01*
X115009758Y-112475282D02*
X114962139Y-112570520D01*
X114962139Y-112570520D02*
X114914520Y-112760996D01*
X114914520Y-112760996D02*
X114914520Y-112999091D01*
X114914520Y-112999091D02*
X114962139Y-113189567D01*
X114962139Y-113189567D02*
X115009758Y-113284805D01*
X115009758Y-113284805D02*
X115057377Y-113332425D01*
X115057377Y-113332425D02*
X115152615Y-113380044D01*
X115152615Y-113380044D02*
X115247853Y-113380044D01*
X115247853Y-113380044D02*
X115343091Y-113332425D01*
X115343091Y-113332425D02*
X115390710Y-113284805D01*
X115390710Y-113284805D02*
X115438329Y-113189567D01*
X115438329Y-113189567D02*
X115485948Y-112999091D01*
X115485948Y-112999091D02*
X115485948Y-112760996D01*
X115485948Y-112760996D02*
X115438329Y-112570520D01*
X115438329Y-112570520D02*
X115390710Y-112475282D01*
X115390710Y-112475282D02*
X115343091Y-112427663D01*
X115343091Y-112427663D02*
X115247853Y-112380044D01*
X69289519Y-94330044D02*
X69289519Y-93330044D01*
X69289519Y-93330044D02*
X69051424Y-93330044D01*
X69051424Y-93330044D02*
X68908567Y-93377663D01*
X68908567Y-93377663D02*
X68813329Y-93472901D01*
X68813329Y-93472901D02*
X68765710Y-93568139D01*
X68765710Y-93568139D02*
X68718091Y-93758615D01*
X68718091Y-93758615D02*
X68718091Y-93901472D01*
X68718091Y-93901472D02*
X68765710Y-94091948D01*
X68765710Y-94091948D02*
X68813329Y-94187186D01*
X68813329Y-94187186D02*
X68908567Y-94282425D01*
X68908567Y-94282425D02*
X69051424Y-94330044D01*
X69051424Y-94330044D02*
X69289519Y-94330044D01*
X67765710Y-94330044D02*
X68337138Y-94330044D01*
X68051424Y-94330044D02*
X68051424Y-93330044D01*
X68051424Y-93330044D02*
X68146662Y-93472901D01*
X68146662Y-93472901D02*
X68241900Y-93568139D01*
X68241900Y-93568139D02*
X68337138Y-93615758D01*
X181684460Y-170530044D02*
X181684460Y-169530044D01*
X181684460Y-169530044D02*
X181446365Y-169530044D01*
X181446365Y-169530044D02*
X181303508Y-169577663D01*
X181303508Y-169577663D02*
X181208270Y-169672901D01*
X181208270Y-169672901D02*
X181160651Y-169768139D01*
X181160651Y-169768139D02*
X181113032Y-169958615D01*
X181113032Y-169958615D02*
X181113032Y-170101472D01*
X181113032Y-170101472D02*
X181160651Y-170291948D01*
X181160651Y-170291948D02*
X181208270Y-170387186D01*
X181208270Y-170387186D02*
X181303508Y-170482425D01*
X181303508Y-170482425D02*
X181446365Y-170530044D01*
X181446365Y-170530044D02*
X181684460Y-170530044D01*
X180779698Y-169530044D02*
X180160651Y-169530044D01*
X180160651Y-169530044D02*
X180493984Y-169910996D01*
X180493984Y-169910996D02*
X180351127Y-169910996D01*
X180351127Y-169910996D02*
X180255889Y-169958615D01*
X180255889Y-169958615D02*
X180208270Y-170006234D01*
X180208270Y-170006234D02*
X180160651Y-170101472D01*
X180160651Y-170101472D02*
X180160651Y-170339567D01*
X180160651Y-170339567D02*
X180208270Y-170434805D01*
X180208270Y-170434805D02*
X180255889Y-170482425D01*
X180255889Y-170482425D02*
X180351127Y-170530044D01*
X180351127Y-170530044D02*
X180636841Y-170530044D01*
X180636841Y-170530044D02*
X180732079Y-170482425D01*
X180732079Y-170482425D02*
X180779698Y-170434805D01*
X179303508Y-169863377D02*
X179303508Y-170530044D01*
X179541603Y-169482425D02*
X179779698Y-170196710D01*
X179779698Y-170196710D02*
X179160651Y-170196710D01*
X165015710Y-94164419D02*
X165015710Y-93164419D01*
X165015710Y-93164419D02*
X164777615Y-93164419D01*
X164777615Y-93164419D02*
X164634758Y-93212038D01*
X164634758Y-93212038D02*
X164539520Y-93307276D01*
X164539520Y-93307276D02*
X164491901Y-93402514D01*
X164491901Y-93402514D02*
X164444282Y-93592990D01*
X164444282Y-93592990D02*
X164444282Y-93735847D01*
X164444282Y-93735847D02*
X164491901Y-93926323D01*
X164491901Y-93926323D02*
X164539520Y-94021561D01*
X164539520Y-94021561D02*
X164634758Y-94116800D01*
X164634758Y-94116800D02*
X164777615Y-94164419D01*
X164777615Y-94164419D02*
X165015710Y-94164419D01*
X164063329Y-93259657D02*
X164015710Y-93212038D01*
X164015710Y-93212038D02*
X163920472Y-93164419D01*
X163920472Y-93164419D02*
X163682377Y-93164419D01*
X163682377Y-93164419D02*
X163587139Y-93212038D01*
X163587139Y-93212038D02*
X163539520Y-93259657D01*
X163539520Y-93259657D02*
X163491901Y-93354895D01*
X163491901Y-93354895D02*
X163491901Y-93450133D01*
X163491901Y-93450133D02*
X163539520Y-93592990D01*
X163539520Y-93592990D02*
X164110948Y-94164419D01*
X164110948Y-94164419D02*
X163491901Y-94164419D01*
X163110948Y-93259657D02*
X163063329Y-93212038D01*
X163063329Y-93212038D02*
X162968091Y-93164419D01*
X162968091Y-93164419D02*
X162729996Y-93164419D01*
X162729996Y-93164419D02*
X162634758Y-93212038D01*
X162634758Y-93212038D02*
X162587139Y-93259657D01*
X162587139Y-93259657D02*
X162539520Y-93354895D01*
X162539520Y-93354895D02*
X162539520Y-93450133D01*
X162539520Y-93450133D02*
X162587139Y-93592990D01*
X162587139Y-93592990D02*
X163158567Y-94164419D01*
X163158567Y-94164419D02*
X162539520Y-94164419D01*
X150728210Y-151314419D02*
X150728210Y-150314419D01*
X150728210Y-150314419D02*
X150490115Y-150314419D01*
X150490115Y-150314419D02*
X150347258Y-150362038D01*
X150347258Y-150362038D02*
X150252020Y-150457276D01*
X150252020Y-150457276D02*
X150204401Y-150552514D01*
X150204401Y-150552514D02*
X150156782Y-150742990D01*
X150156782Y-150742990D02*
X150156782Y-150885847D01*
X150156782Y-150885847D02*
X150204401Y-151076323D01*
X150204401Y-151076323D02*
X150252020Y-151171561D01*
X150252020Y-151171561D02*
X150347258Y-151266800D01*
X150347258Y-151266800D02*
X150490115Y-151314419D01*
X150490115Y-151314419D02*
X150728210Y-151314419D01*
X149775829Y-150409657D02*
X149728210Y-150362038D01*
X149728210Y-150362038D02*
X149632972Y-150314419D01*
X149632972Y-150314419D02*
X149394877Y-150314419D01*
X149394877Y-150314419D02*
X149299639Y-150362038D01*
X149299639Y-150362038D02*
X149252020Y-150409657D01*
X149252020Y-150409657D02*
X149204401Y-150504895D01*
X149204401Y-150504895D02*
X149204401Y-150600133D01*
X149204401Y-150600133D02*
X149252020Y-150742990D01*
X149252020Y-150742990D02*
X149823448Y-151314419D01*
X149823448Y-151314419D02*
X149204401Y-151314419D01*
X148252020Y-151314419D02*
X148823448Y-151314419D01*
X148537734Y-151314419D02*
X148537734Y-150314419D01*
X148537734Y-150314419D02*
X148632972Y-150457276D01*
X148632972Y-150457276D02*
X148728210Y-150552514D01*
X148728210Y-150552514D02*
X148823448Y-150600133D01*
X305211904Y-98602438D02*
X305307142Y-98554819D01*
X305307142Y-98554819D02*
X305449999Y-98554819D01*
X305449999Y-98554819D02*
X305592856Y-98602438D01*
X305592856Y-98602438D02*
X305688094Y-98697676D01*
X305688094Y-98697676D02*
X305735713Y-98792914D01*
X305735713Y-98792914D02*
X305783332Y-98983390D01*
X305783332Y-98983390D02*
X305783332Y-99126247D01*
X305783332Y-99126247D02*
X305735713Y-99316723D01*
X305735713Y-99316723D02*
X305688094Y-99411961D01*
X305688094Y-99411961D02*
X305592856Y-99507200D01*
X305592856Y-99507200D02*
X305449999Y-99554819D01*
X305449999Y-99554819D02*
X305354761Y-99554819D01*
X305354761Y-99554819D02*
X305211904Y-99507200D01*
X305211904Y-99507200D02*
X305164285Y-99459580D01*
X305164285Y-99459580D02*
X305164285Y-99126247D01*
X305164285Y-99126247D02*
X305354761Y-99126247D01*
X304735713Y-99554819D02*
X304735713Y-98554819D01*
X304735713Y-98554819D02*
X304164285Y-99554819D01*
X304164285Y-99554819D02*
X304164285Y-98554819D01*
X303688094Y-99554819D02*
X303688094Y-98554819D01*
X303688094Y-98554819D02*
X303449999Y-98554819D01*
X303449999Y-98554819D02*
X303307142Y-98602438D01*
X303307142Y-98602438D02*
X303211904Y-98697676D01*
X303211904Y-98697676D02*
X303164285Y-98792914D01*
X303164285Y-98792914D02*
X303116666Y-98983390D01*
X303116666Y-98983390D02*
X303116666Y-99126247D01*
X303116666Y-99126247D02*
X303164285Y-99316723D01*
X303164285Y-99316723D02*
X303211904Y-99411961D01*
X303211904Y-99411961D02*
X303307142Y-99507200D01*
X303307142Y-99507200D02*
X303449999Y-99554819D01*
X303449999Y-99554819D02*
X303688094Y-99554819D01*
X112628210Y-151480044D02*
X112628210Y-150480044D01*
X112628210Y-150480044D02*
X112390115Y-150480044D01*
X112390115Y-150480044D02*
X112247258Y-150527663D01*
X112247258Y-150527663D02*
X112152020Y-150622901D01*
X112152020Y-150622901D02*
X112104401Y-150718139D01*
X112104401Y-150718139D02*
X112056782Y-150908615D01*
X112056782Y-150908615D02*
X112056782Y-151051472D01*
X112056782Y-151051472D02*
X112104401Y-151241948D01*
X112104401Y-151241948D02*
X112152020Y-151337186D01*
X112152020Y-151337186D02*
X112247258Y-151432425D01*
X112247258Y-151432425D02*
X112390115Y-151480044D01*
X112390115Y-151480044D02*
X112628210Y-151480044D01*
X111104401Y-151480044D02*
X111675829Y-151480044D01*
X111390115Y-151480044D02*
X111390115Y-150480044D01*
X111390115Y-150480044D02*
X111485353Y-150622901D01*
X111485353Y-150622901D02*
X111580591Y-150718139D01*
X111580591Y-150718139D02*
X111675829Y-150765758D01*
X110723448Y-150575282D02*
X110675829Y-150527663D01*
X110675829Y-150527663D02*
X110580591Y-150480044D01*
X110580591Y-150480044D02*
X110342496Y-150480044D01*
X110342496Y-150480044D02*
X110247258Y-150527663D01*
X110247258Y-150527663D02*
X110199639Y-150575282D01*
X110199639Y-150575282D02*
X110152020Y-150670520D01*
X110152020Y-150670520D02*
X110152020Y-150765758D01*
X110152020Y-150765758D02*
X110199639Y-150908615D01*
X110199639Y-150908615D02*
X110771067Y-151480044D01*
X110771067Y-151480044D02*
X110152020Y-151480044D01*
X174540710Y-113380044D02*
X174540710Y-112380044D01*
X174540710Y-112380044D02*
X174302615Y-112380044D01*
X174302615Y-112380044D02*
X174159758Y-112427663D01*
X174159758Y-112427663D02*
X174064520Y-112522901D01*
X174064520Y-112522901D02*
X174016901Y-112618139D01*
X174016901Y-112618139D02*
X173969282Y-112808615D01*
X173969282Y-112808615D02*
X173969282Y-112951472D01*
X173969282Y-112951472D02*
X174016901Y-113141948D01*
X174016901Y-113141948D02*
X174064520Y-113237186D01*
X174064520Y-113237186D02*
X174159758Y-113332425D01*
X174159758Y-113332425D02*
X174302615Y-113380044D01*
X174302615Y-113380044D02*
X174540710Y-113380044D01*
X173588329Y-112475282D02*
X173540710Y-112427663D01*
X173540710Y-112427663D02*
X173445472Y-112380044D01*
X173445472Y-112380044D02*
X173207377Y-112380044D01*
X173207377Y-112380044D02*
X173112139Y-112427663D01*
X173112139Y-112427663D02*
X173064520Y-112475282D01*
X173064520Y-112475282D02*
X173016901Y-112570520D01*
X173016901Y-112570520D02*
X173016901Y-112665758D01*
X173016901Y-112665758D02*
X173064520Y-112808615D01*
X173064520Y-112808615D02*
X173635948Y-113380044D01*
X173635948Y-113380044D02*
X173016901Y-113380044D01*
X172683567Y-112380044D02*
X172064520Y-112380044D01*
X172064520Y-112380044D02*
X172397853Y-112760996D01*
X172397853Y-112760996D02*
X172254996Y-112760996D01*
X172254996Y-112760996D02*
X172159758Y-112808615D01*
X172159758Y-112808615D02*
X172112139Y-112856234D01*
X172112139Y-112856234D02*
X172064520Y-112951472D01*
X172064520Y-112951472D02*
X172064520Y-113189567D01*
X172064520Y-113189567D02*
X172112139Y-113284805D01*
X172112139Y-113284805D02*
X172159758Y-113332425D01*
X172159758Y-113332425D02*
X172254996Y-113380044D01*
X172254996Y-113380044D02*
X172540710Y-113380044D01*
X172540710Y-113380044D02*
X172635948Y-113332425D01*
X172635948Y-113332425D02*
X172683567Y-113284805D01*
X136440710Y-113380044D02*
X136440710Y-112380044D01*
X136440710Y-112380044D02*
X136202615Y-112380044D01*
X136202615Y-112380044D02*
X136059758Y-112427663D01*
X136059758Y-112427663D02*
X135964520Y-112522901D01*
X135964520Y-112522901D02*
X135916901Y-112618139D01*
X135916901Y-112618139D02*
X135869282Y-112808615D01*
X135869282Y-112808615D02*
X135869282Y-112951472D01*
X135869282Y-112951472D02*
X135916901Y-113141948D01*
X135916901Y-113141948D02*
X135964520Y-113237186D01*
X135964520Y-113237186D02*
X136059758Y-113332425D01*
X136059758Y-113332425D02*
X136202615Y-113380044D01*
X136202615Y-113380044D02*
X136440710Y-113380044D01*
X134916901Y-113380044D02*
X135488329Y-113380044D01*
X135202615Y-113380044D02*
X135202615Y-112380044D01*
X135202615Y-112380044D02*
X135297853Y-112522901D01*
X135297853Y-112522901D02*
X135393091Y-112618139D01*
X135393091Y-112618139D02*
X135488329Y-112665758D01*
X134012139Y-112380044D02*
X134488329Y-112380044D01*
X134488329Y-112380044D02*
X134535948Y-112856234D01*
X134535948Y-112856234D02*
X134488329Y-112808615D01*
X134488329Y-112808615D02*
X134393091Y-112760996D01*
X134393091Y-112760996D02*
X134154996Y-112760996D01*
X134154996Y-112760996D02*
X134059758Y-112808615D01*
X134059758Y-112808615D02*
X134012139Y-112856234D01*
X134012139Y-112856234D02*
X133964520Y-112951472D01*
X133964520Y-112951472D02*
X133964520Y-113189567D01*
X133964520Y-113189567D02*
X134012139Y-113284805D01*
X134012139Y-113284805D02*
X134059758Y-113332425D01*
X134059758Y-113332425D02*
X134154996Y-113380044D01*
X134154996Y-113380044D02*
X134393091Y-113380044D01*
X134393091Y-113380044D02*
X134488329Y-113332425D01*
X134488329Y-113332425D02*
X134535948Y-113284805D01*
X126915710Y-94164419D02*
X126915710Y-93164419D01*
X126915710Y-93164419D02*
X126677615Y-93164419D01*
X126677615Y-93164419D02*
X126534758Y-93212038D01*
X126534758Y-93212038D02*
X126439520Y-93307276D01*
X126439520Y-93307276D02*
X126391901Y-93402514D01*
X126391901Y-93402514D02*
X126344282Y-93592990D01*
X126344282Y-93592990D02*
X126344282Y-93735847D01*
X126344282Y-93735847D02*
X126391901Y-93926323D01*
X126391901Y-93926323D02*
X126439520Y-94021561D01*
X126439520Y-94021561D02*
X126534758Y-94116800D01*
X126534758Y-94116800D02*
X126677615Y-94164419D01*
X126677615Y-94164419D02*
X126915710Y-94164419D01*
X125391901Y-94164419D02*
X125963329Y-94164419D01*
X125677615Y-94164419D02*
X125677615Y-93164419D01*
X125677615Y-93164419D02*
X125772853Y-93307276D01*
X125772853Y-93307276D02*
X125868091Y-93402514D01*
X125868091Y-93402514D02*
X125963329Y-93450133D01*
X124534758Y-93497752D02*
X124534758Y-94164419D01*
X124772853Y-93116800D02*
X125010948Y-93831085D01*
X125010948Y-93831085D02*
X124391901Y-93831085D01*
X284078210Y-151314419D02*
X284078210Y-150314419D01*
X284078210Y-150314419D02*
X283840115Y-150314419D01*
X283840115Y-150314419D02*
X283697258Y-150362038D01*
X283697258Y-150362038D02*
X283602020Y-150457276D01*
X283602020Y-150457276D02*
X283554401Y-150552514D01*
X283554401Y-150552514D02*
X283506782Y-150742990D01*
X283506782Y-150742990D02*
X283506782Y-150885847D01*
X283506782Y-150885847D02*
X283554401Y-151076323D01*
X283554401Y-151076323D02*
X283602020Y-151171561D01*
X283602020Y-151171561D02*
X283697258Y-151266800D01*
X283697258Y-151266800D02*
X283840115Y-151314419D01*
X283840115Y-151314419D02*
X284078210Y-151314419D01*
X282602020Y-150314419D02*
X283078210Y-150314419D01*
X283078210Y-150314419D02*
X283125829Y-150790609D01*
X283125829Y-150790609D02*
X283078210Y-150742990D01*
X283078210Y-150742990D02*
X282982972Y-150695371D01*
X282982972Y-150695371D02*
X282744877Y-150695371D01*
X282744877Y-150695371D02*
X282649639Y-150742990D01*
X282649639Y-150742990D02*
X282602020Y-150790609D01*
X282602020Y-150790609D02*
X282554401Y-150885847D01*
X282554401Y-150885847D02*
X282554401Y-151123942D01*
X282554401Y-151123942D02*
X282602020Y-151219180D01*
X282602020Y-151219180D02*
X282649639Y-151266800D01*
X282649639Y-151266800D02*
X282744877Y-151314419D01*
X282744877Y-151314419D02*
X282982972Y-151314419D01*
X282982972Y-151314419D02*
X283078210Y-151266800D01*
X283078210Y-151266800D02*
X283125829Y-151219180D01*
X281602020Y-151314419D02*
X282173448Y-151314419D01*
X281887734Y-151314419D02*
X281887734Y-150314419D01*
X281887734Y-150314419D02*
X281982972Y-150457276D01*
X281982972Y-150457276D02*
X282078210Y-150552514D01*
X282078210Y-150552514D02*
X282173448Y-150600133D01*
X212640710Y-113380044D02*
X212640710Y-112380044D01*
X212640710Y-112380044D02*
X212402615Y-112380044D01*
X212402615Y-112380044D02*
X212259758Y-112427663D01*
X212259758Y-112427663D02*
X212164520Y-112522901D01*
X212164520Y-112522901D02*
X212116901Y-112618139D01*
X212116901Y-112618139D02*
X212069282Y-112808615D01*
X212069282Y-112808615D02*
X212069282Y-112951472D01*
X212069282Y-112951472D02*
X212116901Y-113141948D01*
X212116901Y-113141948D02*
X212164520Y-113237186D01*
X212164520Y-113237186D02*
X212259758Y-113332425D01*
X212259758Y-113332425D02*
X212402615Y-113380044D01*
X212402615Y-113380044D02*
X212640710Y-113380044D01*
X211735948Y-112380044D02*
X211116901Y-112380044D01*
X211116901Y-112380044D02*
X211450234Y-112760996D01*
X211450234Y-112760996D02*
X211307377Y-112760996D01*
X211307377Y-112760996D02*
X211212139Y-112808615D01*
X211212139Y-112808615D02*
X211164520Y-112856234D01*
X211164520Y-112856234D02*
X211116901Y-112951472D01*
X211116901Y-112951472D02*
X211116901Y-113189567D01*
X211116901Y-113189567D02*
X211164520Y-113284805D01*
X211164520Y-113284805D02*
X211212139Y-113332425D01*
X211212139Y-113332425D02*
X211307377Y-113380044D01*
X211307377Y-113380044D02*
X211593091Y-113380044D01*
X211593091Y-113380044D02*
X211688329Y-113332425D01*
X211688329Y-113332425D02*
X211735948Y-113284805D01*
X210164520Y-113380044D02*
X210735948Y-113380044D01*
X210450234Y-113380044D02*
X210450234Y-112380044D01*
X210450234Y-112380044D02*
X210545472Y-112522901D01*
X210545472Y-112522901D02*
X210640710Y-112618139D01*
X210640710Y-112618139D02*
X210735948Y-112665758D01*
X255503210Y-132430044D02*
X255503210Y-131430044D01*
X255503210Y-131430044D02*
X255265115Y-131430044D01*
X255265115Y-131430044D02*
X255122258Y-131477663D01*
X255122258Y-131477663D02*
X255027020Y-131572901D01*
X255027020Y-131572901D02*
X254979401Y-131668139D01*
X254979401Y-131668139D02*
X254931782Y-131858615D01*
X254931782Y-131858615D02*
X254931782Y-132001472D01*
X254931782Y-132001472D02*
X254979401Y-132191948D01*
X254979401Y-132191948D02*
X255027020Y-132287186D01*
X255027020Y-132287186D02*
X255122258Y-132382425D01*
X255122258Y-132382425D02*
X255265115Y-132430044D01*
X255265115Y-132430044D02*
X255503210Y-132430044D01*
X254074639Y-131763377D02*
X254074639Y-132430044D01*
X254312734Y-131382425D02*
X254550829Y-132096710D01*
X254550829Y-132096710D02*
X253931782Y-132096710D01*
X253074639Y-131430044D02*
X253550829Y-131430044D01*
X253550829Y-131430044D02*
X253598448Y-131906234D01*
X253598448Y-131906234D02*
X253550829Y-131858615D01*
X253550829Y-131858615D02*
X253455591Y-131810996D01*
X253455591Y-131810996D02*
X253217496Y-131810996D01*
X253217496Y-131810996D02*
X253122258Y-131858615D01*
X253122258Y-131858615D02*
X253074639Y-131906234D01*
X253074639Y-131906234D02*
X253027020Y-132001472D01*
X253027020Y-132001472D02*
X253027020Y-132239567D01*
X253027020Y-132239567D02*
X253074639Y-132334805D01*
X253074639Y-132334805D02*
X253122258Y-132382425D01*
X253122258Y-132382425D02*
X253217496Y-132430044D01*
X253217496Y-132430044D02*
X253455591Y-132430044D01*
X253455591Y-132430044D02*
X253550829Y-132382425D01*
X253550829Y-132382425D02*
X253598448Y-132334805D01*
X81195769Y-132430044D02*
X81195769Y-131430044D01*
X81195769Y-131430044D02*
X80957674Y-131430044D01*
X80957674Y-131430044D02*
X80814817Y-131477663D01*
X80814817Y-131477663D02*
X80719579Y-131572901D01*
X80719579Y-131572901D02*
X80671960Y-131668139D01*
X80671960Y-131668139D02*
X80624341Y-131858615D01*
X80624341Y-131858615D02*
X80624341Y-132001472D01*
X80624341Y-132001472D02*
X80671960Y-132191948D01*
X80671960Y-132191948D02*
X80719579Y-132287186D01*
X80719579Y-132287186D02*
X80814817Y-132382425D01*
X80814817Y-132382425D02*
X80957674Y-132430044D01*
X80957674Y-132430044D02*
X81195769Y-132430044D01*
X80291007Y-131430044D02*
X79671960Y-131430044D01*
X79671960Y-131430044D02*
X80005293Y-131810996D01*
X80005293Y-131810996D02*
X79862436Y-131810996D01*
X79862436Y-131810996D02*
X79767198Y-131858615D01*
X79767198Y-131858615D02*
X79719579Y-131906234D01*
X79719579Y-131906234D02*
X79671960Y-132001472D01*
X79671960Y-132001472D02*
X79671960Y-132239567D01*
X79671960Y-132239567D02*
X79719579Y-132334805D01*
X79719579Y-132334805D02*
X79767198Y-132382425D01*
X79767198Y-132382425D02*
X79862436Y-132430044D01*
X79862436Y-132430044D02*
X80148150Y-132430044D01*
X80148150Y-132430044D02*
X80243388Y-132382425D01*
X80243388Y-132382425D02*
X80291007Y-132334805D01*
X88339519Y-94330044D02*
X88339519Y-93330044D01*
X88339519Y-93330044D02*
X88101424Y-93330044D01*
X88101424Y-93330044D02*
X87958567Y-93377663D01*
X87958567Y-93377663D02*
X87863329Y-93472901D01*
X87863329Y-93472901D02*
X87815710Y-93568139D01*
X87815710Y-93568139D02*
X87768091Y-93758615D01*
X87768091Y-93758615D02*
X87768091Y-93901472D01*
X87768091Y-93901472D02*
X87815710Y-94091948D01*
X87815710Y-94091948D02*
X87863329Y-94187186D01*
X87863329Y-94187186D02*
X87958567Y-94282425D01*
X87958567Y-94282425D02*
X88101424Y-94330044D01*
X88101424Y-94330044D02*
X88339519Y-94330044D01*
X86910948Y-93330044D02*
X87101424Y-93330044D01*
X87101424Y-93330044D02*
X87196662Y-93377663D01*
X87196662Y-93377663D02*
X87244281Y-93425282D01*
X87244281Y-93425282D02*
X87339519Y-93568139D01*
X87339519Y-93568139D02*
X87387138Y-93758615D01*
X87387138Y-93758615D02*
X87387138Y-94139567D01*
X87387138Y-94139567D02*
X87339519Y-94234805D01*
X87339519Y-94234805D02*
X87291900Y-94282425D01*
X87291900Y-94282425D02*
X87196662Y-94330044D01*
X87196662Y-94330044D02*
X87006186Y-94330044D01*
X87006186Y-94330044D02*
X86910948Y-94282425D01*
X86910948Y-94282425D02*
X86863329Y-94234805D01*
X86863329Y-94234805D02*
X86815710Y-94139567D01*
X86815710Y-94139567D02*
X86815710Y-93901472D01*
X86815710Y-93901472D02*
X86863329Y-93806234D01*
X86863329Y-93806234D02*
X86910948Y-93758615D01*
X86910948Y-93758615D02*
X87006186Y-93710996D01*
X87006186Y-93710996D02*
X87196662Y-93710996D01*
X87196662Y-93710996D02*
X87291900Y-93758615D01*
X87291900Y-93758615D02*
X87339519Y-93806234D01*
X87339519Y-93806234D02*
X87387138Y-93901472D01*
X253121960Y-170364419D02*
X253121960Y-169364419D01*
X253121960Y-169364419D02*
X252883865Y-169364419D01*
X252883865Y-169364419D02*
X252741008Y-169412038D01*
X252741008Y-169412038D02*
X252645770Y-169507276D01*
X252645770Y-169507276D02*
X252598151Y-169602514D01*
X252598151Y-169602514D02*
X252550532Y-169792990D01*
X252550532Y-169792990D02*
X252550532Y-169935847D01*
X252550532Y-169935847D02*
X252598151Y-170126323D01*
X252598151Y-170126323D02*
X252645770Y-170221561D01*
X252645770Y-170221561D02*
X252741008Y-170316800D01*
X252741008Y-170316800D02*
X252883865Y-170364419D01*
X252883865Y-170364419D02*
X253121960Y-170364419D01*
X251693389Y-169697752D02*
X251693389Y-170364419D01*
X251931484Y-169316800D02*
X252169579Y-170031085D01*
X252169579Y-170031085D02*
X251550532Y-170031085D01*
X251264817Y-169364419D02*
X250598151Y-169364419D01*
X250598151Y-169364419D02*
X251026722Y-170364419D01*
X226928210Y-151480044D02*
X226928210Y-150480044D01*
X226928210Y-150480044D02*
X226690115Y-150480044D01*
X226690115Y-150480044D02*
X226547258Y-150527663D01*
X226547258Y-150527663D02*
X226452020Y-150622901D01*
X226452020Y-150622901D02*
X226404401Y-150718139D01*
X226404401Y-150718139D02*
X226356782Y-150908615D01*
X226356782Y-150908615D02*
X226356782Y-151051472D01*
X226356782Y-151051472D02*
X226404401Y-151241948D01*
X226404401Y-151241948D02*
X226452020Y-151337186D01*
X226452020Y-151337186D02*
X226547258Y-151432425D01*
X226547258Y-151432425D02*
X226690115Y-151480044D01*
X226690115Y-151480044D02*
X226928210Y-151480044D01*
X226023448Y-150480044D02*
X225404401Y-150480044D01*
X225404401Y-150480044D02*
X225737734Y-150860996D01*
X225737734Y-150860996D02*
X225594877Y-150860996D01*
X225594877Y-150860996D02*
X225499639Y-150908615D01*
X225499639Y-150908615D02*
X225452020Y-150956234D01*
X225452020Y-150956234D02*
X225404401Y-151051472D01*
X225404401Y-151051472D02*
X225404401Y-151289567D01*
X225404401Y-151289567D02*
X225452020Y-151384805D01*
X225452020Y-151384805D02*
X225499639Y-151432425D01*
X225499639Y-151432425D02*
X225594877Y-151480044D01*
X225594877Y-151480044D02*
X225880591Y-151480044D01*
X225880591Y-151480044D02*
X225975829Y-151432425D01*
X225975829Y-151432425D02*
X226023448Y-151384805D01*
X224832972Y-150908615D02*
X224928210Y-150860996D01*
X224928210Y-150860996D02*
X224975829Y-150813377D01*
X224975829Y-150813377D02*
X225023448Y-150718139D01*
X225023448Y-150718139D02*
X225023448Y-150670520D01*
X225023448Y-150670520D02*
X224975829Y-150575282D01*
X224975829Y-150575282D02*
X224928210Y-150527663D01*
X224928210Y-150527663D02*
X224832972Y-150480044D01*
X224832972Y-150480044D02*
X224642496Y-150480044D01*
X224642496Y-150480044D02*
X224547258Y-150527663D01*
X224547258Y-150527663D02*
X224499639Y-150575282D01*
X224499639Y-150575282D02*
X224452020Y-150670520D01*
X224452020Y-150670520D02*
X224452020Y-150718139D01*
X224452020Y-150718139D02*
X224499639Y-150813377D01*
X224499639Y-150813377D02*
X224547258Y-150860996D01*
X224547258Y-150860996D02*
X224642496Y-150908615D01*
X224642496Y-150908615D02*
X224832972Y-150908615D01*
X224832972Y-150908615D02*
X224928210Y-150956234D01*
X224928210Y-150956234D02*
X224975829Y-151003853D01*
X224975829Y-151003853D02*
X225023448Y-151099091D01*
X225023448Y-151099091D02*
X225023448Y-151289567D01*
X225023448Y-151289567D02*
X224975829Y-151384805D01*
X224975829Y-151384805D02*
X224928210Y-151432425D01*
X224928210Y-151432425D02*
X224832972Y-151480044D01*
X224832972Y-151480044D02*
X224642496Y-151480044D01*
X224642496Y-151480044D02*
X224547258Y-151432425D01*
X224547258Y-151432425D02*
X224499639Y-151384805D01*
X224499639Y-151384805D02*
X224452020Y-151289567D01*
X224452020Y-151289567D02*
X224452020Y-151099091D01*
X224452020Y-151099091D02*
X224499639Y-151003853D01*
X224499639Y-151003853D02*
X224547258Y-150956234D01*
X224547258Y-150956234D02*
X224642496Y-150908615D01*
X222165710Y-94330044D02*
X222165710Y-93330044D01*
X222165710Y-93330044D02*
X221927615Y-93330044D01*
X221927615Y-93330044D02*
X221784758Y-93377663D01*
X221784758Y-93377663D02*
X221689520Y-93472901D01*
X221689520Y-93472901D02*
X221641901Y-93568139D01*
X221641901Y-93568139D02*
X221594282Y-93758615D01*
X221594282Y-93758615D02*
X221594282Y-93901472D01*
X221594282Y-93901472D02*
X221641901Y-94091948D01*
X221641901Y-94091948D02*
X221689520Y-94187186D01*
X221689520Y-94187186D02*
X221784758Y-94282425D01*
X221784758Y-94282425D02*
X221927615Y-94330044D01*
X221927615Y-94330044D02*
X222165710Y-94330044D01*
X221260948Y-93330044D02*
X220641901Y-93330044D01*
X220641901Y-93330044D02*
X220975234Y-93710996D01*
X220975234Y-93710996D02*
X220832377Y-93710996D01*
X220832377Y-93710996D02*
X220737139Y-93758615D01*
X220737139Y-93758615D02*
X220689520Y-93806234D01*
X220689520Y-93806234D02*
X220641901Y-93901472D01*
X220641901Y-93901472D02*
X220641901Y-94139567D01*
X220641901Y-94139567D02*
X220689520Y-94234805D01*
X220689520Y-94234805D02*
X220737139Y-94282425D01*
X220737139Y-94282425D02*
X220832377Y-94330044D01*
X220832377Y-94330044D02*
X221118091Y-94330044D01*
X221118091Y-94330044D02*
X221213329Y-94282425D01*
X221213329Y-94282425D02*
X221260948Y-94234805D01*
X219737139Y-93330044D02*
X220213329Y-93330044D01*
X220213329Y-93330044D02*
X220260948Y-93806234D01*
X220260948Y-93806234D02*
X220213329Y-93758615D01*
X220213329Y-93758615D02*
X220118091Y-93710996D01*
X220118091Y-93710996D02*
X219879996Y-93710996D01*
X219879996Y-93710996D02*
X219784758Y-93758615D01*
X219784758Y-93758615D02*
X219737139Y-93806234D01*
X219737139Y-93806234D02*
X219689520Y-93901472D01*
X219689520Y-93901472D02*
X219689520Y-94139567D01*
X219689520Y-94139567D02*
X219737139Y-94234805D01*
X219737139Y-94234805D02*
X219784758Y-94282425D01*
X219784758Y-94282425D02*
X219879996Y-94330044D01*
X219879996Y-94330044D02*
X220118091Y-94330044D01*
X220118091Y-94330044D02*
X220213329Y-94282425D01*
X220213329Y-94282425D02*
X220260948Y-94234805D01*
X103103210Y-132430044D02*
X103103210Y-131430044D01*
X103103210Y-131430044D02*
X102865115Y-131430044D01*
X102865115Y-131430044D02*
X102722258Y-131477663D01*
X102722258Y-131477663D02*
X102627020Y-131572901D01*
X102627020Y-131572901D02*
X102579401Y-131668139D01*
X102579401Y-131668139D02*
X102531782Y-131858615D01*
X102531782Y-131858615D02*
X102531782Y-132001472D01*
X102531782Y-132001472D02*
X102579401Y-132191948D01*
X102579401Y-132191948D02*
X102627020Y-132287186D01*
X102627020Y-132287186D02*
X102722258Y-132382425D01*
X102722258Y-132382425D02*
X102865115Y-132430044D01*
X102865115Y-132430044D02*
X103103210Y-132430044D01*
X101579401Y-132430044D02*
X102150829Y-132430044D01*
X101865115Y-132430044D02*
X101865115Y-131430044D01*
X101865115Y-131430044D02*
X101960353Y-131572901D01*
X101960353Y-131572901D02*
X102055591Y-131668139D01*
X102055591Y-131668139D02*
X102150829Y-131715758D01*
X100627020Y-132430044D02*
X101198448Y-132430044D01*
X100912734Y-132430044D02*
X100912734Y-131430044D01*
X100912734Y-131430044D02*
X101007972Y-131572901D01*
X101007972Y-131572901D02*
X101103210Y-131668139D01*
X101103210Y-131668139D02*
X101198448Y-131715758D01*
X188828210Y-151480044D02*
X188828210Y-150480044D01*
X188828210Y-150480044D02*
X188590115Y-150480044D01*
X188590115Y-150480044D02*
X188447258Y-150527663D01*
X188447258Y-150527663D02*
X188352020Y-150622901D01*
X188352020Y-150622901D02*
X188304401Y-150718139D01*
X188304401Y-150718139D02*
X188256782Y-150908615D01*
X188256782Y-150908615D02*
X188256782Y-151051472D01*
X188256782Y-151051472D02*
X188304401Y-151241948D01*
X188304401Y-151241948D02*
X188352020Y-151337186D01*
X188352020Y-151337186D02*
X188447258Y-151432425D01*
X188447258Y-151432425D02*
X188590115Y-151480044D01*
X188590115Y-151480044D02*
X188828210Y-151480044D01*
X187875829Y-150575282D02*
X187828210Y-150527663D01*
X187828210Y-150527663D02*
X187732972Y-150480044D01*
X187732972Y-150480044D02*
X187494877Y-150480044D01*
X187494877Y-150480044D02*
X187399639Y-150527663D01*
X187399639Y-150527663D02*
X187352020Y-150575282D01*
X187352020Y-150575282D02*
X187304401Y-150670520D01*
X187304401Y-150670520D02*
X187304401Y-150765758D01*
X187304401Y-150765758D02*
X187352020Y-150908615D01*
X187352020Y-150908615D02*
X187923448Y-151480044D01*
X187923448Y-151480044D02*
X187304401Y-151480044D01*
X186828210Y-151480044D02*
X186637734Y-151480044D01*
X186637734Y-151480044D02*
X186542496Y-151432425D01*
X186542496Y-151432425D02*
X186494877Y-151384805D01*
X186494877Y-151384805D02*
X186399639Y-151241948D01*
X186399639Y-151241948D02*
X186352020Y-151051472D01*
X186352020Y-151051472D02*
X186352020Y-150670520D01*
X186352020Y-150670520D02*
X186399639Y-150575282D01*
X186399639Y-150575282D02*
X186447258Y-150527663D01*
X186447258Y-150527663D02*
X186542496Y-150480044D01*
X186542496Y-150480044D02*
X186732972Y-150480044D01*
X186732972Y-150480044D02*
X186828210Y-150527663D01*
X186828210Y-150527663D02*
X186875829Y-150575282D01*
X186875829Y-150575282D02*
X186923448Y-150670520D01*
X186923448Y-150670520D02*
X186923448Y-150908615D01*
X186923448Y-150908615D02*
X186875829Y-151003853D01*
X186875829Y-151003853D02*
X186828210Y-151051472D01*
X186828210Y-151051472D02*
X186732972Y-151099091D01*
X186732972Y-151099091D02*
X186542496Y-151099091D01*
X186542496Y-151099091D02*
X186447258Y-151051472D01*
X186447258Y-151051472D02*
X186399639Y-151003853D01*
X186399639Y-151003853D02*
X186352020Y-150908615D01*
X160253210Y-132264419D02*
X160253210Y-131264419D01*
X160253210Y-131264419D02*
X160015115Y-131264419D01*
X160015115Y-131264419D02*
X159872258Y-131312038D01*
X159872258Y-131312038D02*
X159777020Y-131407276D01*
X159777020Y-131407276D02*
X159729401Y-131502514D01*
X159729401Y-131502514D02*
X159681782Y-131692990D01*
X159681782Y-131692990D02*
X159681782Y-131835847D01*
X159681782Y-131835847D02*
X159729401Y-132026323D01*
X159729401Y-132026323D02*
X159777020Y-132121561D01*
X159777020Y-132121561D02*
X159872258Y-132216800D01*
X159872258Y-132216800D02*
X160015115Y-132264419D01*
X160015115Y-132264419D02*
X160253210Y-132264419D01*
X159300829Y-131359657D02*
X159253210Y-131312038D01*
X159253210Y-131312038D02*
X159157972Y-131264419D01*
X159157972Y-131264419D02*
X158919877Y-131264419D01*
X158919877Y-131264419D02*
X158824639Y-131312038D01*
X158824639Y-131312038D02*
X158777020Y-131359657D01*
X158777020Y-131359657D02*
X158729401Y-131454895D01*
X158729401Y-131454895D02*
X158729401Y-131550133D01*
X158729401Y-131550133D02*
X158777020Y-131692990D01*
X158777020Y-131692990D02*
X159348448Y-132264419D01*
X159348448Y-132264419D02*
X158729401Y-132264419D01*
X157872258Y-131597752D02*
X157872258Y-132264419D01*
X158110353Y-131216800D02*
X158348448Y-131931085D01*
X158348448Y-131931085D02*
X157729401Y-131931085D01*
X317415710Y-170530044D02*
X317415710Y-169530044D01*
X317415710Y-169530044D02*
X317177615Y-169530044D01*
X317177615Y-169530044D02*
X317034758Y-169577663D01*
X317034758Y-169577663D02*
X316939520Y-169672901D01*
X316939520Y-169672901D02*
X316891901Y-169768139D01*
X316891901Y-169768139D02*
X316844282Y-169958615D01*
X316844282Y-169958615D02*
X316844282Y-170101472D01*
X316844282Y-170101472D02*
X316891901Y-170291948D01*
X316891901Y-170291948D02*
X316939520Y-170387186D01*
X316939520Y-170387186D02*
X317034758Y-170482425D01*
X317034758Y-170482425D02*
X317177615Y-170530044D01*
X317177615Y-170530044D02*
X317415710Y-170530044D01*
X315987139Y-169530044D02*
X316177615Y-169530044D01*
X316177615Y-169530044D02*
X316272853Y-169577663D01*
X316272853Y-169577663D02*
X316320472Y-169625282D01*
X316320472Y-169625282D02*
X316415710Y-169768139D01*
X316415710Y-169768139D02*
X316463329Y-169958615D01*
X316463329Y-169958615D02*
X316463329Y-170339567D01*
X316463329Y-170339567D02*
X316415710Y-170434805D01*
X316415710Y-170434805D02*
X316368091Y-170482425D01*
X316368091Y-170482425D02*
X316272853Y-170530044D01*
X316272853Y-170530044D02*
X316082377Y-170530044D01*
X316082377Y-170530044D02*
X315987139Y-170482425D01*
X315987139Y-170482425D02*
X315939520Y-170434805D01*
X315939520Y-170434805D02*
X315891901Y-170339567D01*
X315891901Y-170339567D02*
X315891901Y-170101472D01*
X315891901Y-170101472D02*
X315939520Y-170006234D01*
X315939520Y-170006234D02*
X315987139Y-169958615D01*
X315987139Y-169958615D02*
X316082377Y-169910996D01*
X316082377Y-169910996D02*
X316272853Y-169910996D01*
X316272853Y-169910996D02*
X316368091Y-169958615D01*
X316368091Y-169958615D02*
X316415710Y-170006234D01*
X316415710Y-170006234D02*
X316463329Y-170101472D01*
X314939520Y-170530044D02*
X315510948Y-170530044D01*
X315225234Y-170530044D02*
X315225234Y-169530044D01*
X315225234Y-169530044D02*
X315320472Y-169672901D01*
X315320472Y-169672901D02*
X315415710Y-169768139D01*
X315415710Y-169768139D02*
X315510948Y-169815758D01*
X53531009Y-139278570D02*
X53578628Y-139421427D01*
X53578628Y-139421427D02*
X53626247Y-139469046D01*
X53626247Y-139469046D02*
X53721485Y-139516665D01*
X53721485Y-139516665D02*
X53864342Y-139516665D01*
X53864342Y-139516665D02*
X53959580Y-139469046D01*
X53959580Y-139469046D02*
X54007200Y-139421427D01*
X54007200Y-139421427D02*
X54054819Y-139326189D01*
X54054819Y-139326189D02*
X54054819Y-138945237D01*
X54054819Y-138945237D02*
X53054819Y-138945237D01*
X53054819Y-138945237D02*
X53054819Y-139278570D01*
X53054819Y-139278570D02*
X53102438Y-139373808D01*
X53102438Y-139373808D02*
X53150057Y-139421427D01*
X53150057Y-139421427D02*
X53245295Y-139469046D01*
X53245295Y-139469046D02*
X53340533Y-139469046D01*
X53340533Y-139469046D02*
X53435771Y-139421427D01*
X53435771Y-139421427D02*
X53483390Y-139373808D01*
X53483390Y-139373808D02*
X53531009Y-139278570D01*
X53531009Y-139278570D02*
X53531009Y-138945237D01*
X54054819Y-140373808D02*
X53531009Y-140373808D01*
X53531009Y-140373808D02*
X53435771Y-140326189D01*
X53435771Y-140326189D02*
X53388152Y-140230951D01*
X53388152Y-140230951D02*
X53388152Y-140040475D01*
X53388152Y-140040475D02*
X53435771Y-139945237D01*
X54007200Y-140373808D02*
X54054819Y-140278570D01*
X54054819Y-140278570D02*
X54054819Y-140040475D01*
X54054819Y-140040475D02*
X54007200Y-139945237D01*
X54007200Y-139945237D02*
X53911961Y-139897618D01*
X53911961Y-139897618D02*
X53816723Y-139897618D01*
X53816723Y-139897618D02*
X53721485Y-139945237D01*
X53721485Y-139945237D02*
X53673866Y-140040475D01*
X53673866Y-140040475D02*
X53673866Y-140278570D01*
X53673866Y-140278570D02*
X53626247Y-140373808D01*
X53388152Y-140707142D02*
X53388152Y-141088094D01*
X53054819Y-140849999D02*
X53911961Y-140849999D01*
X53911961Y-140849999D02*
X54007200Y-140897618D01*
X54007200Y-140897618D02*
X54054819Y-140992856D01*
X54054819Y-140992856D02*
X54054819Y-141088094D01*
X53388152Y-141278571D02*
X53388152Y-141659523D01*
X53054819Y-141421428D02*
X53911961Y-141421428D01*
X53911961Y-141421428D02*
X54007200Y-141469047D01*
X54007200Y-141469047D02*
X54054819Y-141564285D01*
X54054819Y-141564285D02*
X54054819Y-141659523D01*
X54007200Y-142373809D02*
X54054819Y-142278571D01*
X54054819Y-142278571D02*
X54054819Y-142088095D01*
X54054819Y-142088095D02*
X54007200Y-141992857D01*
X54007200Y-141992857D02*
X53911961Y-141945238D01*
X53911961Y-141945238D02*
X53531009Y-141945238D01*
X53531009Y-141945238D02*
X53435771Y-141992857D01*
X53435771Y-141992857D02*
X53388152Y-142088095D01*
X53388152Y-142088095D02*
X53388152Y-142278571D01*
X53388152Y-142278571D02*
X53435771Y-142373809D01*
X53435771Y-142373809D02*
X53531009Y-142421428D01*
X53531009Y-142421428D02*
X53626247Y-142421428D01*
X53626247Y-142421428D02*
X53721485Y-141945238D01*
X54054819Y-142850000D02*
X53388152Y-142850000D01*
X53578628Y-142850000D02*
X53483390Y-142897619D01*
X53483390Y-142897619D02*
X53435771Y-142945238D01*
X53435771Y-142945238D02*
X53388152Y-143040476D01*
X53388152Y-143040476D02*
X53388152Y-143135714D01*
X53388152Y-143373810D02*
X54054819Y-143611905D01*
X53388152Y-143850000D02*
X54054819Y-143611905D01*
X54054819Y-143611905D02*
X54292914Y-143516667D01*
X54292914Y-143516667D02*
X54340533Y-143469048D01*
X54340533Y-143469048D02*
X54388152Y-143373810D01*
X241215710Y-94330044D02*
X241215710Y-93330044D01*
X241215710Y-93330044D02*
X240977615Y-93330044D01*
X240977615Y-93330044D02*
X240834758Y-93377663D01*
X240834758Y-93377663D02*
X240739520Y-93472901D01*
X240739520Y-93472901D02*
X240691901Y-93568139D01*
X240691901Y-93568139D02*
X240644282Y-93758615D01*
X240644282Y-93758615D02*
X240644282Y-93901472D01*
X240644282Y-93901472D02*
X240691901Y-94091948D01*
X240691901Y-94091948D02*
X240739520Y-94187186D01*
X240739520Y-94187186D02*
X240834758Y-94282425D01*
X240834758Y-94282425D02*
X240977615Y-94330044D01*
X240977615Y-94330044D02*
X241215710Y-94330044D01*
X240310948Y-93330044D02*
X239691901Y-93330044D01*
X239691901Y-93330044D02*
X240025234Y-93710996D01*
X240025234Y-93710996D02*
X239882377Y-93710996D01*
X239882377Y-93710996D02*
X239787139Y-93758615D01*
X239787139Y-93758615D02*
X239739520Y-93806234D01*
X239739520Y-93806234D02*
X239691901Y-93901472D01*
X239691901Y-93901472D02*
X239691901Y-94139567D01*
X239691901Y-94139567D02*
X239739520Y-94234805D01*
X239739520Y-94234805D02*
X239787139Y-94282425D01*
X239787139Y-94282425D02*
X239882377Y-94330044D01*
X239882377Y-94330044D02*
X240168091Y-94330044D01*
X240168091Y-94330044D02*
X240263329Y-94282425D01*
X240263329Y-94282425D02*
X240310948Y-94234805D01*
X239215710Y-94330044D02*
X239025234Y-94330044D01*
X239025234Y-94330044D02*
X238929996Y-94282425D01*
X238929996Y-94282425D02*
X238882377Y-94234805D01*
X238882377Y-94234805D02*
X238787139Y-94091948D01*
X238787139Y-94091948D02*
X238739520Y-93901472D01*
X238739520Y-93901472D02*
X238739520Y-93520520D01*
X238739520Y-93520520D02*
X238787139Y-93425282D01*
X238787139Y-93425282D02*
X238834758Y-93377663D01*
X238834758Y-93377663D02*
X238929996Y-93330044D01*
X238929996Y-93330044D02*
X239120472Y-93330044D01*
X239120472Y-93330044D02*
X239215710Y-93377663D01*
X239215710Y-93377663D02*
X239263329Y-93425282D01*
X239263329Y-93425282D02*
X239310948Y-93520520D01*
X239310948Y-93520520D02*
X239310948Y-93758615D01*
X239310948Y-93758615D02*
X239263329Y-93853853D01*
X239263329Y-93853853D02*
X239215710Y-93901472D01*
X239215710Y-93901472D02*
X239120472Y-93949091D01*
X239120472Y-93949091D02*
X238929996Y-93949091D01*
X238929996Y-93949091D02*
X238834758Y-93901472D01*
X238834758Y-93901472D02*
X238787139Y-93853853D01*
X238787139Y-93853853D02*
X238739520Y-93758615D01*
X71670769Y-170530044D02*
X71670769Y-169530044D01*
X71670769Y-169530044D02*
X71432674Y-169530044D01*
X71432674Y-169530044D02*
X71289817Y-169577663D01*
X71289817Y-169577663D02*
X71194579Y-169672901D01*
X71194579Y-169672901D02*
X71146960Y-169768139D01*
X71146960Y-169768139D02*
X71099341Y-169958615D01*
X71099341Y-169958615D02*
X71099341Y-170101472D01*
X71099341Y-170101472D02*
X71146960Y-170291948D01*
X71146960Y-170291948D02*
X71194579Y-170387186D01*
X71194579Y-170387186D02*
X71289817Y-170482425D01*
X71289817Y-170482425D02*
X71432674Y-170530044D01*
X71432674Y-170530044D02*
X71670769Y-170530044D01*
X70194579Y-169530044D02*
X70670769Y-169530044D01*
X70670769Y-169530044D02*
X70718388Y-170006234D01*
X70718388Y-170006234D02*
X70670769Y-169958615D01*
X70670769Y-169958615D02*
X70575531Y-169910996D01*
X70575531Y-169910996D02*
X70337436Y-169910996D01*
X70337436Y-169910996D02*
X70242198Y-169958615D01*
X70242198Y-169958615D02*
X70194579Y-170006234D01*
X70194579Y-170006234D02*
X70146960Y-170101472D01*
X70146960Y-170101472D02*
X70146960Y-170339567D01*
X70146960Y-170339567D02*
X70194579Y-170434805D01*
X70194579Y-170434805D02*
X70242198Y-170482425D01*
X70242198Y-170482425D02*
X70337436Y-170530044D01*
X70337436Y-170530044D02*
X70575531Y-170530044D01*
X70575531Y-170530044D02*
X70670769Y-170482425D01*
X70670769Y-170482425D02*
X70718388Y-170434805D01*
X169778210Y-151480044D02*
X169778210Y-150480044D01*
X169778210Y-150480044D02*
X169540115Y-150480044D01*
X169540115Y-150480044D02*
X169397258Y-150527663D01*
X169397258Y-150527663D02*
X169302020Y-150622901D01*
X169302020Y-150622901D02*
X169254401Y-150718139D01*
X169254401Y-150718139D02*
X169206782Y-150908615D01*
X169206782Y-150908615D02*
X169206782Y-151051472D01*
X169206782Y-151051472D02*
X169254401Y-151241948D01*
X169254401Y-151241948D02*
X169302020Y-151337186D01*
X169302020Y-151337186D02*
X169397258Y-151432425D01*
X169397258Y-151432425D02*
X169540115Y-151480044D01*
X169540115Y-151480044D02*
X169778210Y-151480044D01*
X168825829Y-150575282D02*
X168778210Y-150527663D01*
X168778210Y-150527663D02*
X168682972Y-150480044D01*
X168682972Y-150480044D02*
X168444877Y-150480044D01*
X168444877Y-150480044D02*
X168349639Y-150527663D01*
X168349639Y-150527663D02*
X168302020Y-150575282D01*
X168302020Y-150575282D02*
X168254401Y-150670520D01*
X168254401Y-150670520D02*
X168254401Y-150765758D01*
X168254401Y-150765758D02*
X168302020Y-150908615D01*
X168302020Y-150908615D02*
X168873448Y-151480044D01*
X168873448Y-151480044D02*
X168254401Y-151480044D01*
X167349639Y-150480044D02*
X167825829Y-150480044D01*
X167825829Y-150480044D02*
X167873448Y-150956234D01*
X167873448Y-150956234D02*
X167825829Y-150908615D01*
X167825829Y-150908615D02*
X167730591Y-150860996D01*
X167730591Y-150860996D02*
X167492496Y-150860996D01*
X167492496Y-150860996D02*
X167397258Y-150908615D01*
X167397258Y-150908615D02*
X167349639Y-150956234D01*
X167349639Y-150956234D02*
X167302020Y-151051472D01*
X167302020Y-151051472D02*
X167302020Y-151289567D01*
X167302020Y-151289567D02*
X167349639Y-151384805D01*
X167349639Y-151384805D02*
X167397258Y-151432425D01*
X167397258Y-151432425D02*
X167492496Y-151480044D01*
X167492496Y-151480044D02*
X167730591Y-151480044D01*
X167730591Y-151480044D02*
X167825829Y-151432425D01*
X167825829Y-151432425D02*
X167873448Y-151384805D01*
X145965710Y-94330044D02*
X145965710Y-93330044D01*
X145965710Y-93330044D02*
X145727615Y-93330044D01*
X145727615Y-93330044D02*
X145584758Y-93377663D01*
X145584758Y-93377663D02*
X145489520Y-93472901D01*
X145489520Y-93472901D02*
X145441901Y-93568139D01*
X145441901Y-93568139D02*
X145394282Y-93758615D01*
X145394282Y-93758615D02*
X145394282Y-93901472D01*
X145394282Y-93901472D02*
X145441901Y-94091948D01*
X145441901Y-94091948D02*
X145489520Y-94187186D01*
X145489520Y-94187186D02*
X145584758Y-94282425D01*
X145584758Y-94282425D02*
X145727615Y-94330044D01*
X145727615Y-94330044D02*
X145965710Y-94330044D01*
X144441901Y-94330044D02*
X145013329Y-94330044D01*
X144727615Y-94330044D02*
X144727615Y-93330044D01*
X144727615Y-93330044D02*
X144822853Y-93472901D01*
X144822853Y-93472901D02*
X144918091Y-93568139D01*
X144918091Y-93568139D02*
X145013329Y-93615758D01*
X143870472Y-93758615D02*
X143965710Y-93710996D01*
X143965710Y-93710996D02*
X144013329Y-93663377D01*
X144013329Y-93663377D02*
X144060948Y-93568139D01*
X144060948Y-93568139D02*
X144060948Y-93520520D01*
X144060948Y-93520520D02*
X144013329Y-93425282D01*
X144013329Y-93425282D02*
X143965710Y-93377663D01*
X143965710Y-93377663D02*
X143870472Y-93330044D01*
X143870472Y-93330044D02*
X143679996Y-93330044D01*
X143679996Y-93330044D02*
X143584758Y-93377663D01*
X143584758Y-93377663D02*
X143537139Y-93425282D01*
X143537139Y-93425282D02*
X143489520Y-93520520D01*
X143489520Y-93520520D02*
X143489520Y-93568139D01*
X143489520Y-93568139D02*
X143537139Y-93663377D01*
X143537139Y-93663377D02*
X143584758Y-93710996D01*
X143584758Y-93710996D02*
X143679996Y-93758615D01*
X143679996Y-93758615D02*
X143870472Y-93758615D01*
X143870472Y-93758615D02*
X143965710Y-93806234D01*
X143965710Y-93806234D02*
X144013329Y-93853853D01*
X144013329Y-93853853D02*
X144060948Y-93949091D01*
X144060948Y-93949091D02*
X144060948Y-94139567D01*
X144060948Y-94139567D02*
X144013329Y-94234805D01*
X144013329Y-94234805D02*
X143965710Y-94282425D01*
X143965710Y-94282425D02*
X143870472Y-94330044D01*
X143870472Y-94330044D02*
X143679996Y-94330044D01*
X143679996Y-94330044D02*
X143584758Y-94282425D01*
X143584758Y-94282425D02*
X143537139Y-94234805D01*
X143537139Y-94234805D02*
X143489520Y-94139567D01*
X143489520Y-94139567D02*
X143489520Y-93949091D01*
X143489520Y-93949091D02*
X143537139Y-93853853D01*
X143537139Y-93853853D02*
X143584758Y-93806234D01*
X143584758Y-93806234D02*
X143679996Y-93758615D01*
X198353210Y-132264419D02*
X198353210Y-131264419D01*
X198353210Y-131264419D02*
X198115115Y-131264419D01*
X198115115Y-131264419D02*
X197972258Y-131312038D01*
X197972258Y-131312038D02*
X197877020Y-131407276D01*
X197877020Y-131407276D02*
X197829401Y-131502514D01*
X197829401Y-131502514D02*
X197781782Y-131692990D01*
X197781782Y-131692990D02*
X197781782Y-131835847D01*
X197781782Y-131835847D02*
X197829401Y-132026323D01*
X197829401Y-132026323D02*
X197877020Y-132121561D01*
X197877020Y-132121561D02*
X197972258Y-132216800D01*
X197972258Y-132216800D02*
X198115115Y-132264419D01*
X198115115Y-132264419D02*
X198353210Y-132264419D01*
X197448448Y-131264419D02*
X196829401Y-131264419D01*
X196829401Y-131264419D02*
X197162734Y-131645371D01*
X197162734Y-131645371D02*
X197019877Y-131645371D01*
X197019877Y-131645371D02*
X196924639Y-131692990D01*
X196924639Y-131692990D02*
X196877020Y-131740609D01*
X196877020Y-131740609D02*
X196829401Y-131835847D01*
X196829401Y-131835847D02*
X196829401Y-132073942D01*
X196829401Y-132073942D02*
X196877020Y-132169180D01*
X196877020Y-132169180D02*
X196924639Y-132216800D01*
X196924639Y-132216800D02*
X197019877Y-132264419D01*
X197019877Y-132264419D02*
X197305591Y-132264419D01*
X197305591Y-132264419D02*
X197400829Y-132216800D01*
X197400829Y-132216800D02*
X197448448Y-132169180D01*
X196448448Y-131359657D02*
X196400829Y-131312038D01*
X196400829Y-131312038D02*
X196305591Y-131264419D01*
X196305591Y-131264419D02*
X196067496Y-131264419D01*
X196067496Y-131264419D02*
X195972258Y-131312038D01*
X195972258Y-131312038D02*
X195924639Y-131359657D01*
X195924639Y-131359657D02*
X195877020Y-131454895D01*
X195877020Y-131454895D02*
X195877020Y-131550133D01*
X195877020Y-131550133D02*
X195924639Y-131692990D01*
X195924639Y-131692990D02*
X196496067Y-132264419D01*
X196496067Y-132264419D02*
X195877020Y-132264419D01*
X293603210Y-132264419D02*
X293603210Y-131264419D01*
X293603210Y-131264419D02*
X293365115Y-131264419D01*
X293365115Y-131264419D02*
X293222258Y-131312038D01*
X293222258Y-131312038D02*
X293127020Y-131407276D01*
X293127020Y-131407276D02*
X293079401Y-131502514D01*
X293079401Y-131502514D02*
X293031782Y-131692990D01*
X293031782Y-131692990D02*
X293031782Y-131835847D01*
X293031782Y-131835847D02*
X293079401Y-132026323D01*
X293079401Y-132026323D02*
X293127020Y-132121561D01*
X293127020Y-132121561D02*
X293222258Y-132216800D01*
X293222258Y-132216800D02*
X293365115Y-132264419D01*
X293365115Y-132264419D02*
X293603210Y-132264419D01*
X292127020Y-131264419D02*
X292603210Y-131264419D01*
X292603210Y-131264419D02*
X292650829Y-131740609D01*
X292650829Y-131740609D02*
X292603210Y-131692990D01*
X292603210Y-131692990D02*
X292507972Y-131645371D01*
X292507972Y-131645371D02*
X292269877Y-131645371D01*
X292269877Y-131645371D02*
X292174639Y-131692990D01*
X292174639Y-131692990D02*
X292127020Y-131740609D01*
X292127020Y-131740609D02*
X292079401Y-131835847D01*
X292079401Y-131835847D02*
X292079401Y-132073942D01*
X292079401Y-132073942D02*
X292127020Y-132169180D01*
X292127020Y-132169180D02*
X292174639Y-132216800D01*
X292174639Y-132216800D02*
X292269877Y-132264419D01*
X292269877Y-132264419D02*
X292507972Y-132264419D01*
X292507972Y-132264419D02*
X292603210Y-132216800D01*
X292603210Y-132216800D02*
X292650829Y-132169180D01*
X291174639Y-131264419D02*
X291650829Y-131264419D01*
X291650829Y-131264419D02*
X291698448Y-131740609D01*
X291698448Y-131740609D02*
X291650829Y-131692990D01*
X291650829Y-131692990D02*
X291555591Y-131645371D01*
X291555591Y-131645371D02*
X291317496Y-131645371D01*
X291317496Y-131645371D02*
X291222258Y-131692990D01*
X291222258Y-131692990D02*
X291174639Y-131740609D01*
X291174639Y-131740609D02*
X291127020Y-131835847D01*
X291127020Y-131835847D02*
X291127020Y-132073942D01*
X291127020Y-132073942D02*
X291174639Y-132169180D01*
X291174639Y-132169180D02*
X291222258Y-132216800D01*
X291222258Y-132216800D02*
X291317496Y-132264419D01*
X291317496Y-132264419D02*
X291555591Y-132264419D01*
X291555591Y-132264419D02*
X291650829Y-132216800D01*
X291650829Y-132216800D02*
X291698448Y-132169180D01*
X155490710Y-113380044D02*
X155490710Y-112380044D01*
X155490710Y-112380044D02*
X155252615Y-112380044D01*
X155252615Y-112380044D02*
X155109758Y-112427663D01*
X155109758Y-112427663D02*
X155014520Y-112522901D01*
X155014520Y-112522901D02*
X154966901Y-112618139D01*
X154966901Y-112618139D02*
X154919282Y-112808615D01*
X154919282Y-112808615D02*
X154919282Y-112951472D01*
X154919282Y-112951472D02*
X154966901Y-113141948D01*
X154966901Y-113141948D02*
X155014520Y-113237186D01*
X155014520Y-113237186D02*
X155109758Y-113332425D01*
X155109758Y-113332425D02*
X155252615Y-113380044D01*
X155252615Y-113380044D02*
X155490710Y-113380044D01*
X153966901Y-113380044D02*
X154538329Y-113380044D01*
X154252615Y-113380044D02*
X154252615Y-112380044D01*
X154252615Y-112380044D02*
X154347853Y-112522901D01*
X154347853Y-112522901D02*
X154443091Y-112618139D01*
X154443091Y-112618139D02*
X154538329Y-112665758D01*
X153490710Y-113380044D02*
X153300234Y-113380044D01*
X153300234Y-113380044D02*
X153204996Y-113332425D01*
X153204996Y-113332425D02*
X153157377Y-113284805D01*
X153157377Y-113284805D02*
X153062139Y-113141948D01*
X153062139Y-113141948D02*
X153014520Y-112951472D01*
X153014520Y-112951472D02*
X153014520Y-112570520D01*
X153014520Y-112570520D02*
X153062139Y-112475282D01*
X153062139Y-112475282D02*
X153109758Y-112427663D01*
X153109758Y-112427663D02*
X153204996Y-112380044D01*
X153204996Y-112380044D02*
X153395472Y-112380044D01*
X153395472Y-112380044D02*
X153490710Y-112427663D01*
X153490710Y-112427663D02*
X153538329Y-112475282D01*
X153538329Y-112475282D02*
X153585948Y-112570520D01*
X153585948Y-112570520D02*
X153585948Y-112808615D01*
X153585948Y-112808615D02*
X153538329Y-112903853D01*
X153538329Y-112903853D02*
X153490710Y-112951472D01*
X153490710Y-112951472D02*
X153395472Y-112999091D01*
X153395472Y-112999091D02*
X153204996Y-112999091D01*
X153204996Y-112999091D02*
X153109758Y-112951472D01*
X153109758Y-112951472D02*
X153062139Y-112903853D01*
X153062139Y-112903853D02*
X153014520Y-112808615D01*
X269790710Y-113380044D02*
X269790710Y-112380044D01*
X269790710Y-112380044D02*
X269552615Y-112380044D01*
X269552615Y-112380044D02*
X269409758Y-112427663D01*
X269409758Y-112427663D02*
X269314520Y-112522901D01*
X269314520Y-112522901D02*
X269266901Y-112618139D01*
X269266901Y-112618139D02*
X269219282Y-112808615D01*
X269219282Y-112808615D02*
X269219282Y-112951472D01*
X269219282Y-112951472D02*
X269266901Y-113141948D01*
X269266901Y-113141948D02*
X269314520Y-113237186D01*
X269314520Y-113237186D02*
X269409758Y-113332425D01*
X269409758Y-113332425D02*
X269552615Y-113380044D01*
X269552615Y-113380044D02*
X269790710Y-113380044D01*
X268362139Y-112713377D02*
X268362139Y-113380044D01*
X268600234Y-112332425D02*
X268838329Y-113046710D01*
X268838329Y-113046710D02*
X268219282Y-113046710D01*
X267409758Y-112713377D02*
X267409758Y-113380044D01*
X267647853Y-112332425D02*
X267885948Y-113046710D01*
X267885948Y-113046710D02*
X267266901Y-113046710D01*
D12*
%TO.C,SW13*%
X101360800Y-171509600D02*
X106460800Y-171509600D01*
X105260800Y-175709600D02*
X110360800Y-175709600D01*
X99360800Y-173509600D02*
G75*
G02*
X101360800Y-171509600I1999999J1D01*
G01*
X103260800Y-177709600D02*
G75*
G02*
X105260800Y-175709600I1999999J1D01*
G01*
%TO.C,SW38*%
X215660800Y-152459600D02*
X220760800Y-152459600D01*
X219560800Y-156659600D02*
X224660800Y-156659600D01*
X213660800Y-154459600D02*
G75*
G02*
X215660800Y-152459600I1999999J1D01*
G01*
X217560800Y-158659600D02*
G75*
G02*
X219560800Y-156659600I1999999J1D01*
G01*
%TO.C,SW19*%
X144223300Y-114359600D02*
X149323300Y-114359600D01*
X148123300Y-118559600D02*
X153223300Y-118559600D01*
X142223300Y-116359600D02*
G75*
G02*
X144223300Y-114359600I1999999J1D01*
G01*
X146123300Y-120559600D02*
G75*
G02*
X148123300Y-118559600I1999999J1D01*
G01*
%TO.C,SW49*%
X277573300Y-114359600D02*
X282673300Y-114359600D01*
X281473300Y-118559600D02*
X286573300Y-118559600D01*
X275573300Y-116359600D02*
G75*
G02*
X277573300Y-114359600I1999999J1D01*
G01*
X279473300Y-120559600D02*
G75*
G02*
X281473300Y-118559600I1999999J1D01*
G01*
%TO.C,SW36*%
X220423300Y-114359600D02*
X225523300Y-114359600D01*
X224323300Y-118559600D02*
X229423300Y-118559600D01*
X218423300Y-116359600D02*
G75*
G02*
X220423300Y-114359600I1999999J1D01*
G01*
X222323300Y-120559600D02*
G75*
G02*
X224323300Y-118559600I1999999J1D01*
G01*
%TO.C,SW58*%
X315673300Y-95309600D02*
X320773300Y-95309600D01*
X319573300Y-99509600D02*
X324673300Y-99509600D01*
X313673300Y-97309600D02*
G75*
G02*
X315673300Y-95309600I1999999J1D01*
G01*
X317573300Y-101509600D02*
G75*
G02*
X319573300Y-99509600I1999999J1D01*
G01*
%TO.C,SW40*%
X239473300Y-114359600D02*
X244573300Y-114359600D01*
X243373300Y-118559600D02*
X248473300Y-118559600D01*
X237473300Y-116359600D02*
G75*
G02*
X239473300Y-114359600I1999999J1D01*
G01*
X241373300Y-120559600D02*
G75*
G02*
X243373300Y-118559600I1999999J1D01*
G01*
%TO.C,SW10*%
X106123300Y-114359600D02*
X111223300Y-114359600D01*
X110023300Y-118559600D02*
X115123300Y-118559600D01*
X104123300Y-116359600D02*
G75*
G02*
X106123300Y-114359600I1999999J1D01*
G01*
X108023300Y-120559600D02*
G75*
G02*
X110023300Y-118559600I1999999J1D01*
G01*
%TO.C,SW2*%
X63260800Y-114359600D02*
X68360800Y-114359600D01*
X67160800Y-118559600D02*
X72260800Y-118559600D01*
X61260800Y-116359600D02*
G75*
G02*
X63260800Y-114359600I1999999J1D01*
G01*
X65160800Y-120559600D02*
G75*
G02*
X67160800Y-118559600I1999999J1D01*
G01*
%TO.C,SW27*%
X182323300Y-114359600D02*
X187423300Y-114359600D01*
X186223300Y-118559600D02*
X191323300Y-118559600D01*
X180323300Y-116359600D02*
G75*
G02*
X182323300Y-114359600I1999999J1D01*
G01*
X184223300Y-120559600D02*
G75*
G02*
X186223300Y-118559600I1999999J1D01*
G01*
%TO.C,SW21*%
X139460800Y-152459600D02*
X144560800Y-152459600D01*
X143360800Y-156659600D02*
X148460800Y-156659600D01*
X137460800Y-154459600D02*
G75*
G02*
X139460800Y-152459600I1999999J1D01*
G01*
X141360800Y-158659600D02*
G75*
G02*
X143360800Y-156659600I1999999J1D01*
G01*
%TO.C,SW60*%
X313292050Y-133409600D02*
X318392050Y-133409600D01*
X317192050Y-137609600D02*
X322292050Y-137609600D01*
X311292050Y-135409600D02*
G75*
G02*
X313292050Y-133409600I1999999J1D01*
G01*
X315192050Y-139609600D02*
G75*
G02*
X317192050Y-137609600I1999999J1D01*
G01*
%TO.C,SW32*%
X187085800Y-133409600D02*
X192185800Y-133409600D01*
X190985800Y-137609600D02*
X196085800Y-137609600D01*
X185085800Y-135409600D02*
G75*
G02*
X187085800Y-133409600I1999999J1D01*
G01*
X188985800Y-139609600D02*
G75*
G02*
X190985800Y-137609600I1999999J1D01*
G01*
%TO.C,SW61*%
X306148300Y-171509600D02*
X311248300Y-171509600D01*
X310048300Y-175709600D02*
X315148300Y-175709600D01*
X304148300Y-173509600D02*
G75*
G02*
X306148300Y-171509600I1999999J1D01*
G01*
X308048300Y-177709600D02*
G75*
G02*
X310048300Y-175709600I1999999J1D01*
G01*
%TO.C,SW17*%
X120410800Y-152459600D02*
X125510800Y-152459600D01*
X124310800Y-156659600D02*
X129410800Y-156659600D01*
X118410800Y-154459600D02*
G75*
G02*
X120410800Y-152459600I1999999J1D01*
G01*
X122310800Y-158659600D02*
G75*
G02*
X124310800Y-156659600I1999999J1D01*
G01*
%TO.C,SW5*%
X60879550Y-171509600D02*
X65979550Y-171509600D01*
X64779550Y-175709600D02*
X69879550Y-175709600D01*
X58879550Y-173509600D02*
G75*
G02*
X60879550Y-171509600I1999999J1D01*
G01*
X62779550Y-177709600D02*
G75*
G02*
X64779550Y-175709600I1999999J1D01*
G01*
%TO.C,SW12*%
X101360800Y-152459600D02*
X106460800Y-152459600D01*
X105260800Y-156659600D02*
X110360800Y-156659600D01*
X99360800Y-154459600D02*
G75*
G02*
X101360800Y-152459600I1999999J1D01*
G01*
X103260800Y-158659600D02*
G75*
G02*
X105260800Y-156659600I1999999J1D01*
G01*
%TO.C,SW7*%
X87073300Y-114359600D02*
X92173300Y-114359600D01*
X90973300Y-118559600D02*
X96073300Y-118559600D01*
X85073300Y-116359600D02*
G75*
G02*
X87073300Y-114359600I1999999J1D01*
G01*
X88973300Y-120559600D02*
G75*
G02*
X90973300Y-118559600I1999999J1D01*
G01*
%TO.C,SW56*%
X299004550Y-152459600D02*
X304104550Y-152459600D01*
X302904550Y-156659600D02*
X308004550Y-156659600D01*
X297004550Y-154459600D02*
G75*
G02*
X299004550Y-152459600I1999999J1D01*
G01*
X300904550Y-158659600D02*
G75*
G02*
X302904550Y-156659600I1999999J1D01*
G01*
%TO.C,SW4*%
X70404550Y-152459600D02*
X75504550Y-152459600D01*
X74304550Y-156659600D02*
X79404550Y-156659600D01*
X68404550Y-154459600D02*
G75*
G02*
X70404550Y-152459600I1999999J1D01*
G01*
X72304550Y-158659600D02*
G75*
G02*
X74304550Y-156659600I1999999J1D01*
G01*
%TO.C,SW6*%
X77548300Y-95309600D02*
X82648300Y-95309600D01*
X81448300Y-99509600D02*
X86548300Y-99509600D01*
X75548300Y-97309600D02*
G75*
G02*
X77548300Y-95309600I1999999J1D01*
G01*
X79448300Y-101509600D02*
G75*
G02*
X81448300Y-99509600I1999999J1D01*
G01*
%TO.C,SW35*%
X210898300Y-95309600D02*
X215998300Y-95309600D01*
X214798300Y-99509600D02*
X219898300Y-99509600D01*
X208898300Y-97309600D02*
G75*
G02*
X210898300Y-95309600I1999999J1D01*
G01*
X212798300Y-101509600D02*
G75*
G02*
X214798300Y-99509600I1999999J1D01*
G01*
%TO.C,SW43*%
X248998300Y-95309600D02*
X254098300Y-95309600D01*
X252898300Y-99509600D02*
X257998300Y-99509600D01*
X246998300Y-97309600D02*
G75*
G02*
X248998300Y-95309600I1999999J1D01*
G01*
X250898300Y-101509600D02*
G75*
G02*
X252898300Y-99509600I1999999J1D01*
G01*
%TO.C,SW53*%
X287098300Y-95309600D02*
X292198300Y-95309600D01*
X290998300Y-99509600D02*
X296098300Y-99509600D01*
X285098300Y-97309600D02*
G75*
G02*
X287098300Y-95309600I1999999J1D01*
G01*
X288998300Y-101509600D02*
G75*
G02*
X290998300Y-99509600I1999999J1D01*
G01*
%TO.C,SW46*%
X253760800Y-152459600D02*
X258860800Y-152459600D01*
X257660800Y-156659600D02*
X262760800Y-156659600D01*
X251760800Y-154459600D02*
G75*
G02*
X253760800Y-152459600I1999999J1D01*
G01*
X255660800Y-158659600D02*
G75*
G02*
X257660800Y-156659600I1999999J1D01*
G01*
%TO.C,SW18*%
X134698300Y-95309600D02*
X139798300Y-95309600D01*
X138598300Y-99509600D02*
X143698300Y-99509600D01*
X132698300Y-97309600D02*
G75*
G02*
X134698300Y-95309600I1999999J1D01*
G01*
X136598300Y-101509600D02*
G75*
G02*
X138598300Y-99509600I1999999J1D01*
G01*
%TO.C,SW47*%
X241854550Y-171509600D02*
X246954550Y-171509600D01*
X245754550Y-175709600D02*
X250854550Y-175709600D01*
X239854550Y-173509600D02*
G75*
G02*
X241854550Y-171509600I1999999J1D01*
G01*
X243754550Y-177709600D02*
G75*
G02*
X245754550Y-175709600I1999999J1D01*
G01*
%TO.C,SW14*%
X115648300Y-95309600D02*
X120748300Y-95309600D01*
X119548300Y-99509600D02*
X124648300Y-99509600D01*
X113648300Y-97309600D02*
G75*
G02*
X115648300Y-95309600I1999999J1D01*
G01*
X117548300Y-101509600D02*
G75*
G02*
X119548300Y-99509600I1999999J1D01*
G01*
%TO.C,SW23*%
X163273300Y-114359600D02*
X168373300Y-114359600D01*
X167173300Y-118559600D02*
X172273300Y-118559600D01*
X161273300Y-116359600D02*
G75*
G02*
X163273300Y-114359600I1999999J1D01*
G01*
X165173300Y-120559600D02*
G75*
G02*
X167173300Y-118559600I1999999J1D01*
G01*
%TO.C,SW24*%
X148985800Y-133409600D02*
X154085800Y-133409600D01*
X152885800Y-137609600D02*
X157985800Y-137609600D01*
X146985800Y-135409600D02*
G75*
G02*
X148985800Y-133409600I1999999J1D01*
G01*
X150885800Y-139609600D02*
G75*
G02*
X152885800Y-137609600I1999999J1D01*
G01*
%TO.C,SW22*%
X153748300Y-95309600D02*
X158848300Y-95309600D01*
X157648300Y-99509600D02*
X162748300Y-99509600D01*
X151748300Y-97309600D02*
G75*
G02*
X153748300Y-95309600I1999999J1D01*
G01*
X155648300Y-101509600D02*
G75*
G02*
X157648300Y-99509600I1999999J1D01*
G01*
%TO.C,SW50*%
X263285800Y-133409600D02*
X268385800Y-133409600D01*
X267185800Y-137609600D02*
X272285800Y-137609600D01*
X261285800Y-135409600D02*
G75*
G02*
X263285800Y-133409600I1999999J1D01*
G01*
X265185800Y-139609600D02*
G75*
G02*
X267185800Y-137609600I1999999J1D01*
G01*
%TO.C,SW44*%
X258523300Y-114359600D02*
X263623300Y-114359600D01*
X262423300Y-118559600D02*
X267523300Y-118559600D01*
X256523300Y-116359600D02*
G75*
G02*
X258523300Y-114359600I1999999J1D01*
G01*
X260423300Y-120559600D02*
G75*
G02*
X262423300Y-118559600I1999999J1D01*
G01*
%TO.C,SW62*%
X325198300Y-152459600D02*
X330298300Y-152459600D01*
X329098300Y-156659600D02*
X334198300Y-156659600D01*
X323198300Y-154459600D02*
G75*
G02*
X325198300Y-152459600I1999999J1D01*
G01*
X327098300Y-158659600D02*
G75*
G02*
X329098300Y-156659600I1999999J1D01*
G01*
%TO.C,SW37*%
X206135800Y-133409600D02*
X211235800Y-133409600D01*
X210035800Y-137609600D02*
X215135800Y-137609600D01*
X204135800Y-135409600D02*
G75*
G02*
X206135800Y-133409600I1999999J1D01*
G01*
X208035800Y-139609600D02*
G75*
G02*
X210035800Y-137609600I1999999J1D01*
G01*
%TO.C,SW52*%
X265667050Y-171509600D02*
X270767050Y-171509600D01*
X269567050Y-175709600D02*
X274667050Y-175709600D01*
X263667050Y-173509600D02*
G75*
G02*
X265667050Y-171509600I1999999J1D01*
G01*
X267567050Y-177709600D02*
G75*
G02*
X269567050Y-175709600I1999999J1D01*
G01*
%TO.C,SW20*%
X129935800Y-133409600D02*
X135035800Y-133409600D01*
X133835800Y-137609600D02*
X138935800Y-137609600D01*
X127935800Y-135409600D02*
G75*
G02*
X129935800Y-133409600I1999999J1D01*
G01*
X131835800Y-139609600D02*
G75*
G02*
X133835800Y-137609600I1999999J1D01*
G01*
%TO.C,SW54*%
X296623300Y-114359600D02*
X301723300Y-114359600D01*
X300523300Y-118559600D02*
X305623300Y-118559600D01*
X294623300Y-116359600D02*
G75*
G02*
X296623300Y-114359600I1999999J1D01*
G01*
X298523300Y-120559600D02*
G75*
G02*
X300523300Y-118559600I1999999J1D01*
G01*
%TO.C,SW26*%
X172798300Y-95309600D02*
X177898300Y-95309600D01*
X176698300Y-99509600D02*
X181798300Y-99509600D01*
X170798300Y-97309600D02*
G75*
G02*
X172798300Y-95309600I1999999J1D01*
G01*
X174698300Y-101509600D02*
G75*
G02*
X176698300Y-99509600I1999999J1D01*
G01*
%TO.C,SW55*%
X282335800Y-133409600D02*
X287435800Y-133409600D01*
X286235800Y-137609600D02*
X291335800Y-137609600D01*
X280335800Y-135409600D02*
G75*
G02*
X282335800Y-133409600I1999999J1D01*
G01*
X284235800Y-139609600D02*
G75*
G02*
X286235800Y-137609600I1999999J1D01*
G01*
%TO.C,SW41*%
X225185800Y-133409600D02*
X230285800Y-133409600D01*
X229085800Y-137609600D02*
X234185800Y-137609600D01*
X223185800Y-135409600D02*
G75*
G02*
X225185800Y-133409600I1999999J1D01*
G01*
X227085800Y-139609600D02*
G75*
G02*
X229085800Y-137609600I1999999J1D01*
G01*
%TO.C,SW45*%
X244235800Y-133409600D02*
X249335800Y-133409600D01*
X248135800Y-137609600D02*
X253235800Y-137609600D01*
X242235800Y-135409600D02*
G75*
G02*
X244235800Y-133409600I1999999J1D01*
G01*
X246135800Y-139609600D02*
G75*
G02*
X248135800Y-137609600I1999999J1D01*
G01*
%TO.C,SW30*%
X191848300Y-95309600D02*
X196948300Y-95309600D01*
X195748300Y-99509600D02*
X200848300Y-99509600D01*
X189848300Y-97309600D02*
G75*
G02*
X191848300Y-95309600I1999999J1D01*
G01*
X193748300Y-101509600D02*
G75*
G02*
X195748300Y-99509600I1999999J1D01*
G01*
%TO.C,SW28*%
X168035800Y-133409600D02*
X173135800Y-133409600D01*
X171935800Y-137609600D02*
X177035800Y-137609600D01*
X166035800Y-135409600D02*
G75*
G02*
X168035800Y-133409600I1999999J1D01*
G01*
X169935800Y-139609600D02*
G75*
G02*
X171935800Y-137609600I1999999J1D01*
G01*
%TO.C,SW15*%
X125173300Y-114359600D02*
X130273300Y-114359600D01*
X129073300Y-118559600D02*
X134173300Y-118559600D01*
X123173300Y-116359600D02*
G75*
G02*
X125173300Y-114359600I1999999J1D01*
G01*
X127073300Y-120559600D02*
G75*
G02*
X129073300Y-118559600I1999999J1D01*
G01*
%TO.C,SW64*%
X344248300Y-171509600D02*
X349348300Y-171509600D01*
X348148300Y-175709600D02*
X353248300Y-175709600D01*
X342248300Y-173509600D02*
G75*
G02*
X344248300Y-171509600I1999999J1D01*
G01*
X346148300Y-177709600D02*
G75*
G02*
X348148300Y-175709600I1999999J1D01*
G01*
%TO.C,SW31*%
X201373300Y-114359600D02*
X206473300Y-114359600D01*
X205273300Y-118559600D02*
X210373300Y-118559600D01*
X199373300Y-116359600D02*
G75*
G02*
X201373300Y-114359600I1999999J1D01*
G01*
X203273300Y-120559600D02*
G75*
G02*
X205273300Y-118559600I1999999J1D01*
G01*
%TO.C,SW16*%
X110885800Y-133409600D02*
X115985800Y-133409600D01*
X114785800Y-137609600D02*
X119885800Y-137609600D01*
X108885800Y-135409600D02*
G75*
G02*
X110885800Y-133409600I1999999J1D01*
G01*
X112785800Y-139609600D02*
G75*
G02*
X114785800Y-137609600I1999999J1D01*
G01*
%TO.C,SW3*%
X65642050Y-133409600D02*
X70742050Y-133409600D01*
X69542050Y-137609600D02*
X74642050Y-137609600D01*
X63642050Y-135409600D02*
G75*
G02*
X65642050Y-133409600I1999999J1D01*
G01*
X67542050Y-139609600D02*
G75*
G02*
X69542050Y-137609600I1999999J1D01*
G01*
%TO.C,SW33*%
X196610800Y-152459600D02*
X201710800Y-152459600D01*
X200510800Y-156659600D02*
X205610800Y-156659600D01*
X194610800Y-154459600D02*
G75*
G02*
X196610800Y-152459600I1999999J1D01*
G01*
X198510800Y-158659600D02*
G75*
G02*
X200510800Y-156659600I1999999J1D01*
G01*
%TO.C,SW59*%
X320435800Y-114359600D02*
X325535800Y-114359600D01*
X324335800Y-118559600D02*
X329435800Y-118559600D01*
X318435800Y-116359600D02*
G75*
G02*
X320435800Y-114359600I1999999J1D01*
G01*
X322335800Y-120559600D02*
G75*
G02*
X324335800Y-118559600I1999999J1D01*
G01*
%TO.C,SW63*%
X325198300Y-171509600D02*
X330298300Y-171509600D01*
X329098300Y-175709600D02*
X334198300Y-175709600D01*
X323198300Y-173509600D02*
G75*
G02*
X325198300Y-171509600I1999999J1D01*
G01*
X327098300Y-177709600D02*
G75*
G02*
X329098300Y-175709600I1999999J1D01*
G01*
%TO.C,SW34*%
X170417050Y-171509600D02*
X175517050Y-171509600D01*
X174317050Y-175709600D02*
X179417050Y-175709600D01*
X168417050Y-173509600D02*
G75*
G02*
X170417050Y-171509600I1999999J1D01*
G01*
X172317050Y-177709600D02*
G75*
G02*
X174317050Y-175709600I1999999J1D01*
G01*
%TO.C,SW11*%
X91835800Y-133409600D02*
X96935800Y-133409600D01*
X95735800Y-137609600D02*
X100835800Y-137609600D01*
X89835800Y-135409600D02*
G75*
G02*
X91835800Y-133409600I1999999J1D01*
G01*
X93735800Y-139609600D02*
G75*
G02*
X95735800Y-137609600I1999999J1D01*
G01*
%TO.C,SW9*%
X96598300Y-95309600D02*
X101698300Y-95309600D01*
X100498300Y-99509600D02*
X105598300Y-99509600D01*
X94598300Y-97309600D02*
G75*
G02*
X96598300Y-95309600I1999999J1D01*
G01*
X98498300Y-101509600D02*
G75*
G02*
X100498300Y-99509600I1999999J1D01*
G01*
%TO.C,SW42*%
X234710800Y-152459600D02*
X239810800Y-152459600D01*
X238610800Y-156659600D02*
X243710800Y-156659600D01*
X232710800Y-154459600D02*
G75*
G02*
X234710800Y-152459600I1999999J1D01*
G01*
X236610800Y-158659600D02*
G75*
G02*
X238610800Y-156659600I1999999J1D01*
G01*
%TO.C,SW51*%
X272810800Y-152459600D02*
X277910800Y-152459600D01*
X276710800Y-156659600D02*
X281810800Y-156659600D01*
X270810800Y-154459600D02*
G75*
G02*
X272810800Y-152459600I1999999J1D01*
G01*
X274710800Y-158659600D02*
G75*
G02*
X276710800Y-156659600I1999999J1D01*
G01*
%TO.C,SW8*%
X82310800Y-171509600D02*
X87410800Y-171509600D01*
X86210800Y-175709600D02*
X91310800Y-175709600D01*
X80310800Y-173509600D02*
G75*
G02*
X82310800Y-171509600I1999999J1D01*
G01*
X84210800Y-177709600D02*
G75*
G02*
X86210800Y-175709600I1999999J1D01*
G01*
%TO.C,SW39*%
X229948300Y-95309600D02*
X235048300Y-95309600D01*
X233848300Y-99509600D02*
X238948300Y-99509600D01*
X227948300Y-97309600D02*
G75*
G02*
X229948300Y-95309600I1999999J1D01*
G01*
X231848300Y-101509600D02*
G75*
G02*
X233848300Y-99509600I1999999J1D01*
G01*
%TO.C,SW48*%
X268048300Y-95309600D02*
X273148300Y-95309600D01*
X271948300Y-99509600D02*
X277048300Y-99509600D01*
X266048300Y-97309600D02*
G75*
G02*
X268048300Y-95309600I1999999J1D01*
G01*
X269948300Y-101509600D02*
G75*
G02*
X271948300Y-99509600I1999999J1D01*
G01*
%TO.C,SW57*%
X287098300Y-171509600D02*
X292198300Y-171509600D01*
X290998300Y-175709600D02*
X296098300Y-175709600D01*
X285098300Y-173509600D02*
G75*
G02*
X287098300Y-171509600I1999999J1D01*
G01*
X288998300Y-177709600D02*
G75*
G02*
X290998300Y-175709600I1999999J1D01*
G01*
%TO.C,SW29*%
X177560800Y-152459600D02*
X182660800Y-152459600D01*
X181460800Y-156659600D02*
X186560800Y-156659600D01*
X175560800Y-154459600D02*
G75*
G02*
X177560800Y-152459600I1999999J1D01*
G01*
X179460800Y-158659600D02*
G75*
G02*
X181460800Y-156659600I1999999J1D01*
G01*
%TO.C,SW25*%
X158510800Y-152459600D02*
X163610800Y-152459600D01*
X162410800Y-156659600D02*
X167510800Y-156659600D01*
X156510800Y-154459600D02*
G75*
G02*
X158510800Y-152459600I1999999J1D01*
G01*
X160410800Y-158659600D02*
G75*
G02*
X162410800Y-156659600I1999999J1D01*
G01*
%TO.C,SW1*%
X58498300Y-95309600D02*
X63598300Y-95309600D01*
X62398300Y-99509600D02*
X67498300Y-99509600D01*
X56498300Y-97309600D02*
G75*
G02*
X58498300Y-95309600I1999999J1D01*
G01*
X60398300Y-101509600D02*
G75*
G02*
X62398300Y-99509600I1999999J1D01*
G01*
%TO.C,D57*%
X298572675Y-168215225D02*
X300492675Y-168215225D01*
X298572675Y-171075225D02*
X298572675Y-168215225D01*
X300492675Y-168215225D02*
X300492675Y-171075225D01*
%TO.C,D62*%
X336672675Y-148999600D02*
X338592675Y-148999600D01*
X336672675Y-151859600D02*
X336672675Y-148999600D01*
X338592675Y-148999600D02*
X338592675Y-151859600D01*
%TO.C,D60*%
X324766425Y-129949600D02*
X326686425Y-129949600D01*
X324766425Y-132809600D02*
X324766425Y-129949600D01*
X326686425Y-129949600D02*
X326686425Y-132809600D01*
%TO.C,D33*%
X208085175Y-149165225D02*
X210005175Y-149165225D01*
X208085175Y-152025225D02*
X208085175Y-149165225D01*
X210005175Y-149165225D02*
X210005175Y-152025225D01*
%TO.C,D2*%
X74735175Y-111065225D02*
X76655175Y-111065225D01*
X74735175Y-113925225D02*
X74735175Y-111065225D01*
X76655175Y-111065225D02*
X76655175Y-113925225D01*
%TO.C,D43*%
X260472675Y-91849600D02*
X262392675Y-91849600D01*
X260472675Y-94709600D02*
X260472675Y-91849600D01*
X262392675Y-91849600D02*
X262392675Y-94709600D01*
%TO.C,D63*%
X336672675Y-168049600D02*
X338592675Y-168049600D01*
X336672675Y-170909600D02*
X336672675Y-168049600D01*
X338592675Y-168049600D02*
X338592675Y-170909600D01*
%TO.C,D26*%
X184272675Y-91849600D02*
X186192675Y-91849600D01*
X184272675Y-94709600D02*
X184272675Y-91849600D01*
X186192675Y-91849600D02*
X186192675Y-94709600D01*
%TO.C,D17*%
X131885175Y-149165225D02*
X133805175Y-149165225D01*
X131885175Y-152025225D02*
X131885175Y-149165225D01*
X133805175Y-149165225D02*
X133805175Y-152025225D01*
%TO.C,RESET*%
X332550000Y-103100000D02*
X332550000Y-105000000D01*
X332550000Y-105000000D02*
X334450000Y-105000000D01*
X334450000Y-103100000D02*
X332550000Y-103100000D01*
X334450000Y-105000000D02*
X334450000Y-103100000D01*
%TO.C,D52*%
X277141425Y-168049600D02*
X279061425Y-168049600D01*
X277141425Y-170909600D02*
X277141425Y-168049600D01*
X279061425Y-168049600D02*
X279061425Y-170909600D01*
%TO.C,D36*%
X231897675Y-110899600D02*
X233817675Y-110899600D01*
X231897675Y-113759600D02*
X231897675Y-110899600D01*
X233817675Y-110899600D02*
X233817675Y-113759600D01*
%TO.C,D30*%
X203322675Y-91849600D02*
X205242675Y-91849600D01*
X203322675Y-94709600D02*
X203322675Y-91849600D01*
X205242675Y-91849600D02*
X205242675Y-94709600D01*
%TO.C,D59*%
X334291425Y-110899600D02*
X336211425Y-110899600D01*
X334291425Y-113759600D02*
X334291425Y-110899600D01*
X336211425Y-110899600D02*
X336211425Y-113759600D01*
%TO.C,D54*%
X310478925Y-110899600D02*
X312398925Y-110899600D01*
X310478925Y-113759600D02*
X310478925Y-110899600D01*
X312398925Y-110899600D02*
X312398925Y-113759600D01*
D13*
%TO.C,U3*%
X345065000Y-123360000D02*
X345065000Y-123614000D01*
X345065000Y-158920000D02*
X345065000Y-158666000D01*
X352565000Y-123360000D02*
X345065000Y-123360000D01*
X352565000Y-123360000D02*
X352565000Y-123614000D01*
X352565000Y-158920000D02*
X345065000Y-158920000D01*
X352565000Y-158920000D02*
X352565000Y-158666000D01*
D10*
X343200580Y-157684300D02*
G75*
G02*
X343000580Y-157684300I-100000J0D01*
G01*
X343000580Y-157684300D02*
G75*
G02*
X343200580Y-157684300I100000J0D01*
G01*
D12*
%TO.C,D13*%
X112835175Y-168215225D02*
X114755175Y-168215225D01*
X112835175Y-171075225D02*
X112835175Y-168215225D01*
X114755175Y-168215225D02*
X114755175Y-171075225D01*
%TO.C,D41*%
X236660175Y-129949600D02*
X238580175Y-129949600D01*
X236660175Y-132809600D02*
X236660175Y-129949600D01*
X238580175Y-129949600D02*
X238580175Y-132809600D01*
%TO.C,D7*%
X98547675Y-111065225D02*
X100467675Y-111065225D01*
X98547675Y-113925225D02*
X98547675Y-111065225D01*
X100467675Y-111065225D02*
X100467675Y-113925225D01*
%TO.C,D37*%
X217610175Y-130115225D02*
X219530175Y-130115225D01*
X217610175Y-132975225D02*
X217610175Y-130115225D01*
X219530175Y-130115225D02*
X219530175Y-132975225D01*
%TO.C,D4*%
X90702250Y-149162050D02*
X92622250Y-149162050D01*
X90702250Y-152022050D02*
X90702250Y-149162050D01*
X92622250Y-149162050D02*
X92622250Y-152022050D01*
%TO.C,GND*%
X56550000Y-149850000D02*
G75*
G02*
X54150000Y-149850000I-1200000J0D01*
G01*
X54150000Y-149850000D02*
G75*
G02*
X56550000Y-149850000I1200000J0D01*
G01*
%TO.C,D28*%
X179510175Y-130115225D02*
X181430175Y-130115225D01*
X179510175Y-132975225D02*
X179510175Y-130115225D01*
X181430175Y-130115225D02*
X181430175Y-132975225D01*
%TO.C,D27*%
X193797675Y-111065225D02*
X195717675Y-111065225D01*
X193797675Y-113925225D02*
X193797675Y-111065225D01*
X195717675Y-111065225D02*
X195717675Y-113925225D01*
%TO.C,D53*%
X298572675Y-91849600D02*
X300492675Y-91849600D01*
X298572675Y-94709600D02*
X298572675Y-91849600D01*
X300492675Y-91849600D02*
X300492675Y-94709600D01*
%TO.C,D42*%
X246185175Y-149165225D02*
X248105175Y-149165225D01*
X246185175Y-152025225D02*
X246185175Y-149165225D01*
X248105175Y-149165225D02*
X248105175Y-152025225D01*
%TO.C,D16*%
X122360175Y-129949600D02*
X124280175Y-129949600D01*
X122360175Y-132809600D02*
X122360175Y-129949600D01*
X124280175Y-129949600D02*
X124280175Y-132809600D01*
%TO.C,D20*%
X141410175Y-130115225D02*
X143330175Y-130115225D01*
X141410175Y-132975225D02*
X141410175Y-130115225D01*
X143330175Y-130115225D02*
X143330175Y-132975225D01*
%TO.C,D8*%
X93785175Y-168215225D02*
X95705175Y-168215225D01*
X93785175Y-171075225D02*
X93785175Y-168215225D01*
X95705175Y-168215225D02*
X95705175Y-171075225D01*
%TO.C,D48*%
X279522675Y-91849600D02*
X281442675Y-91849600D01*
X279522675Y-94709600D02*
X279522675Y-91849600D01*
X281442675Y-91849600D02*
X281442675Y-94709600D01*
D10*
%TO.C,U1*%
X338937050Y-90450850D02*
X338937050Y-123750850D01*
X338937050Y-90450850D02*
X357237050Y-90450850D01*
X338937050Y-123750850D02*
X357237050Y-123750850D01*
X357237050Y-90450850D02*
X357237050Y-123750850D01*
D12*
%TO.C,D46*%
X265235175Y-148999600D02*
X267155175Y-148999600D01*
X265235175Y-151859600D02*
X265235175Y-148999600D01*
X267155175Y-148999600D02*
X267155175Y-151859600D01*
%TO.C,D58*%
X327147675Y-91849600D02*
X329067675Y-91849600D01*
X327147675Y-94709600D02*
X327147675Y-91849600D01*
X329067675Y-91849600D02*
X329067675Y-94709600D01*
%TO.C,D49*%
X289047675Y-110899600D02*
X290967675Y-110899600D01*
X289047675Y-113759600D02*
X289047675Y-110899600D01*
X290967675Y-110899600D02*
X290967675Y-113759600D01*
%TO.C,D64*%
X355722675Y-168215225D02*
X357642675Y-168215225D01*
X355722675Y-171075225D02*
X355722675Y-168215225D01*
X357642675Y-168215225D02*
X357642675Y-171075225D01*
%TO.C,D50*%
X274760175Y-130115225D02*
X276680175Y-130115225D01*
X274760175Y-132975225D02*
X274760175Y-130115225D01*
X276680175Y-130115225D02*
X276680175Y-132975225D01*
%TO.C,D56*%
X310478925Y-148999600D02*
X312398925Y-148999600D01*
X310478925Y-151859600D02*
X310478925Y-148999600D01*
X312398925Y-148999600D02*
X312398925Y-151859600D01*
%TO.C,D40*%
X250947675Y-111065225D02*
X252867675Y-111065225D01*
X250947675Y-113925225D02*
X250947675Y-111065225D01*
X252867675Y-111065225D02*
X252867675Y-113925225D01*
%TO.C,D9*%
X108072675Y-92015225D02*
X109992675Y-92015225D01*
X108072675Y-94875225D02*
X108072675Y-92015225D01*
X109992675Y-92015225D02*
X109992675Y-94875225D01*
%TO.C,D10*%
X117597675Y-111065225D02*
X119517675Y-111065225D01*
X117597675Y-113925225D02*
X117597675Y-111065225D01*
X119517675Y-111065225D02*
X119517675Y-113925225D01*
%TO.C,D1*%
X69972675Y-92015225D02*
X71892675Y-92015225D01*
X69972675Y-94875225D02*
X69972675Y-92015225D01*
X71892675Y-92015225D02*
X71892675Y-94875225D01*
%TO.C,D34*%
X181891425Y-168215225D02*
X183811425Y-168215225D01*
X181891425Y-171075225D02*
X181891425Y-168215225D01*
X183811425Y-168215225D02*
X183811425Y-171075225D01*
%TO.C,D22*%
X165222675Y-91849600D02*
X167142675Y-91849600D01*
X165222675Y-94709600D02*
X165222675Y-91849600D01*
X167142675Y-91849600D02*
X167142675Y-94709600D01*
%TO.C,D21*%
X150935175Y-148999600D02*
X152855175Y-148999600D01*
X150935175Y-151859600D02*
X150935175Y-148999600D01*
X152855175Y-148999600D02*
X152855175Y-151859600D01*
%TO.C,GND*%
X303500000Y-99950000D02*
X303500000Y-101850000D01*
X303500000Y-101850000D02*
X305400000Y-101850000D01*
X305400000Y-99950000D02*
X303500000Y-99950000D01*
X305400000Y-101850000D02*
X305400000Y-99950000D01*
%TO.C,D12*%
X112835175Y-149165225D02*
X114755175Y-149165225D01*
X112835175Y-152025225D02*
X112835175Y-149165225D01*
X114755175Y-149165225D02*
X114755175Y-152025225D01*
%TO.C,D23*%
X174747675Y-111065225D02*
X176667675Y-111065225D01*
X174747675Y-113925225D02*
X174747675Y-111065225D01*
X176667675Y-111065225D02*
X176667675Y-113925225D01*
%TO.C,D15*%
X136647675Y-111065225D02*
X138567675Y-111065225D01*
X136647675Y-113925225D02*
X136647675Y-111065225D01*
X138567675Y-111065225D02*
X138567675Y-113925225D01*
%TO.C,D14*%
X127122675Y-91849600D02*
X129042675Y-91849600D01*
X127122675Y-94709600D02*
X127122675Y-91849600D01*
X129042675Y-91849600D02*
X129042675Y-94709600D01*
%TO.C,D51*%
X284285175Y-148999600D02*
X286205175Y-148999600D01*
X284285175Y-151859600D02*
X284285175Y-148999600D01*
X286205175Y-148999600D02*
X286205175Y-151859600D01*
%TO.C,D31*%
X212847675Y-111065225D02*
X214767675Y-111065225D01*
X212847675Y-113925225D02*
X212847675Y-111065225D01*
X214767675Y-111065225D02*
X214767675Y-113925225D01*
%TO.C,D45*%
X255710175Y-130115225D02*
X257630175Y-130115225D01*
X255710175Y-132975225D02*
X255710175Y-130115225D01*
X257630175Y-130115225D02*
X257630175Y-132975225D01*
%TO.C,D3*%
X77116425Y-130115225D02*
X79036425Y-130115225D01*
X77116425Y-132975225D02*
X77116425Y-130115225D01*
X79036425Y-130115225D02*
X79036425Y-132975225D01*
%TO.C,D6*%
X89022675Y-92015225D02*
X90942675Y-92015225D01*
X89022675Y-94875225D02*
X89022675Y-92015225D01*
X90942675Y-92015225D02*
X90942675Y-94875225D01*
%TO.C,D47*%
X253328925Y-168049600D02*
X255248925Y-168049600D01*
X253328925Y-170909600D02*
X253328925Y-168049600D01*
X255248925Y-168049600D02*
X255248925Y-170909600D01*
%TO.C,D38*%
X227135175Y-149165225D02*
X229055175Y-149165225D01*
X227135175Y-152025225D02*
X227135175Y-149165225D01*
X229055175Y-149165225D02*
X229055175Y-152025225D01*
%TO.C,D35*%
X222372675Y-92015225D02*
X224292675Y-92015225D01*
X222372675Y-94875225D02*
X222372675Y-92015225D01*
X224292675Y-92015225D02*
X224292675Y-94875225D01*
%TO.C,D11*%
X103310175Y-130115225D02*
X105230175Y-130115225D01*
X103310175Y-132975225D02*
X103310175Y-130115225D01*
X105230175Y-130115225D02*
X105230175Y-132975225D01*
%TO.C,D29*%
X189035175Y-149165225D02*
X190955175Y-149165225D01*
X189035175Y-152025225D02*
X189035175Y-149165225D01*
X190955175Y-149165225D02*
X190955175Y-152025225D01*
%TO.C,D24*%
X160460175Y-129949600D02*
X162380175Y-129949600D01*
X160460175Y-132809600D02*
X160460175Y-129949600D01*
X162380175Y-129949600D02*
X162380175Y-132809600D01*
%TO.C,D61*%
X317622675Y-168215225D02*
X319542675Y-168215225D01*
X317622675Y-171075225D02*
X317622675Y-168215225D01*
X319542675Y-168215225D02*
X319542675Y-171075225D01*
%TO.C,Battery*%
X54890000Y-138290000D02*
X59610000Y-138290000D01*
X54890000Y-144410000D02*
X54890000Y-138290000D01*
X55500000Y-138900000D02*
X59000000Y-138900000D01*
X55500000Y-141350000D02*
X56000000Y-141350000D01*
X55500000Y-141450000D02*
X56000000Y-141450000D01*
X55500000Y-143800000D02*
X55500000Y-138900000D01*
X56000000Y-141250000D02*
X55500000Y-141250000D01*
X56000000Y-141450000D02*
X56000000Y-141250000D01*
X57000000Y-138290000D02*
X57000000Y-138900000D01*
X57000000Y-144410000D02*
X57000000Y-143800000D01*
X58300000Y-138290000D02*
X58300000Y-138900000D01*
X58300000Y-144410000D02*
X58300000Y-143800000D01*
X59000000Y-138900000D02*
X59000000Y-140850000D01*
X59000000Y-140850000D02*
X59610000Y-140850000D01*
X59000000Y-141850000D02*
X59000000Y-143800000D01*
X59000000Y-143800000D02*
X55500000Y-143800000D01*
X59610000Y-138290000D02*
X59610000Y-144410000D01*
X59610000Y-141850000D02*
X59000000Y-141850000D01*
X59610000Y-142650000D02*
X59810000Y-142650000D01*
X59610000Y-144410000D02*
X54890000Y-144410000D01*
X59710000Y-142650000D02*
X59710000Y-142950000D01*
X59810000Y-142650000D02*
X59810000Y-142950000D01*
X59810000Y-142950000D02*
X59610000Y-142950000D01*
X59910000Y-143460000D02*
X59910000Y-144710000D01*
X59910000Y-144710000D02*
X58660000Y-144710000D01*
%TO.C,D39*%
X241422675Y-92015225D02*
X243342675Y-92015225D01*
X241422675Y-94875225D02*
X241422675Y-92015225D01*
X243342675Y-92015225D02*
X243342675Y-94875225D01*
%TO.C,D5*%
X72353925Y-168215225D02*
X74273925Y-168215225D01*
X72353925Y-171075225D02*
X72353925Y-168215225D01*
X74273925Y-168215225D02*
X74273925Y-171075225D01*
%TO.C,D25*%
X169985175Y-149165225D02*
X171905175Y-149165225D01*
X169985175Y-152025225D02*
X169985175Y-149165225D01*
X171905175Y-149165225D02*
X171905175Y-152025225D01*
%TO.C,D18*%
X146172675Y-92015225D02*
X148092675Y-92015225D01*
X146172675Y-94875225D02*
X146172675Y-92015225D01*
X148092675Y-92015225D02*
X148092675Y-94875225D01*
%TO.C,D32*%
X198560175Y-129949600D02*
X200480175Y-129949600D01*
X198560175Y-132809600D02*
X198560175Y-129949600D01*
X200480175Y-129949600D02*
X200480175Y-132809600D01*
%TO.C,D55*%
X293810175Y-129949600D02*
X295730175Y-129949600D01*
X293810175Y-132809600D02*
X293810175Y-129949600D01*
X295730175Y-129949600D02*
X295730175Y-132809600D01*
%TO.C,D19*%
X155697675Y-111065225D02*
X157617675Y-111065225D01*
X155697675Y-113925225D02*
X155697675Y-111065225D01*
X157617675Y-111065225D02*
X157617675Y-113925225D01*
%TO.C,D44*%
X269997675Y-111065225D02*
X271917675Y-111065225D01*
X269997675Y-113925225D02*
X269997675Y-111065225D01*
X271917675Y-111065225D02*
X271917675Y-113925225D01*
%TD*%
M02*
